Jonova-Italic.ufo
<glyph name="exclam" format="2">
  <advance width="736"/>
  <unicode hex="0021"/>
  <outline>
    <contour>
      <point x="501" y="391" type="line"/>
      <point x="614" y="1434" type="line"/>
      <point x="650" y="1464" type="line"/>
      <point x="816" y="1464" type="line"/>
      <point x="840" y="1434" type="line"/>
      <point x="583" y="391" type="line"/>
    </contour>
    <contour>
      <point x="378" y="83" type="qcurve"/>
      <point x="378" y="106"/>
      <point x="396" y="147"/>
      <point x="427" y="178"/>
      <point x="468" y="196"/>
      <point x="491" y="196" type="qcurve"/>
      <point x="514" y="196"/>
      <point x="555" y="178"/>
      <point x="586" y="147"/>
      <point x="604" y="106"/>
      <point x="604" y="83" type="qcurve"/>
      <point x="604" y="60"/>
      <point x="586" y="19"/>
      <point x="555" y="-12"/>
      <point x="514" y="-30"/>
      <point x="491" y="-30" type="qcurve"/>
      <point x="468" y="-30"/>
      <point x="427" y="-12"/>
      <point x="396" y="19"/>
      <point x="378" y="60"/>
    </contour>
  </outline>
</glyph>
<glyph name="dollar" format="2">
  <advance width="1120"/>
  <unicode hex="0024"/>
  <guideline x="0" y="1362" angle="0"/>
  <guideline x="0" y="-199" angle="10"/>
  <guideline x="0" y="72" angle="0"/>
  <guideline x="512" y="0" angle="90"/>
  <outline>
    <contour>
      <point x="979" y="1207" type="line" name="hr00"/>
      <point x="947" y="1279"/>
      <point x="849" y="1352"/>
      <point x="785" y="1362" type="qcurve"/>
      <point x="692" y="839" type="line"/>
      <point x="756" y="807"/>
      <point x="868" y="735"/>
      <point x="952" y="645"/>
      <point x="1000" y="530"/>
      <point x="1000" y="455" type="qcurve"/>
      <point x="1000" y="363"/>
      <point x="941" y="198"/>
      <point x="826" y="69"/>
      <point x="653" y="-17"/>
      <point x="539" y="-30" type="qcurve"/>
      <point x="518" y="-152" type="line"/>
      <point x="413" y="-170" type="line"/>
      <point x="437" y="-30" type="line"/>
      <point x="377" y="-29"/>
      <point x="278" y="-2"/>
      <point x="198" y="41"/>
      <point x="136" y="96"/>
      <point x="114" y="125" type="qcurve"/>
      <point x="235" y="227" type="line"/>
      <point x="245" y="202"/>
      <point x="283" y="149"/>
      <point x="338" y="104"/>
      <point x="410" y="74"/>
      <point x="455" y="72" type="qcurve"/>
      <point x="559" y="663" type="line"/>
      <point x="497" y="691"/>
      <point x="395" y="759"/>
      <point x="322" y="845"/>
      <point x="281" y="951"/>
      <point x="281" y="1016" type="qcurve"/>
      <point x="281" y="1095"/>
      <point x="344" y="1247"/>
      <point x="456" y="1370"/>
      <point x="610" y="1453"/>
      <point x="701" y="1464" type="qcurve"/>
      <point x="722" y="1586" type="line"/>
      <point x="827" y="1604" type="line"/>
      <point x="803" y="1464" type="line"/>
      <point x="853" y="1462"/>
      <point x="943" y="1433"/>
      <point x="1019" y="1390"/>
      <point x="1079" y="1336"/>
      <point x="1099" y="1309" type="qcurve"/>
    </contour>
    <contour>
      <point x="600" y="893" type="qcurve"/>
      <point x="683" y="1362" type="line"/>
      <point x="646" y="1360"/>
      <point x="565" y="1316"/>
      <point x="497" y="1242"/>
      <point x="453" y="1144"/>
      <point x="453" y="1087" type="qcurve"/>
      <point x="453" y="1055"/>
      <point x="472" y="1005"/>
      <point x="510" y="961"/>
      <point x="564" y="918"/>
    </contour>
    <contour>
      <point x="653" y="613" type="qcurve"/>
      <point x="557" y="72" type="line"/>
      <point x="608" y="79"/>
      <point x="706" y="118"/>
      <point x="782" y="188"/>
      <point x="828" y="292"/>
      <point x="828" y="365" type="qcurve"/>
      <point x="828" y="439"/>
      <point x="738" y="556"/>
    </contour>
  </outline>
</glyph>
<glyph name="ampersand" format="2">
  <advance width="1248"/>
  <unicode hex="0026"/>
  <outline>
    <contour>
      <point x="763" y="968" type="qcurve"/>
      <point x="826" y="1005"/>
      <point x="913" y="1060"/>
      <point x="967" y="1114"/>
      <point x="991" y="1177"/>
      <point x="991" y="1222" type="qcurve"/>
      <point x="991" y="1243"/>
      <point x="978" y="1283"/>
      <point x="950" y="1314"/>
      <point x="906" y="1332"/>
      <point x="875" y="1332" type="qcurve"/>
      <point x="850" y="1332"/>
      <point x="794" y="1307"/>
      <point x="747" y="1260"/>
      <point x="716" y="1192"/>
      <point x="716" y="1150" type="qcurve"/>
      <point x="716" y="1129"/>
      <point x="725" y="1080"/>
      <point x="739" y="1031"/>
      <point x="755" y="985"/>
    </contour>
    <contour>
      <point x="659" y="749" type="line"/>
      <point x="584" y="702"/>
      <point x="471" y="607"/>
      <point x="394" y="502"/>
      <point x="355" y="382"/>
      <point x="355" y="309" type="qcurve"/>
      <point x="355" y="249"/>
      <point x="389" y="160"/>
      <point x="446" y="101"/>
      <point x="521" y="72"/>
      <point x="563" y="72" type="qcurve"/>
      <point x="604" y="72"/>
      <point x="684" y="83"/>
      <point x="763" y="111"/>
      <point x="841" y="160"/>
      <point x="880" y="198" type="qcurve"/>
    </contour>
    <contour>
      <point x="974" y="-30" type="line"/>
      <point x="908" y="125" type="line"/>
      <point x="869" y="92"/>
      <point x="783" y="36"/>
      <point x="686" y="-6"/>
      <point x="579" y="-30"/>
      <point x="521" y="-30" type="qcurve"/>
      <point x="447" y="-30"/>
      <point x="323" y="20"/>
      <point x="233" y="110"/>
      <point x="183" y="235"/>
      <point x="183" y="310" type="qcurve"/>
      <point x="183" y="402"/>
      <point x="247" y="566"/>
      <point x="360" y="708"/>
      <point x="515" y="827"/>
      <point x="605" y="875" type="qcurve"/>
      <point x="607" y="885" type="line"/>
      <point x="592" y="919"/>
      <point x="572" y="974"/>
      <point x="560" y="1020"/>
      <point x="554" y="1061"/>
      <point x="554" y="1081" type="qcurve"/>
      <point x="554" y="1143"/>
      <point x="597" y="1269"/>
      <point x="682" y="1370"/>
      <point x="810" y="1434"/>
      <point x="895" y="1434" type="qcurve"/>
      <point x="956" y="1434"/>
      <point x="1049" y="1398"/>
      <point x="1111" y="1340"/>
      <point x="1143" y="1264"/>
      <point x="1143" y="1224" type="qcurve"/>
      <point x="1143" y="1155"/>
      <point x="1096" y="1053"/>
      <point x="1011" y="968"/>
      <point x="892" y="890"/>
      <point x="821" y="845" type="qcurve"/>
      <point x="820" y="835" type="line"/>
      <point x="1018" y="343" type="line"/>
      <point x="1049" y="388"/>
      <point x="1087" y="503"/>
      <point x="1101" y="584" type="qcurve"/>
      <point x="1228" y="559" type="line"/>
      <point x="1213" y="526"/>
      <point x="1166" y="441"/>
      <point x="1114" y="358"/>
      <point x="1064" y="287"/>
      <point x="1047" y="268" type="qcurve"/>
      <point x="1154" y="0" type="line"/>
    </contour>
  </outline>
</glyph>
<glyph name="parenleft" format="2">
  <advance width="736"/>
  <unicode hex="0028"/>
  <outline>
    <contour>
      <point x="912" y="1464" type="line"/>
      <point x="783" y="1372"/>
      <point x="579" y="1117"/>
      <point x="438" y="821"/>
      <point x="364" y="498"/>
      <point x="364" y="338" type="qcurve"/>
      <point x="364" y="142"/>
      <point x="486" y="-164"/>
      <point x="604" y="-278" type="qcurve"/>
      <point x="566" y="-384" type="line"/>
      <point x="392" y="-256"/>
      <point x="212" y="100"/>
      <point x="212" y="339" type="qcurve"/>
      <point x="212" y="534"/>
      <point x="309" y="901"/>
      <point x="490" y="1221"/>
      <point x="748" y="1482"/>
      <point x="910" y="1570" type="qcurve"/>
    </contour>
  </outline>
</glyph>
<glyph name="asterisk" format="2">
  <advance width="1024"/>
  <unicode hex="002A"/>
  <outline>
    <contour>
      <point x="640" y="1584" type="line"/>
      <point x="804" y="1584" type="line"/>
      <point x="742" y="1263" type="line"/>
      <point x="750" y="1258" type="line"/>
      <point x="997" y="1472" type="line"/>
      <point x="1079" y="1330" type="line"/>
      <point x="770" y="1224" type="line"/>
      <point x="770" y="1214" type="line"/>
      <point x="1078" y="1106" type="line"/>
      <point x="997" y="964" type="line"/>
      <point x="750" y="1180" type="line"/>
      <point x="742" y="1175" type="line"/>
      <point x="804" y="854" type="line"/>
      <point x="640" y="854" type="line"/>
      <point x="702" y="1175" type="line"/>
      <point x="694" y="1180" type="line"/>
      <point x="447" y="966" type="line"/>
      <point x="365" y="1108" type="line"/>
      <point x="674" y="1214" type="line"/>
      <point x="674" y="1223" type="line"/>
      <point x="365" y="1330" type="line"/>
      <point x="447" y="1472" type="line"/>
      <point x="694" y="1258" type="line"/>
      <point x="702" y="1263" type="line"/>
    </contour>
  </outline>
</glyph>
<glyph name="plus" format="2">
  <advance width="1152"/>
  <unicode hex="002B"/>
  <outline>
    <contour>
      <point x="164" y="426" type="line"/>
      <point x="185" y="548" type="line"/>
      <point x="611" y="548" type="line"/>
      <point x="686" y="974" type="line"/>
      <point x="808" y="974" type="line"/>
      <point x="733" y="548" type="line"/>
      <point x="1159" y="548" type="line"/>
      <point x="1138" y="426" type="line"/>
      <point x="712" y="426" type="line"/>
      <point x="637" y="0" type="line"/>
      <point x="515" y="0" type="line"/>
      <point x="590" y="426" type="line"/>
    </contour>
  </outline>
</glyph>
<glyph name="slash" format="2">
  <advance width="576"/>
  <unicode hex="002F"/>
  <guideline x="0" y="-13" angle="350"/>
  <guideline x="3" y="0" angle="72"/>
  <guideline x="112" y="0" angle="65"/>
  <outline>
    <contour>
      <point x="844" y="1569" type="line" name="hr00"/>
      <point x="41" y="-152" type="line"/>
      <point x="-73" y="-134" type="line"/>
      <point x="729" y="1586" type="line"/>
    </contour>
  </outline>
</glyph>
<glyph name="one" format="2">
  <advance width="1120"/>
  <unicode hex="0031"/>
  <outline>
    <contour>
      <point x="946" y="1464" type="line"/>
      <point x="688" y="0" type="line"/>
      <point x="526" y="0" type="line"/>
      <point x="750" y="1265" type="line"/>
      <point x="740" y="1265" type="line"/>
      <point x="466" y="1206" type="line"/>
      <point x="466" y="1309" type="line"/>
      <point x="916" y="1464" type="line"/>
    </contour>
  </outline>
</glyph>
<glyph name="two" format="2">
  <advance width="1120"/>
  <unicode hex="0032"/>
  <outline>
    <contour>
      <point x="450" y="1309" type="line"/>
      <point x="482" y="1337"/>
      <point x="569" y="1393"/>
      <point x="671" y="1437"/>
      <point x="784" y="1464"/>
      <point x="843" y="1464" type="qcurve"/>
      <point x="913" y="1464"/>
      <point x="1033" y="1428"/>
      <point x="1121" y="1355"/>
      <point x="1171" y="1245"/>
      <point x="1171" y="1171" type="qcurve"/>
      <point x="1171" y="1090"/>
      <point x="1121" y="940"/>
      <point x="1027" y="791"/>
      <point x="891" y="634"/>
      <point x="720" y="458"/>
      <point x="515" y="254"/>
      <point x="399" y="132" type="qcurve"/>
      <point x="397" y="122" type="line"/>
      <point x="1008" y="142" type="line"/>
      <point x="983" y="0" type="line"/>
      <point x="153" y="0" type="line"/>
      <point x="156" y="20" type="line"/>
      <point x="309" y="190"/>
      <point x="555" y="451"/>
      <point x="744" y="655"/>
      <point x="880" y="815"/>
      <point x="968" y="955"/>
      <point x="1009" y="1087"/>
      <point x="1009" y="1161" type="qcurve"/>
      <point x="1009" y="1206"/>
      <point x="984" y="1280"/>
      <point x="937" y="1333"/>
      <point x="868" y="1362"/>
      <point x="825" y="1362" type="qcurve"/>
      <point x="753" y="1362"/>
      <point x="622" y="1279"/>
      <point x="552" y="1207" type="qcurve"/>
    </contour>
  </outline>
</glyph>
<glyph name="three" format="2">
  <advance width="1120"/>
  <unicode hex="0033"/>
  <outline>
    <contour>
      <point x="420" y="1309" type="line"/>
      <point x="443" y="1330"/>
      <point x="519" y="1384"/>
      <point x="616" y="1431"/>
      <point x="733" y="1464"/>
      <point x="798" y="1464" type="qcurve"/>
      <point x="867" y="1464"/>
      <point x="977" y="1423"/>
      <point x="1055" y="1352"/>
      <point x="1096" y="1255"/>
      <point x="1096" y="1199" type="qcurve"/>
      <point x="1096" y="1152"/>
      <point x="1068" y="1065"/>
      <point x="1022" y="990"/>
      <point x="961" y="927"/>
      <point x="897" y="880"/>
      <point x="833" y="850"/>
      <point x="806" y="845" type="qcurve"/>
      <point x="805" y="835" type="line"/>
      <point x="825" y="830"/>
      <point x="880" y="808"/>
      <point x="939" y="772"/>
      <point x="996" y="720"/>
      <point x="1040" y="648"/>
      <point x="1068" y="556"/>
      <point x="1068" y="499" type="qcurve"/>
      <point x="1068" y="390"/>
      <point x="987" y="198"/>
      <point x="840" y="54"/>
      <point x="633" y="-30"/>
      <point x="507" y="-30" type="qcurve"/>
      <point x="438" y="-30"/>
      <point x="328" y="-5"/>
      <point x="241" y="38"/>
      <point x="176" y="94"/>
      <point x="152" y="125" type="qcurve"/>
      <point x="254" y="227" type="line"/>
      <point x="270" y="195"/>
      <point x="323" y="139"/>
      <point x="394" y="97"/>
      <point x="478" y="72"/>
      <point x="525" y="72" type="qcurve"/>
      <point x="598" y="72"/>
      <point x="732" y="142"/>
      <point x="835" y="259"/>
      <point x="896" y="411"/>
      <point x="896" y="493" type="qcurve"/>
      <point x="896" y="554"/>
      <point x="859" y="659"/>
      <point x="785" y="734"/>
      <point x="675" y="777"/>
      <point x="602" y="777" type="qcurve"/>
      <point x="530" y="777" type="line"/>
      <point x="548" y="879" type="line"/>
      <point x="630" y="879" type="line"/>
      <point x="681" y="879"/>
      <point x="788" y="927"/>
      <point x="877" y="1011"/>
      <point x="934" y="1126"/>
      <point x="934" y="1194" type="qcurve"/>
      <point x="934" y="1230"/>
      <point x="914" y="1291"/>
      <point x="875" y="1336"/>
      <point x="817" y="1362"/>
      <point x="779" y="1362" type="qcurve"/>
      <point x="737" y="1362"/>
      <point x="664" y="1334"/>
      <point x="600" y="1290"/>
      <point x="546" y="1235"/>
      <point x="522" y="1207" type="qcurve"/>
    </contour>
  </outline>
</glyph>
<glyph name="four" format="2">
  <advance width="1120"/>
  <unicode hex="0034"/>
  <outline>
    <contour>
      <point x="934" y="1434" type="line"/>
      <point x="964" y="1434" type="line"/>
      <point x="1092" y="1410" type="line"/>
      <point x="357" y="481" type="line"/>
      <point x="769" y="496" type="line"/>
      <point x="799" y="667" type="line"/>
      <point x="938" y="707" type="line"/>
      <point x="968" y="707" type="line"/>
      <point x="932" y="502" type="line"/>
      <point x="1098" y="508" type="line"/>
      <point x="1072" y="365" type="line"/>
      <point x="908" y="365" type="line"/>
      <point x="844" y="0" type="line"/>
      <point x="682" y="0" type="line"/>
      <point x="746" y="365" type="line"/>
      <point x="148" y="365" type="line"/>
      <point x="151" y="385" type="line"/>
    </contour>
  </outline>
</glyph>
<glyph name="five" format="2">
  <advance width="1120"/>
  <unicode hex="0035"/>
  <outline>
    <contour>
      <point x="319" y="777" type="line"/>
      <point x="434" y="1434" type="line"/>
      <point x="1149" y="1434" type="line"/>
      <point x="1127" y="1309" type="line"/>
      <point x="578" y="1332" type="line"/>
      <point x="501" y="893" type="line"/>
      <point x="511" y="893" type="line"/>
      <point x="547" y="910"/>
      <point x="649" y="931"/>
      <point x="700" y="931" type="qcurve"/>
      <point x="783" y="931"/>
      <point x="919" y="875"/>
      <point x="1016" y="774"/>
      <point x="1069" y="633"/>
      <point x="1069" y="548" type="qcurve"/>
      <point x="1069" y="435"/>
      <point x="987" y="227"/>
      <point x="835" y="66"/>
      <point x="622" y="-30"/>
      <point x="490" y="-30" type="qcurve"/>
      <point x="426" y="-30"/>
      <point x="317" y="-2"/>
      <point x="229" y="42"/>
      <point x="164" y="97"/>
      <point x="144" y="125" type="qcurve"/>
      <point x="246" y="227" type="line"/>
      <point x="259" y="200"/>
      <point x="310" y="145"/>
      <point x="379" y="100"/>
      <point x="462" y="72"/>
      <point x="507" y="72" type="qcurve"/>
      <point x="584" y="72"/>
      <point x="725" y="147"/>
      <point x="833" y="275"/>
      <point x="897" y="444"/>
      <point x="897" y="538" type="qcurve"/>
      <point x="897" y="611"/>
      <point x="856" y="720"/>
      <point x="791" y="793"/>
      <point x="711" y="829"/>
      <point x="672" y="829" type="qcurve"/>
      <point x="611" y="829"/>
      <point x="523" y="803"/>
      <point x="481" y="777" type="qcurve"/>
    </contour>
  </outline>
</glyph>
<glyph name="six" format="2">
  <advance width="1120"/>
  <unicode hex="0036"/>
  <outline>
    <contour>
      <point x="1070" y="1362" type="line"/>
      <point x="935" y="1362"/>
      <point x="708" y="1261"/>
      <point x="533" y="1077"/>
      <point x="414" y="819"/>
      <point x="386" y="661" type="qcurve"/>
      <point x="396" y="661" type="line"/>
      <point x="431" y="709"/>
      <point x="514" y="780"/>
      <point x="602" y="827"/>
      <point x="692" y="849"/>
      <point x="734" y="849" type="qcurve"/>
      <point x="818" y="849"/>
      <point x="950" y="799"/>
      <point x="1043" y="709"/>
      <point x="1092" y="582"/>
      <point x="1092" y="504" type="qcurve"/>
      <point x="1092" y="387"/>
      <point x="1004" y="191"/>
      <point x="859" y="49"/>
      <point x="675" y="-30"/>
      <point x="579" y="-30" type="qcurve"/>
      <point x="504" y="-30"/>
      <point x="366" y="28"/>
      <point x="261" y="144"/>
      <point x="199" y="319"/>
      <point x="199" y="437" type="qcurve"/>
      <point x="199" y="556"/>
      <point x="245" y="800"/>
      <point x="340" y="1028"/>
      <point x="485" y="1229"/>
      <point x="683" y="1378"/>
      <point x="934" y="1464"/>
      <point x="1088" y="1464" type="qcurve"/>
    </contour>
    <contour>
      <point x="716" y="747" type="qcurve"/>
      <point x="658" y="747"/>
      <point x="561" y="712"/>
      <point x="485" y="651"/>
      <point x="428" y="570"/>
      <point x="390" y="478"/>
      <point x="371" y="381"/>
      <point x="371" y="335" type="qcurve"/>
      <point x="371" y="276"/>
      <point x="399" y="179"/>
      <point x="456" y="110"/>
      <point x="540" y="72"/>
      <point x="597" y="72" type="qcurve"/>
      <point x="672" y="72"/>
      <point x="791" y="145"/>
      <point x="875" y="267"/>
      <point x="920" y="424"/>
      <point x="920" y="507" type="qcurve"/>
      <point x="920" y="560"/>
      <point x="895" y="648"/>
      <point x="845" y="712"/>
      <point x="768" y="747"/>
    </contour>
  </outline>
</glyph>
<glyph name="seven" format="2">
  <advance width="1120"/>
  <unicode hex="0037"/>
  <outline>
    <contour>
      <point x="399" y="1434" type="line"/>
      <point x="1240" y="1434" type="line"/>
      <point x="1237" y="1414" type="line"/>
      <point x="419" y="-30" type="line"/>
      <point x="257" y="0" type="line"/>
      <point x="1039" y="1302" type="line"/>
      <point x="1041" y="1312" type="line"/>
      <point x="373" y="1292" type="line"/>
    </contour>
  </outline>
</glyph>
<glyph name="eight" format="2">
  <advance width="1120"/>
  <unicode hex="0038"/>
  <outline>
    <contour>
      <point x="817" y="1464" type="qcurve"/>
      <point x="886" y="1464"/>
      <point x="996" y="1417"/>
      <point x="1073" y="1339"/>
      <point x="1113" y="1238"/>
      <point x="1113" y="1183" type="qcurve"/>
      <point x="1113" y="1073"/>
      <point x="999" y="892"/>
      <point x="901" y="834" type="qcurve"/>
      <point x="899" y="824" type="line"/>
      <point x="952" y="796"/>
      <point x="1026" y="728"/>
      <point x="1071" y="650"/>
      <point x="1091" y="561"/>
      <point x="1091" y="513" type="qcurve"/>
      <point x="1091" y="447"/>
      <point x="1058" y="316"/>
      <point x="994" y="195"/>
      <point x="902" y="91"/>
      <point x="782" y="14"/>
      <point x="637" y="-30"/>
      <point x="553" y="-30" type="qcurve"/>
      <point x="458" y="-30"/>
      <point x="316" y="30"/>
      <point x="222" y="131"/>
      <point x="175" y="262"/>
      <point x="175" y="333" type="qcurve"/>
      <point x="175" y="488"/>
      <point x="341" y="743"/>
      <point x="507" y="824" type="qcurve"/>
      <point x="509" y="834" type="line"/>
      <point x="452" y="874"/>
      <point x="400" y="985"/>
      <point x="400" y="1054" type="qcurve"/>
      <point x="400" y="1129"/>
      <point x="462" y="1275"/>
      <point x="572" y="1392"/>
      <point x="725" y="1464"/>
    </contour>
    <contour>
      <point x="799" y="1362" type="qcurve"/>
      <point x="748" y="1362"/>
      <point x="661" y="1307"/>
      <point x="598" y="1220"/>
      <point x="562" y="1110"/>
      <point x="562" y="1055" type="qcurve"/>
      <point x="562" y="1016"/>
      <point x="581" y="948"/>
      <point x="619" y="898"/>
      <point x="675" y="869"/>
      <point x="712" y="869" type="qcurve"/>
      <point x="763" y="869"/>
      <point x="850" y="923"/>
      <point x="915" y="1009"/>
      <point x="951" y="1118"/>
      <point x="951" y="1173" type="qcurve"/>
      <point x="951" y="1212"/>
      <point x="931" y="1281"/>
      <point x="892" y="1332"/>
      <point x="835" y="1362"/>
    </contour>
    <contour>
      <point x="694" y="767" type="qcurve"/>
      <point x="622" y="767"/>
      <point x="496" y="693"/>
      <point x="402" y="574"/>
      <point x="347" y="422"/>
      <point x="347" y="344" type="qcurve"/>
      <point x="347" y="287"/>
      <point x="377" y="188"/>
      <point x="435" y="114"/>
      <point x="518" y="72"/>
      <point x="571" y="72" type="qcurve"/>
      <point x="642" y="72"/>
      <point x="769" y="147"/>
      <point x="864" y="268"/>
      <point x="919" y="421"/>
      <point x="919" y="499" type="qcurve"/>
      <point x="919" y="556"/>
      <point x="889" y="654"/>
      <point x="831" y="726"/>
      <point x="748" y="767"/>
    </contour>
  </outline>
</glyph>
<glyph name="nine" format="2">
  <advance width="1120"/>
  <unicode hex="0039"/>
  <outline>
    <contour>
      <point x="210" y="72" type="line"/>
      <point x="358" y="72"/>
      <point x="614" y="170"/>
      <point x="817" y="353"/>
      <point x="957" y="612"/>
      <point x="990" y="773" type="qcurve"/>
      <point x="980" y="773" type="line"/>
      <point x="946" y="722"/>
      <point x="858" y="650"/>
      <point x="763" y="605"/>
      <point x="671" y="585"/>
      <point x="632" y="585" type="qcurve"/>
      <point x="548" y="585"/>
      <point x="415" y="634"/>
      <point x="322" y="724"/>
      <point x="273" y="851"/>
      <point x="273" y="928" type="qcurve"/>
      <point x="273" y="1046"/>
      <point x="356" y="1243"/>
      <point x="498" y="1385"/>
      <point x="689" y="1464"/>
      <point x="797" y="1464" type="qcurve"/>
      <point x="872" y="1464"/>
      <point x="1009" y="1409"/>
      <point x="1114" y="1295"/>
      <point x="1177" y="1121"/>
      <point x="1177" y="1002" type="qcurve"/>
      <point x="1177" y="876"/>
      <point x="1121" y="625"/>
      <point x="1011" y="395"/>
      <point x="848" y="198"/>
      <point x="634" y="53"/>
      <point x="368" y="-30"/>
      <point x="192" y="-30" type="qcurve"/>
    </contour>
    <contour>
      <point x="650" y="687" type="qcurve"/>
      <point x="739" y="687"/>
      <point x="872" y="765"/>
      <point x="961" y="886"/>
      <point x="1005" y="1034"/>
      <point x="1005" y="1105" type="qcurve"/>
      <point x="1005" y="1226"/>
      <point x="891" y="1362"/>
      <point x="779" y="1362" type="qcurve"/>
      <point x="711" y="1362"/>
      <point x="590" y="1289"/>
      <point x="498" y="1168"/>
      <point x="445" y="1011"/>
      <point x="445" y="927" type="qcurve"/>
      <point x="445" y="874"/>
      <point x="470" y="786"/>
      <point x="521" y="722"/>
      <point x="598" y="687"/>
    </contour>
  </outline>
</glyph>
<glyph name="colon" format="2">
  <advance width="576"/>
  <unicode hex="003A"/>
  <outline>
    <contour>
      <point x="210" y="93" type="qcurve"/>
      <point x="210" y="118"/>
      <point x="229" y="163"/>
      <point x="263" y="197"/>
      <point x="307" y="216"/>
      <point x="333" y="216" type="qcurve"/>
      <point x="358" y="216"/>
      <point x="403" y="197"/>
      <point x="436" y="163"/>
      <point x="456" y="118"/>
      <point x="456" y="93" type="qcurve"/>
      <point x="456" y="68"/>
      <point x="436" y="23"/>
      <point x="403" y="-10"/>
      <point x="358" y="-30"/>
      <point x="333" y="-30" type="qcurve"/>
      <point x="307" y="-30"/>
      <point x="263" y="-10"/>
      <point x="229" y="23"/>
      <point x="210" y="68"/>
    </contour>
    <contour>
      <point x="349" y="881" type="qcurve"/>
      <point x="349" y="906"/>
      <point x="368" y="951"/>
      <point x="402" y="984"/>
      <point x="446" y="1004"/>
      <point x="472" y="1004" type="qcurve"/>
      <point x="497" y="1004"/>
      <point x="542" y="984"/>
      <point x="575" y="951"/>
      <point x="595" y="906"/>
      <point x="595" y="881" type="qcurve"/>
      <point x="595" y="855"/>
      <point x="575" y="811"/>
      <point x="542" y="777"/>
      <point x="497" y="758"/>
      <point x="472" y="758" type="qcurve"/>
      <point x="446" y="758"/>
      <point x="402" y="777"/>
      <point x="368" y="811"/>
      <point x="349" y="855"/>
    </contour>
  </outline>
</glyph>
<glyph name="semicolon" format="2">
  <advance width="576"/>
  <unicode hex="003B"/>
  <outline>
    <contour>
      <point x="207" y="79" type="line"/>
      <point x="344" y="216" type="line"/>
      <point x="365" y="216" type="line"/>
      <point x="389" y="186"/>
      <point x="423" y="73"/>
      <point x="423" y="6" type="qcurve"/>
      <point x="423" y="-64"/>
      <point x="374" y="-184"/>
      <point x="291" y="-284"/>
      <point x="182" y="-367"/>
      <point x="122" y="-400" type="qcurve"/>
      <point x="49" y="-327" type="line"/>
      <point x="81" y="-303"/>
      <point x="149" y="-245"/>
      <point x="205" y="-176"/>
      <point x="241" y="-97"/>
      <point x="241" y="-52" type="qcurve"/>
      <point x="241" y="-20"/>
      <point x="217" y="41"/>
      <point x="203" y="59" type="qcurve"/>
    </contour>
    <contour>
      <point x="349" y="881" type="qcurve"/>
      <point x="349" y="906"/>
      <point x="368" y="951"/>
      <point x="402" y="984"/>
      <point x="446" y="1004"/>
      <point x="472" y="1004" type="qcurve"/>
      <point x="497" y="1004"/>
      <point x="542" y="984"/>
      <point x="575" y="951"/>
      <point x="595" y="906"/>
      <point x="595" y="881" type="qcurve"/>
      <point x="595" y="855"/>
      <point x="575" y="811"/>
      <point x="542" y="777"/>
      <point x="497" y="758"/>
      <point x="472" y="758" type="qcurve"/>
      <point x="446" y="758"/>
      <point x="402" y="777"/>
      <point x="368" y="811"/>
      <point x="349" y="855"/>
    </contour>
  </outline>
</glyph>
<glyph name="less" format="2">
  <advance width="1152"/>
  <unicode hex="003C"/>
  <outline>
    <contour>
      <point x="418" y="478" type="line"/>
      <point x="1007" y="98" type="line"/>
      <point x="961" y="-30" type="line"/>
      <point x="238" y="436" type="line"/>
      <point x="256" y="538" type="line"/>
      <point x="1143" y="1004" type="line"/>
      <point x="1143" y="876" type="line"/>
      <point x="421" y="498" type="line"/>
    </contour>
  </outline>
</glyph>
<glyph name="equal" format="2">
  <advance width="1152"/>
  <unicode hex="003D"/>
  <outline>
    <contour>
      <point x="1157" y="748" type="line"/>
      <point x="1136" y="626" type="line"/>
      <point x="236" y="626" type="line"/>
      <point x="257" y="748" type="line"/>
    </contour>
    <contour>
      <point x="1087" y="350" type="line"/>
      <point x="1066" y="228" type="line"/>
      <point x="166" y="228" type="line"/>
      <point x="187" y="350" type="line"/>
    </contour>
  </outline>
</glyph>
<glyph name="greater" format="2">
  <advance width="1152"/>
  <unicode hex="003E"/>
  <outline>
    <contour>
      <point x="905" y="498" type="line"/>
      <point x="317" y="876" type="line"/>
      <point x="363" y="1004" type="line"/>
      <point x="1084" y="538" type="line"/>
      <point x="1066" y="436" type="line"/>
      <point x="179" y="-30" type="line"/>
      <point x="179" y="98" type="line"/>
      <point x="902" y="478" type="line"/>
    </contour>
  </outline>
</glyph>
<glyph name="question" format="2">
  <advance width="1024"/>
  <unicode hex="003F"/>
  <outline>
    <contour>
      <point x="393" y="1309" type="line"/>
      <point x="579" y="1464"/>
      <point x="798" y="1464" type="qcurve"/>
      <point x="850" y="1464"/>
      <point x="949" y="1434"/>
      <point x="1027" y="1375"/>
      <point x="1074" y="1286"/>
      <point x="1074" y="1228" type="qcurve"/>
      <point x="1074" y="1152"/>
      <point x="999" y="1029"/>
      <point x="886" y="924"/>
      <point x="755" y="830"/>
      <point x="642" y="737"/>
      <point x="567" y="637"/>
      <point x="567" y="578" type="qcurve"/>
      <point x="567" y="547"/>
      <point x="585" y="505"/>
      <point x="614" y="479"/>
      <point x="648" y="467"/>
      <point x="663" y="467" type="qcurve"/>
      <point x="643" y="365" type="line"/>
      <point x="607" y="365"/>
      <point x="535" y="396"/>
      <point x="478" y="451"/>
      <point x="442" y="528"/>
      <point x="442" y="575" type="qcurve"/>
      <point x="442" y="650"/>
      <point x="513" y="770"/>
      <point x="621" y="873"/>
      <point x="745" y="967"/>
      <point x="853" y="1062"/>
      <point x="924" y="1166"/>
      <point x="924" y="1229" type="qcurve"/>
      <point x="924" y="1260"/>
      <point x="899" y="1309"/>
      <point x="857" y="1343"/>
      <point x="801" y="1362"/>
      <point x="770" y="1362" type="qcurve"/>
      <point x="726" y="1362"/>
      <point x="650" y="1334"/>
      <point x="582" y="1290"/>
      <point x="522" y="1235"/>
      <point x="495" y="1207" type="qcurve"/>
    </contour>
    <contour>
      <point x="417" y="83" type="qcurve"/>
      <point x="417" y="106"/>
      <point x="435" y="147"/>
      <point x="466" y="178"/>
      <point x="507" y="196"/>
      <point x="530" y="196" type="qcurve"/>
      <point x="553" y="196"/>
      <point x="594" y="178"/>
      <point x="625" y="147"/>
      <point x="643" y="106"/>
      <point x="643" y="83" type="qcurve"/>
      <point x="643" y="60"/>
      <point x="625" y="19"/>
      <point x="594" y="-12"/>
      <point x="553" y="-30"/>
      <point x="530" y="-30" type="qcurve"/>
      <point x="507" y="-30"/>
      <point x="466" y="-12"/>
      <point x="435" y="19"/>
      <point x="417" y="60"/>
    </contour>
  </outline>
</glyph>
<glyph name="at" format="2">
  <advance width="2048"/>
  <unicode hex="0040"/>
  <guideline x="0" y="447" angle="0"/>
  <guideline x="1414" y="0" angle="135"/>
  <guideline x="1308" y="0" angle="80"/>
  <outline>
    <contour>
      <point x="1261" y="1310" type="qcurve" name="dv04"/>
      <point x="1436" y="1310"/>
      <point x="1706" y="1207"/>
      <point x="1889" y="1031"/>
      <point x="1984" y="800"/>
      <point x="1984" y="672" type="qcurve" name="dh06"/>
      <point x="1984" y="595"/>
      <point x="1950" y="436"/>
      <point x="1882" y="287"/>
      <point x="1781" y="155"/>
      <point x="1645" y="57"/>
      <point x="1476" y="0"/>
      <point x="1375" y="0" type="qcurve" name="ab01"/>
      <point x="1348" y="0"/>
      <point x="1301" y="18"/>
      <point x="1264" y="47"/>
      <point x="1237" y="83"/>
      <point x="1231" y="102" type="qcurve" name="sv01"/>
      <point x="1221" y="102" type="line"/>
      <point x="1193" y="81"/>
      <point x="1125" y="44"/>
      <point x="1051" y="16"/>
      <point x="974" y="0"/>
      <point x="937" y="0" type="qcurve" name="ab02"/>
      <point x="868" y="0"/>
      <point x="765" y="43"/>
      <point x="698" y="121"/>
      <point x="664" y="230"/>
      <point x="664" y="295" type="qcurve" name="dh03"/>
      <point x="664" y="365"/>
      <point x="701" y="507"/>
      <point x="767" y="638"/>
      <point x="860" y="751"/>
      <point x="972" y="834"/>
      <point x="1100" y="882"/>
      <point x="1168" y="882" type="qcurve" name="dv06"/>
      <point x="1256" y="882"/>
      <point x="1372" y="814"/>
      <point x="1409" y="760" type="qcurve"/>
      <point x="1419" y="760" type="line"/>
      <point x="1452" y="852" type="line" name="sh01"/>
      <point x="1589" y="882" type="line" name="sv02"/>
      <point x="1619" y="882" type="line" name="ih01"/>
      <point x="1403" y="271" type="line"/>
      <point x="1399" y="260"/>
      <point x="1389" y="231"/>
      <point x="1380" y="202"/>
      <point x="1374" y="174"/>
      <point x="1374" y="164" type="qcurve"/>
      <point x="1374" y="139"/>
      <point x="1405" y="102"/>
      <point x="1444" y="102" type="qcurve" name="sv03"/>
      <point x="1522" y="102"/>
      <point x="1672" y="187"/>
      <point x="1790" y="336"/>
      <point x="1862" y="540"/>
      <point x="1862" y="659" type="qcurve" name="dh05"/>
      <point x="1862" y="767"/>
      <point x="1785" y="966"/>
      <point x="1631" y="1117"/>
      <point x="1399" y="1208"/>
      <point x="1244" y="1208" type="qcurve" name="dv03"/>
      <point x="1132" y="1208"/>
      <point x="913" y="1140"/>
      <point x="716" y="1019"/>
      <point x="549" y="852"/>
      <point x="427" y="654"/>
      <point x="358" y="432"/>
      <point x="358" y="317" type="qcurve" name="dh02"/>
      <point x="358" y="186"/>
      <point x="449" y="-43"/>
      <point x="612" y="-212"/>
      <point x="839" y="-310"/>
      <point x="976" y="-310" type="qcurve" name="dv02"/>
      <point x="1111" y="-310"/>
      <point x="1365" y="-206"/>
      <point x="1499" y="-105" type="qcurve" name="sv04"/>
      <point x="1571" y="-192" type="line" name="ah01"/>
      <point x="1495" y="-252"/>
      <point x="1335" y="-335"/>
      <point x="1176" y="-388"/>
      <point x="1025" y="-412"/>
      <point x="958" y="-412" type="qcurve" name="dv01"/>
      <point x="797" y="-412"/>
      <point x="532" y="-303"/>
      <point x="341" y="-111"/>
      <point x="236" y="149"/>
      <point x="236" y="301" type="qcurve" name="dh01"/>
      <point x="236" y="435"/>
      <point x="315" y="690"/>
      <point x="456" y="914"/>
      <point x="650" y="1101"/>
      <point x="878" y="1235"/>
      <point x="1131" y="1310"/>
    </contour>
    <contour>
      <point x="1159" y="780" type="qcurve" name="dv05"/>
      <point x="1112" y="780"/>
      <point x="1020" y="743"/>
      <point x="937" y="677"/>
      <point x="866" y="588"/>
      <point x="815" y="485"/>
      <point x="786" y="372"/>
      <point x="786" y="316" type="qcurve" name="dh04"/>
      <point x="786" y="271"/>
      <point x="808" y="192"/>
      <point x="853" y="135"/>
      <point x="921" y="102"/>
      <point x="966" y="102" type="qcurve" name="sv05"/>
      <point x="1015" y="102"/>
      <point x="1109" y="142"/>
      <point x="1192" y="211"/>
      <point x="1262" y="303"/>
      <point x="1313" y="406"/>
      <point x="1341" y="516"/>
      <point x="1341" y="569" type="qcurve" name="sh02"/>
      <point x="1341" y="611"/>
      <point x="1322" y="687"/>
      <point x="1279" y="746"/>
      <point x="1210" y="780"/>
    </contour>
  </outline>
</glyph>
<glyph name="A" format="2">
  <advance width="1344"/>
  <unicode hex="0041"/>
  <outline>
    <contour>
      <point x="1058" y="-30" type="line"/>
      <point x="974" y="365" type="line"/>
      <point x="403" y="365" type="line"/>
      <point x="173" y="-30" type="line"/>
      <point x="59" y="0" type="line"/>
      <point x="908" y="1464" type="line"/>
      <point x="952" y="1464" type="line"/>
      <point x="1264" y="0" type="line"/>
    </contour>
    <contour>
      <point x="814" y="1090" type="line"/>
      <point x="473" y="487" type="line"/>
      <point x="949" y="487" type="line"/>
      <point x="824" y="1090" type="line"/>
    </contour>
  </outline>
</glyph>
<glyph name="B" format="2">
  <advance width="1248"/>
  <unicode hex="0042"/>
  <outline>
    <contour>
      <point x="434" y="1434" type="line"/>
      <point x="807" y="1434" type="line"/>
      <point x="913" y="1434"/>
      <point x="1085" y="1401"/>
      <point x="1206" y="1333"/>
      <point x="1271" y="1227"/>
      <point x="1271" y="1155" type="qcurve"/>
      <point x="1271" y="1079"/>
      <point x="1208" y="953"/>
      <point x="1118" y="860"/>
      <point x="1020" y="805"/>
      <point x="984" y="800" type="qcurve"/>
      <point x="982" y="790" type="line"/>
      <point x="1018" y="781"/>
      <point x="1109" y="739"/>
      <point x="1190" y="667"/>
      <point x="1245" y="560"/>
      <point x="1245" y="486" type="qcurve"/>
      <point x="1245" y="373"/>
      <point x="1147" y="193"/>
      <point x="970" y="67"/>
      <point x="720" y="0"/>
      <point x="569" y="0" type="qcurve"/>
      <point x="182" y="0" type="line"/>
    </contour>
    <contour>
      <point x="595" y="1312" type="line"/>
      <point x="510" y="839" type="line"/>
      <point x="703" y="839" type="line"/>
      <point x="780" y="839"/>
      <point x="920" y="874"/>
      <point x="1026" y="948"/>
      <point x="1089" y="1062"/>
      <point x="1089" y="1141" type="qcurve"/>
      <point x="1089" y="1231"/>
      <point x="930" y="1312"/>
      <point x="788" y="1312" type="qcurve"/>
    </contour>
    <contour>
      <point x="488" y="717" type="line"/>
      <point x="385" y="122" type="line"/>
      <point x="586" y="122" type="line"/>
      <point x="819" y="122"/>
      <point x="1053" y="313"/>
      <point x="1053" y="489" type="qcurve"/>
      <point x="1053" y="554"/>
      <point x="1004" y="642"/>
      <point x="918" y="695"/>
      <point x="804" y="717"/>
      <point x="739" y="717" type="qcurve"/>
    </contour>
  </outline>
</glyph>
<glyph name="C" format="2">
  <advance width="1344"/>
  <unicode hex="0043"/>
  <anchor x="772" y="0" name="AccentBelow"/>
  <anchor x="672" y="0" name="AccentCedilla"/>
  <anchor x="772" y="1600" name="AccentDefault"/>
  <anchor x="672" y="712" name="AccentMiddle"/>
  <outline>
    <contour>
      <point x="1373" y="1112" type="line"/>
      <point x="1357" y="1149"/>
      <point x="1296" y="1230"/>
      <point x="1205" y="1298"/>
      <point x="1084" y="1342"/>
      <point x="1008" y="1342" type="qcurve"/>
      <point x="939" y="1342"/>
      <point x="793" y="1292"/>
      <point x="655" y="1197"/>
      <point x="532" y="1060"/>
      <point x="440" y="888"/>
      <point x="386" y="684"/>
      <point x="386" y="569" type="qcurve"/>
      <point x="386" y="450"/>
      <point x="454" y="272"/>
      <point x="566" y="152"/>
      <point x="711" y="92"/>
      <point x="788" y="92" type="qcurve"/>
      <point x="864" y="92"/>
      <point x="995" y="137"/>
      <point x="1103" y="205"/>
      <point x="1186" y="286"/>
      <point x="1213" y="322" type="qcurve"/>
      <point x="1330" y="204" type="line"/>
      <point x="1273" y="153"/>
      <point x="1155" y="68"/>
      <point x="1020" y="5"/>
      <point x="862" y="-30"/>
      <point x="766" y="-30" type="qcurve"/>
      <point x="649" y="-30"/>
      <point x="441" y="52"/>
      <point x="285" y="206"/>
      <point x="194" y="427"/>
      <point x="194" y="566" type="qcurve"/>
      <point x="194" y="694"/>
      <point x="257" y="927"/>
      <point x="368" y="1127"/>
      <point x="522" y="1288"/>
      <point x="703" y="1402"/>
      <point x="905" y="1464"/>
      <point x="1010" y="1464" type="qcurve"/>
      <point x="1087" y="1464"/>
      <point x="1225" y="1429"/>
      <point x="1345" y="1366"/>
      <point x="1448" y="1281"/>
      <point x="1490" y="1230" type="qcurve"/>
    </contour>
  </outline>
</glyph>
<glyph name="D" format="2">
  <advance width="1504"/>
  <unicode hex="0044"/>
  <outline>
    <contour>
      <point x="395" y="122" type="line"/>
      <point x="621" y="122" type="line"/>
      <point x="789" y="122"/>
      <point x="1057" y="240"/>
      <point x="1244" y="444"/>
      <point x="1344" y="717"/>
      <point x="1344" y="872" type="qcurve"/>
      <point x="1344" y="986"/>
      <point x="1273" y="1152"/>
      <point x="1139" y="1260"/>
      <point x="946" y="1312"/>
      <point x="824" y="1312" type="qcurve"/>
      <point x="605" y="1312" type="line"/>
    </contour>
    <contour>
      <point x="444" y="1434" type="line"/>
      <point x="871" y="1434" type="line"/>
      <point x="1030" y="1434"/>
      <point x="1278" y="1359"/>
      <point x="1448" y="1216"/>
      <point x="1536" y="1009"/>
      <point x="1536" y="877" type="qcurve"/>
      <point x="1536" y="760"/>
      <point x="1474" y="540"/>
      <point x="1359" y="345"/>
      <point x="1196" y="182"/>
      <point x="994" y="65"/>
      <point x="759" y="0"/>
      <point x="629" y="0" type="qcurve"/>
      <point x="192" y="0" type="line"/>
    </contour>
  </outline>
</glyph>
<glyph name="F" format="2">
  <advance width="1088"/>
  <unicode hex="0046"/>
  <outline>
    <contour>
      <point x="434" y="1434" type="line"/>
      <point x="1213" y="1434" type="line"/>
      <point x="1188" y="1292" type="line"/>
      <point x="595" y="1312" type="line"/>
      <point x="511" y="839" type="line"/>
      <point x="1005" y="839" type="line"/>
      <point x="983" y="717" type="line"/>
      <point x="490" y="717" type="line"/>
      <point x="364" y="0" type="line"/>
      <point x="182" y="0" type="line"/>
    </contour>
  </outline>
</glyph>
<glyph name="G" format="2">
  <advance width="1600"/>
  <unicode hex="0047"/>
  <outline>
    <contour>
      <point x="1012" y="717" type="line"/>
      <point x="1546" y="717" type="line"/>
      <point x="1456" y="206" type="line"/>
      <point x="1328" y="86"/>
      <point x="1024" y="-30"/>
      <point x="857" y="-30" type="qcurve"/>
      <point x="725" y="-30"/>
      <point x="492" y="57"/>
      <point x="316" y="217"/>
      <point x="214" y="443"/>
      <point x="214" y="582" type="qcurve"/>
      <point x="214" y="705"/>
      <point x="281" y="932"/>
      <point x="402" y="1128"/>
      <point x="570" y="1288"/>
      <point x="769" y="1402"/>
      <point x="994" y="1464"/>
      <point x="1112" y="1464" type="qcurve"/>
      <point x="1200" y="1464"/>
      <point x="1362" y="1427"/>
      <point x="1498" y="1364"/>
      <point x="1604" y="1279"/>
      <point x="1636" y="1230" type="qcurve"/>
      <point x="1518" y="1112" type="line"/>
      <point x="1489" y="1159"/>
      <point x="1410" y="1243"/>
      <point x="1306" y="1306"/>
      <point x="1178" y="1342"/>
      <point x="1101" y="1342" type="qcurve"/>
      <point x="1019" y="1342"/>
      <point x="853" y="1289"/>
      <point x="698" y="1192"/>
      <point x="563" y="1056"/>
      <point x="464" y="891"/>
      <point x="406" y="700"/>
      <point x="406" y="596" type="qcurve"/>
      <point x="406" y="488"/>
      <point x="475" y="303"/>
      <point x="600" y="168"/>
      <point x="774" y="92"/>
      <point x="879" y="92" type="qcurve"/>
      <point x="936" y="92"/>
      <point x="1050" y="113"/>
      <point x="1155" y="149"/>
      <point x="1245" y="198"/>
      <point x="1278" y="227" type="qcurve"/>
      <point x="1342" y="595" type="line"/>
      <point x="991" y="595" type="line"/>
    </contour>
  </outline>
</glyph>
<glyph name="H" format="2">
  <advance width="1504"/>
  <unicode hex="0048"/>
  <outline>
    <contour>
      <point x="622" y="1464" type="line"/>
      <point x="511" y="839" type="line"/>
      <point x="1287" y="839" type="line"/>
      <point x="1392" y="1434" type="line"/>
      <point x="1580" y="1464" type="line"/>
      <point x="1322" y="0" type="line"/>
      <point x="1140" y="0" type="line"/>
      <point x="1266" y="717" type="line"/>
      <point x="490" y="717" type="line"/>
      <point x="364" y="0" type="line"/>
      <point x="182" y="0" type="line"/>
      <point x="434" y="1434" type="line"/>
    </contour>
  </outline>
</glyph>
<glyph name="J" format="2">
  <advance width="736"/>
  <unicode hex="004A"/>
  <outline>
    <contour>
      <point x="629" y="1433" type="line"/>
      <point x="817" y="1463" type="line"/>
      <point x="646" y="492" type="line"/>
      <point x="626" y="380"/>
      <point x="559" y="216"/>
      <point x="468" y="100"/>
      <point x="356" y="27"/>
      <point x="229" y="-15"/>
      <point x="90" y="-30"/>
      <point x="16" y="-30" type="qcurve"/>
      <point x="41" y="112" type="line"/>
      <point x="101" y="112"/>
      <point x="232" y="137"/>
      <point x="348" y="210"/>
      <point x="437" y="346"/>
      <point x="457" y="457" type="qcurve"/>
    </contour>
  </outline>
</glyph>
<glyph name="M" format="2">
  <advance width="1824"/>
  <unicode hex="004D"/>
  <outline>
    <contour>
      <point x="591" y="1061" type="line"/>
      <point x="581" y="1061" type="line"/>
      <point x="196" y="-30" type="line"/>
      <point x="82" y="0" type="line"/>
      <point x="587" y="1434" type="line"/>
      <point x="702" y="1464" type="line"/>
      <point x="954" y="314" type="line"/>
      <point x="964" y="314" type="line"/>
      <point x="1612" y="1464" type="line"/>
      <point x="1722" y="1434" type="line"/>
      <point x="1722" y="0" type="line"/>
      <point x="1540" y="0" type="line"/>
      <point x="1540" y="1061" type="line"/>
      <point x="1530" y="1061" type="line"/>
      <point x="894" y="-30" type="line"/>
      <point x="829" y="-30" type="line"/>
    </contour>
  </outline>
</glyph>
<glyph name="N" format="2">
  <advance width="1504"/>
  <unicode hex="004E"/>
  <anchor x="752" y="0" name="AccentBelow"/>
  <anchor x="752" y="1600" name="AccentDefault"/>
  <anchor x="752" y="712" name="AccentMiddle"/>
  <outline>
    <contour>
      <point x="552" y="1464" type="line" name="at01"/>
      <point x="1253" y="306" type="line" name="av01"/>
      <point x="1263" y="306" type="line"/>
      <point x="1467" y="1464" type="line" name="sh01"/>
      <point x="1585" y="1434" type="line" name="sh02"/>
      <point x="1332" y="0" type="line" name="ab01"/>
      <point x="1209" y="0" type="line"/>
      <point x="508" y="1159" type="line" name="av02"/>
      <point x="498" y="1159" type="line"/>
      <point x="294" y="0" type="line" name="sh04"/>
      <point x="172" y="0" type="line" name="sh03"/>
      <point x="424" y="1434" type="line"/>
    </contour>
  </outline>
</glyph>
<glyph name="O" format="2">
  <advance width="1600"/>
  <unicode hex="004F"/>
  <anchor x="800" y="0" name="AccentBelow"/>
  <anchor x="800" y="1600" name="AccentDefault"/>
  <anchor x="800" y="712" name="AccentMiddle"/>
  <outline>
    <contour>
      <point x="1048" y="1464" type="qcurve"/>
      <point x="1165" y="1464"/>
      <point x="1379" y="1381"/>
      <point x="1542" y="1226"/>
      <point x="1639" y="1003"/>
      <point x="1639" y="864" type="qcurve"/>
      <point x="1639" y="736"/>
      <point x="1572" y="504"/>
      <point x="1454" y="305"/>
      <point x="1294" y="144"/>
      <point x="1109" y="31"/>
      <point x="906" y="-30"/>
      <point x="804" y="-30" type="qcurve"/>
      <point x="687" y="-30"/>
      <point x="473" y="53"/>
      <point x="310" y="208"/>
      <point x="213" y="430"/>
      <point x="213" y="570" type="qcurve"/>
      <point x="213" y="695"/>
      <point x="276" y="925"/>
      <point x="389" y="1124"/>
      <point x="545" y="1286"/>
      <point x="731" y="1401"/>
      <point x="939" y="1464"/>
    </contour>
    <contour>
      <point x="1036" y="1342" type="qcurve"/>
      <point x="956" y="1342"/>
      <point x="800" y="1287"/>
      <point x="660" y="1186"/>
      <point x="541" y="1045"/>
      <point x="454" y="872"/>
      <point x="405" y="672"/>
      <point x="405" y="564" type="qcurve"/>
      <point x="405" y="444"/>
      <point x="476" y="266"/>
      <point x="591" y="149"/>
      <point x="739" y="92"/>
      <point x="816" y="92" type="qcurve"/>
      <point x="890" y="92"/>
      <point x="1041" y="143"/>
      <point x="1181" y="239"/>
      <point x="1303" y="377"/>
      <point x="1394" y="549"/>
      <point x="1447" y="755"/>
      <point x="1447" y="870" type="qcurve"/>
      <point x="1447" y="990"/>
      <point x="1376" y="1167"/>
      <point x="1261" y="1284"/>
      <point x="1113" y="1342"/>
    </contour>
  </outline>
</glyph>
<glyph name="R" format="2">
  <advance width="1248"/>
  <unicode hex="0052"/>
  <anchor x="576" y="0" name="AccentBelow"/>
  <anchor x="576" y="1600" name="AccentDefault"/>
  <anchor x="576" y="712" name="AccentMiddle"/>
  <outline>
    <contour>
      <point x="434" y="1434" type="line"/>
      <point x="841" y="1434" type="line"/>
      <point x="1066" y="1434"/>
      <point x="1287" y="1267"/>
      <point x="1287" y="1116" type="qcurve"/>
      <point x="1287" y="1045"/>
      <point x="1241" y="921"/>
      <point x="1163" y="817"/>
      <point x="1061" y="733"/>
      <point x="950" y="673"/>
      <point x="836" y="637"/>
      <point x="785" y="632" type="qcurve"/>
      <point x="784" y="625" type="line"/>
      <point x="1196" y="0" type="line"/>
      <point x="981" y="-30" type="line"/>
      <point x="629" y="595" type="line"/>
      <point x="468" y="595" type="line"/>
      <point x="364" y="0" type="line"/>
      <point x="182" y="0" type="line"/>
    </contour>
    <contour>
      <point x="595" y="1312" type="line"/>
      <point x="490" y="717" type="line"/>
      <point x="689" y="717" type="line"/>
      <point x="768" y="717"/>
      <point x="915" y="774"/>
      <point x="1027" y="875"/>
      <point x="1095" y="1015"/>
      <point x="1095" y="1099" type="qcurve"/>
      <point x="1095" y="1153"/>
      <point x="1059" y="1233"/>
      <point x="991" y="1286"/>
      <point x="896" y="1312"/>
      <point x="838" y="1312" type="qcurve"/>
    </contour>
  </outline>
</glyph>
<glyph name="S" format="2">
  <advance width="1152"/>
  <unicode hex="0053"/>
  <anchor x="576" y="0" name="AccentBelow"/>
  <anchor x="512" y="0" name="AccentCedilla"/>
  <anchor x="576" y="1600" name="AccentDefault"/>
  <anchor x="624" y="712" name="AccentMiddle"/>
  <outline>
    <contour>
      <point x="1120" y="1112" type="line"/>
      <point x="1107" y="1143"/>
      <point x="1053" y="1222"/>
      <point x="974" y="1293"/>
      <point x="872" y="1342"/>
      <point x="811" y="1342" type="qcurve"/>
      <point x="755" y="1342"/>
      <point x="664" y="1305"/>
      <point x="599" y="1241"/>
      <point x="563" y="1156"/>
      <point x="563" y="1107" type="qcurve"/>
      <point x="563" y="1071"/>
      <point x="588" y="1000"/>
      <point x="643" y="933"/>
      <point x="730" y="872"/>
      <point x="792" y="848" type="qcurve"/>
      <point x="959" y="782"/>
      <point x="1120" y="572"/>
      <point x="1120" y="441" type="qcurve"/>
      <point x="1120" y="345"/>
      <point x="1050" y="174"/>
      <point x="920" y="45"/>
      <point x="736" y="-30"/>
      <point x="621" y="-30" type="qcurve"/>
      <point x="529" y="-30"/>
      <point x="382" y="6"/>
      <point x="263" y="69"/>
      <point x="171" y="154"/>
      <point x="135" y="204" type="qcurve"/>
      <point x="253" y="322" type="line"/>
      <point x="275" y="273"/>
      <point x="345" y="189"/>
      <point x="437" y="127"/>
      <point x="549" y="92"/>
      <point x="613" y="92" type="qcurve"/>
      <point x="690" y="92"/>
      <point x="808" y="139"/>
      <point x="887" y="218"/>
      <point x="928" y="322"/>
      <point x="928" y="378" type="qcurve"/>
      <point x="928" y="466"/>
      <point x="800" y="602"/>
      <point x="660" y="657" type="qcurve"/>
      <point x="592" y="684"/>
      <point x="488" y="763"/>
      <point x="417" y="861"/>
      <point x="381" y="977"/>
      <point x="381" y="1041" type="qcurve"/>
      <point x="381" y="1132"/>
      <point x="447" y="1288"/>
      <point x="564" y="1400"/>
      <point x="727" y="1464"/>
      <point x="824" y="1464" type="qcurve"/>
      <point x="907" y="1464"/>
      <point x="1043" y="1412"/>
      <point x="1146" y="1338"/>
      <point x="1218" y="1258"/>
      <point x="1237" y="1230" type="qcurve"/>
    </contour>
  </outline>
</glyph>
<glyph name="T" format="2">
  <advance width="1152"/>
  <unicode hex="0054"/>
  <outline>
    <contour>
      <point x="284" y="1434" type="line"/>
      <point x="1372" y="1434" type="line"/>
      <point x="1347" y="1292" type="line"/>
      <point x="898" y="1312" type="line"/>
      <point x="667" y="0" type="line"/>
      <point x="485" y="0" type="line"/>
      <point x="716" y="1312" type="line"/>
      <point x="259" y="1292" type="line"/>
    </contour>
  </outline>
</glyph>
<glyph name="U" format="2">
  <advance width="1504"/>
  <unicode hex="0055"/>
  <outline>
    <contour>
      <point x="622" y="1464" type="line"/>
      <point x="463" y="562" type="line"/>
      <point x="458" y="535"/>
      <point x="452" y="495"/>
      <point x="448" y="462"/>
      <point x="447" y="434"/>
      <point x="447" y="418" type="qcurve"/>
      <point x="447" y="324"/>
      <point x="504" y="199"/>
      <point x="599" y="124"/>
      <point x="722" y="92"/>
      <point x="788" y="92" type="qcurve"/>
      <point x="870" y="92"/>
      <point x="1032" y="137"/>
      <point x="1170" y="242"/>
      <point x="1272" y="414"/>
      <point x="1295" y="542" type="qcurve"/>
      <point x="1458" y="1464" type="line"/>
      <point x="1575" y="1434" type="line"/>
      <point x="1421" y="562" type="line"/>
      <point x="1394" y="410"/>
      <point x="1273" y="187"/>
      <point x="1098" y="41"/>
      <point x="875" y="-30"/>
      <point x="746" y="-30" type="qcurve"/>
      <point x="635" y="-30"/>
      <point x="457" y="22"/>
      <point x="333" y="129"/>
      <point x="266" y="293"/>
      <point x="266" y="404" type="qcurve"/>
      <point x="266" y="421"/>
      <point x="267" y="454"/>
      <point x="270" y="490"/>
      <point x="276" y="533"/>
      <point x="281" y="562" type="qcurve"/>
      <point x="434" y="1434" type="line"/>
    </contour>
  </outline>
</glyph>
<glyph name="V" format="2">
  <advance width="1248"/>
  <unicode hex="0056"/>
  <outline>
    <contour>
      <point x="706" y="283" type="line"/>
      <point x="716" y="283" type="line"/>
      <point x="1348" y="1464" type="line"/>
      <point x="1462" y="1434" type="line"/>
      <point x="687" y="0" type="line"/>
      <point x="564" y="0" type="line"/>
      <point x="294" y="1434" type="line"/>
      <point x="500" y="1464" type="line"/>
    </contour>
  </outline>
</glyph>
<glyph name="W" format="2">
  <advance width="1888"/>
  <unicode hex="0057"/>
  <guideline x="0" y="348" angle="0"/>
  <guideline x="454" y="0" angle="106"/>
  <guideline x="1522" y="0" angle="108"/>
  <guideline x="1433" y="0" angle="74"/>
  <guideline x="1310" y="0" angle="74"/>
  <guideline x="662" y="0" angle="106"/>
  <guideline x="576" y="0" angle="72"/>
  <guideline x="449" y="0" angle="72"/>
  <guideline x="1311" y="0" angle="108"/>
  <guideline x="983" y="0" angle="90"/>
  <anchor x="984" y="0" name="AccentBelow"/>
  <anchor x="984" y="1600" name="AccentDefault"/>
  <anchor x="984" y="712" name="AccentMiddle"/>
  <outline>
    <contour>
      <point x="1470" y="348" type="line" name="hr00"/>
      <point x="1480" y="348" type="line"/>
      <point x="1984" y="1464" type="line" name="dh03"/>
      <point x="2098" y="1434" type="line" name="dh04"/>
      <point x="1434" y="0" type="line" name="ab01"/>
      <point x="1312" y="0" type="line"/>
      <point x="1153" y="1131" type="line"/>
      <point x="1143" y="1131" type="line"/>
      <point x="576" y="0" type="line" name="ab02"/>
      <point x="454" y="0" type="line"/>
      <point x="294" y="1434" type="line" name="dh01"/>
      <point x="500" y="1464" type="line" name="dh02"/>
      <point x="613" y="348" type="line"/>
      <point x="623" y="348" type="line"/>
      <point x="1182" y="1464" type="line" name="at01"/>
      <point x="1304" y="1464" type="line"/>
    </contour>
  </outline>
</glyph>
<glyph name="X" format="2">
  <advance width="1248"/>
  <unicode hex="0058"/>
  <anchor x="624" y="0" name="AccentBelow"/>
  <anchor x="624" y="1600" name="AccentDefault"/>
  <anchor x="624" y="712" name="AccentMiddle"/>
  <outline>
    <contour>
      <point x="698" y="600" type="line"/>
      <point x="193" y="-30" type="line"/>
      <point x="72" y="0" type="line"/>
      <point x="646" y="717" type="line"/>
      <point x="324" y="1434" type="line"/>
      <point x="530" y="1464" type="line"/>
      <point x="777" y="892" type="line"/>
      <point x="787" y="892" type="line"/>
      <point x="1245" y="1464" type="line"/>
      <point x="1366" y="1434" type="line"/>
      <point x="838" y="775" type="line"/>
      <point x="1186" y="0" type="line"/>
      <point x="980" y="-30" type="line"/>
      <point x="708" y="600" type="line"/>
    </contour>
  </outline>
</glyph>
<glyph name="Y" format="2">
  <advance width="1248"/>
  <unicode hex="0059"/>
  <anchor x="672" y="0" name="AccentBelow"/>
  <anchor x="624" y="1600" name="AccentDefault"/>
  <anchor x="624" y="712" name="AccentMiddle"/>
  <outline>
    <contour>
      <point x="782" y="660" type="line"/>
      <point x="1348" y="1464" type="line"/>
      <point x="1462" y="1434" type="line"/>
      <point x="824" y="532" type="line"/>
      <point x="731" y="0" type="line"/>
      <point x="549" y="0" type="line"/>
      <point x="639" y="514" type="line"/>
      <point x="294" y="1434" type="line"/>
      <point x="500" y="1464" type="line"/>
      <point x="772" y="660" type="line"/>
    </contour>
  </outline>
</glyph>
<glyph name="bracketleft" format="2">
  <advance width="736"/>
  <unicode hex="005B"/>
  <outline>
    <contour>
      <point x="532" y="1464" type="line"/>
      <point x="911" y="1464" type="line"/>
      <point x="893" y="1362" type="line"/>
      <point x="656" y="1362" type="line"/>
      <point x="384" y="-176" type="line"/>
      <point x="622" y="-176" type="line"/>
      <point x="604" y="-278" type="line"/>
      <point x="224" y="-278" type="line"/>
    </contour>
  </outline>
</glyph>
<glyph name="backslash" format="2">
  <advance width="576"/>
  <unicode hex="005C"/>
  <outline>
    <contour>
      <point x="347" y="1586" type="line"/>
      <point x="602" y="-134" type="line"/>
      <point x="481" y="-152" type="line"/>
      <point x="226" y="1569" type="line"/>
    </contour>
  </outline>
</glyph>
<glyph name="bracketright" format="2">
  <advance width="736"/>
  <unicode hex="005D"/>
  <outline>
    <contour>
      <point x="339" y="1464" type="line"/>
      <point x="720" y="1464" type="line"/>
      <point x="412" y="-278" type="line"/>
      <point x="32" y="-278" type="line"/>
      <point x="50" y="-176" type="line"/>
      <point x="288" y="-176" type="line"/>
      <point x="560" y="1362" type="line"/>
      <point x="321" y="1362" type="line"/>
    </contour>
  </outline>
</glyph>
<glyph name="asciicircum" format="2">
  <advance width="1248"/>
  <unicode hex="005E"/>
  <outline>
    <contour>
      <point x="795" y="1434" type="line"/>
      <point x="957" y="1434" type="line"/>
      <point x="1289" y="607" type="line"/>
      <point x="1147" y="583" type="line"/>
      <point x="863" y="1301" type="line"/>
      <point x="843" y="1301" type="line"/>
      <point x="305" y="583" type="line"/>
      <point x="173" y="607" type="line"/>
    </contour>
  </outline>
</glyph>
<glyph name="grave" format="2">
  <advance width="768"/>
  <unicode hex="0060"/>
  <outline>
    <contour>
      <point x="684" y="1116" type="line"/>
      <point x="318" y="1404" type="line"/>
      <point x="318" y="1434" type="line"/>
      <point x="400" y="1521" type="line"/>
      <point x="430" y="1521" type="line"/>
      <point x="741" y="1176" type="line"/>
    </contour>
  </outline>
</glyph>
<glyph name="a" format="2">
  <advance width="1120"/>
  <unicode hex="0061"/>
  <outline>
    <contour>
      <point x="302" y="849" type="line"/>
      <point x="398" y="925"/>
      <point x="612" y="1004"/>
      <point x="742" y="1004" type="qcurve"/>
      <point x="808" y="1004"/>
      <point x="932" y="969"/>
      <point x="1026" y="894"/>
      <point x="1083" y="775"/>
      <point x="1083" y="690" type="qcurve"/>
      <point x="1083" y="668"/>
      <point x="1080" y="622"/>
      <point x="1075" y="597" type="qcurve"/>
      <point x="1000" y="174" type="line"/>
      <point x="997" y="154"/>
      <point x="997" y="139" type="qcurve"/>
      <point x="997" y="72"/>
      <point x="1060" y="72" type="qcurve"/>
      <point x="1042" y="-30" type="line"/>
      <point x="948" y="-30"/>
      <point x="848" y="49"/>
      <point x="843" y="142" type="qcurve"/>
      <point x="833" y="142" type="line"/>
      <point x="804" y="115"/>
      <point x="717" y="55"/>
      <point x="611" y="4"/>
      <point x="490" y="-30"/>
      <point x="429" y="-30" type="qcurve"/>
      <point x="372" y="-30"/>
      <point x="273" y="4"/>
      <point x="200" y="65"/>
      <point x="159" y="149"/>
      <point x="159" y="199" type="qcurve"/>
      <point x="159" y="303"/>
      <point x="272" y="451"/>
      <point x="473" y="545"/>
      <point x="749" y="589"/>
      <point x="911" y="589" type="qcurve"/>
      <point x="920" y="637" type="line"/>
      <point x="927" y="675"/>
      <point x="927" y="707" type="qcurve"/>
      <point x="927" y="765"/>
      <point x="889" y="840"/>
      <point x="831" y="884"/>
      <point x="758" y="902"/>
      <point x="724" y="902" type="qcurve"/>
      <point x="676" y="902"/>
      <point x="590" y="879"/>
      <point x="512" y="838"/>
      <point x="439" y="781"/>
      <point x="404" y="747" type="qcurve"/>
    </contour>
    <contour>
      <point x="897" y="507" type="line"/>
      <point x="842" y="507"/>
      <point x="715" y="500"/>
      <point x="588" y="479"/>
      <point x="470" y="440"/>
      <point x="379" y="375"/>
      <point x="324" y="282"/>
      <point x="324" y="217" type="qcurve"/>
      <point x="324" y="153"/>
      <point x="406" y="72"/>
      <point x="484" y="72" type="qcurve"/>
      <point x="535" y="72"/>
      <point x="637" y="104"/>
      <point x="732" y="157"/>
      <point x="818" y="226"/>
      <point x="854" y="263" type="qcurve"/>
    </contour>
  </outline>
</glyph>
<glyph name="c" format="2">
  <advance width="1024"/>
  <unicode hex="0063"/>
  <outline>
    <contour>
      <point x="989" y="747" type="line"/>
      <point x="980" y="768"/>
      <point x="937" y="822"/>
      <point x="873" y="869"/>
      <point x="789" y="902"/>
      <point x="739" y="902" type="qcurve"/>
      <point x="651" y="902"/>
      <point x="501" y="813"/>
      <point x="392" y="667"/>
      <point x="330" y="483"/>
      <point x="330" y="387" type="qcurve"/>
      <point x="330" y="319"/>
      <point x="366" y="203"/>
      <point x="434" y="119"/>
      <point x="531" y="72"/>
      <point x="592" y="72" type="qcurve"/>
      <point x="643" y="72"/>
      <point x="733" y="105"/>
      <point x="807" y="152"/>
      <point x="863" y="206"/>
      <point x="880" y="227" type="qcurve"/>
      <point x="982" y="125" type="line"/>
      <point x="950" y="96"/>
      <point x="869" y="41"/>
      <point x="767" y="-3"/>
      <point x="646" y="-30"/>
      <point x="574" y="-30" type="qcurve"/>
      <point x="479" y="-30"/>
      <point x="326" y="31"/>
      <point x="217" y="142"/>
      <point x="158" y="294"/>
      <point x="158" y="386" type="qcurve"/>
      <point x="158" y="470"/>
      <point x="200" y="627"/>
      <point x="276" y="765"/>
      <point x="382" y="878"/>
      <point x="511" y="959"/>
      <point x="658" y="1004"/>
      <point x="737" y="1004" type="qcurve"/>
      <point x="801" y="1004"/>
      <point x="912" y="976"/>
      <point x="1003" y="932"/>
      <point x="1070" y="877"/>
      <point x="1091" y="849" type="qcurve"/>
    </contour>
  </outline>
</glyph>
<glyph name="d" format="2">
  <advance width="1120"/>
  <unicode hex="0064"/>
  <guideline x="526" y="0" angle="90"/>
  <guideline x="978" y="0" angle="80"/>
  <anchor x="560" y="0" name="AccentBelow"/>
  <anchor x="512" y="0" name="AccentCedilla"/>
  <anchor x="480" y="1600" name="AccentDefault"/>
  <anchor x="760" y="1200" name="AccentMiddle"/>
  <outline>
    <contour>
      <point x="1076" y="1464" type="line" name="sh01"/>
      <point x="1213" y="1494" type="line"/>
      <point x="1243" y="1494" type="line" name="sh02"/>
      <point x="1011" y="179" type="line" name="dh01"/>
      <point x="1009" y="167"/>
      <point x="1007" y="147"/>
      <point x="1007" y="138" type="qcurve"/>
      <point x="1007" y="105"/>
      <point x="1037" y="72"/>
      <point x="1070" y="72" type="qcurve" name="sv01"/>
      <point x="1052" y="-30" type="line" name="ab01"/>
      <point x="949" y="-30"/>
      <point x="853" y="60"/>
      <point x="853" y="142" type="qcurve"/>
      <point x="843" y="142" type="line"/>
      <point x="818" y="114"/>
      <point x="753" y="54"/>
      <point x="671" y="3"/>
      <point x="570" y="-30"/>
      <point x="509" y="-30" type="qcurve" name="ab02"/>
      <point x="437" y="-30"/>
      <point x="309" y="23"/>
      <point x="213" y="124"/>
      <point x="157" y="271"/>
      <point x="157" y="366" type="qcurve" name="sh03"/>
      <point x="157" y="446"/>
      <point x="198" y="603"/>
      <point x="271" y="745"/>
      <point x="372" y="866"/>
      <point x="493" y="954"/>
      <point x="629" y="1004"/>
      <point x="701" y="1004" type="qcurve" name="at01"/>
      <point x="744" y="1004"/>
      <point x="823" y="986"/>
      <point x="892" y="957"/>
      <point x="947" y="921"/>
      <point x="967" y="902" type="qcurve" name="sv02"/>
      <point x="977" y="902" type="line"/>
    </contour>
    <contour>
      <point x="956" y="785" type="line"/>
      <point x="941" y="806"/>
      <point x="896" y="848"/>
      <point x="836" y="881"/>
      <point x="760" y="902"/>
      <point x="714" y="902" type="qcurve" name="sv03"/>
      <point x="661" y="902"/>
      <point x="563" y="860"/>
      <point x="477" y="787"/>
      <point x="407" y="685"/>
      <point x="357" y="566"/>
      <point x="329" y="432"/>
      <point x="329" y="363" type="qcurve" name="sh04"/>
      <point x="329" y="285"/>
      <point x="367" y="174"/>
      <point x="431" y="104"/>
      <point x="513" y="72"/>
      <point x="557" y="72" type="qcurve" name="sv04"/>
      <point x="604" y="72"/>
      <point x="691" y="105"/>
      <point x="769" y="158"/>
      <point x="837" y="227"/>
      <point x="864" y="263" type="qcurve" name="dh02"/>
    </contour>
  </outline>
</glyph>
<glyph name="f" format="2">
  <advance width="736"/>
  <unicode hex="0066"/>
  <guideline x="0" y="915" angle="357"/>
  <guideline x="650" y="0" angle="80"/>
  <guideline x="81" y="0" angle="80"/>
  <anchor x="400" y="0" name="AccentBelow"/>
  <anchor x="432" y="1600" name="AccentDefault"/>
  <anchor x="400" y="486" name="AccentMiddle"/>
  <outline>
    <contour>
      <point x="259" y="1004" type="line" name="at02"/>
      <point x="428" y="1004" type="line" name="sh01"/>
      <point x="447" y="1135"/>
      <point x="541" y="1321"/>
      <point x="682" y="1439"/>
      <point x="868" y="1494"/>
      <point x="981" y="1494" type="qcurve" name="ah01"/>
      <point x="963" y="1392" type="line" name="dv01"/>
      <point x="894" y="1392"/>
      <point x="774" y="1356"/>
      <point x="680" y="1278"/>
      <point x="614" y="1154"/>
      <point x="590" y="1004" type="qcurve" name="sh02"/>
      <point x="827" y="1004" type="line" name="at01"/>
      <point x="804" y="872" type="line"/>
      <point x="569" y="886" type="line" name="sv01"/>
      <point x="413" y="0" type="line" name="dh02"/>
      <point x="251" y="0" type="line" name="dh01"/>
      <point x="408" y="893" type="line" name="sv02"/>
      <point x="241" y="902" type="line"/>
    </contour>
  </outline>
</glyph>
<glyph name="g" format="2">
  <advance width="1120"/>
  <unicode hex="0067"/>
  <outline>
    <contour>
      <point x="987" y="974" type="line"/>
      <point x="1125" y="1004" type="line"/>
      <point x="1155" y="1004" type="line"/>
      <point x="978" y="0" type="line"/>
      <point x="952" y="-146"/>
      <point x="843" y="-335"/>
      <point x="696" y="-446"/>
      <point x="521" y="-490"/>
      <point x="430" y="-490" type="qcurve"/>
      <point x="374" y="-490"/>
      <point x="267" y="-471"/>
      <point x="172" y="-432"/>
      <point x="91" y="-374"/>
      <point x="61" y="-335" type="qcurve"/>
      <point x="161" y="-233" type="line"/>
      <point x="209" y="-305"/>
      <point x="356" y="-388"/>
      <point x="448" y="-388" type="qcurve"/>
      <point x="506" y="-388"/>
      <point x="621" y="-350"/>
      <point x="718" y="-266"/>
      <point x="791" y="-134"/>
      <point x="808" y="-40" type="qcurve"/>
      <point x="841" y="142" type="line"/>
      <point x="831" y="142" type="line"/>
      <point x="822" y="127"/>
      <point x="768" y="79"/>
      <point x="687" y="33"/>
      <point x="583" y="0"/>
      <point x="523" y="0" type="qcurve"/>
      <point x="452" y="0"/>
      <point x="323" y="55"/>
      <point x="226" y="157"/>
      <point x="169" y="300"/>
      <point x="169" y="389" type="qcurve"/>
      <point x="169" y="471"/>
      <point x="212" y="621"/>
      <point x="288" y="751"/>
      <point x="390" y="857"/>
      <point x="506" y="933"/>
      <point x="633" y="974"/>
      <point x="695" y="974" type="qcurve"/>
      <point x="731" y="974"/>
      <point x="804" y="961"/>
      <point x="872" y="933"/>
      <point x="933" y="886"/>
      <point x="956" y="852" type="qcurve"/>
      <point x="966" y="852" type="line"/>
    </contour>
    <contour>
      <point x="947" y="743" type="line"/>
      <point x="908" y="813"/>
      <point x="785" y="872"/>
      <point x="707" y="872" type="qcurve"/>
      <point x="632" y="872"/>
      <point x="499" y="789"/>
      <point x="399" y="652"/>
      <point x="341" y="474"/>
      <point x="341" y="379" type="qcurve"/>
      <point x="341" y="306"/>
      <point x="379" y="201"/>
      <point x="442" y="134"/>
      <point x="525" y="102"/>
      <point x="570" y="102" type="qcurve"/>
      <point x="622" y="102"/>
      <point x="714" y="132"/>
      <point x="789" y="177"/>
      <point x="844" y="230"/>
      <point x="860" y="254" type="qcurve"/>
    </contour>
  </outline>
</glyph>
<glyph name="i" format="2">
  <advance width="576"/>
  <unicode hex="0069"/>
  <outline>
    <contour>
      <point x="378" y="974" type="line"/>
      <point x="516" y="1004" type="line"/>
      <point x="546" y="1004" type="line"/>
      <point x="369" y="0" type="line"/>
      <point x="207" y="0" type="line"/>
    </contour>
    <contour>
      <point x="415" y="1272" type="qcurve"/>
      <point x="415" y="1312"/>
      <point x="471" y="1368"/>
      <point x="511" y="1368" type="qcurve"/>
      <point x="551" y="1368"/>
      <point x="607" y="1312"/>
      <point x="607" y="1272" type="qcurve"/>
      <point x="607" y="1232"/>
      <point x="551" y="1176"/>
      <point x="511" y="1176" type="qcurve"/>
      <point x="471" y="1176"/>
      <point x="415" y="1232"/>
    </contour>
  </outline>
</glyph>
<glyph name="j" format="2">
  <advance width="576"/>
  <unicode hex="006A"/>
  <outline>
    <contour>
      <point x="378" y="974" type="line"/>
      <point x="516" y="1004" type="line"/>
      <point x="546" y="1004" type="line"/>
      <point x="355" y="-77" type="line"/>
      <point x="334" y="-196"/>
      <point x="257" y="-354"/>
      <point x="149" y="-450"/>
      <point x="10" y="-490"/>
      <point x="-72" y="-490" type="qcurve"/>
      <point x="-54" y="-388" type="line"/>
      <point x="48" y="-388"/>
      <point x="159" y="-270"/>
      <point x="180" y="-152" type="qcurve"/>
    </contour>
    <contour>
      <point x="415" y="1272" type="qcurve"/>
      <point x="415" y="1312"/>
      <point x="471" y="1368"/>
      <point x="511" y="1368" type="qcurve"/>
      <point x="551" y="1368"/>
      <point x="607" y="1312"/>
      <point x="607" y="1272" type="qcurve"/>
      <point x="607" y="1232"/>
      <point x="551" y="1176"/>
      <point x="511" y="1176" type="qcurve"/>
      <point x="471" y="1176"/>
      <point x="415" y="1232"/>
    </contour>
  </outline>
</glyph>
<glyph name="k" format="2">
  <advance width="1024"/>
  <unicode hex="006B"/>
  <anchor x="560" y="0" name="AccentBelow"/>
  <anchor x="532" y="1600" name="AccentDefault"/>
  <anchor x="288" y="1200" name="AccentMiddle"/>
  <outline>
    <contour>
      <point x="1009" y="0" type="line"/>
      <point x="819" y="-30" type="line"/>
      <point x="494" y="477" type="line"/>
      <point x="484" y="477" type="line"/>
      <point x="382" y="390" type="line"/>
      <point x="314" y="0" type="line"/>
      <point x="152" y="0" type="line"/>
      <point x="410" y="1464" type="line"/>
      <point x="547" y="1494" type="line"/>
      <point x="577" y="1494" type="line"/>
      <point x="410" y="546" type="line"/>
      <point x="420" y="546" type="line"/>
      <point x="949" y="1004" type="line"/>
      <point x="1070" y="974" type="line"/>
      <point x="594" y="571" type="line"/>
    </contour>
  </outline>
</glyph>
<glyph name="l" format="2">
  <advance width="576"/>
  <unicode hex="006C"/>
  <guideline x="446" y="0" angle="80"/>
  <anchor x="336" y="0" name="AccentBelow"/>
  <anchor x="288" y="1600" name="AccentDefault"/>
  <anchor x="288" y="760" name="AccentMiddle"/>
  <outline>
    <contour>
      <point x="465" y="1464" type="line" name="sh02"/>
      <point x="602" y="1494" type="line"/>
      <point x="632" y="1494" type="line" name="sh04"/>
      <point x="421" y="300" type="line" name="sh03"/>
      <point x="417" y="279"/>
      <point x="412" y="225"/>
      <point x="412" y="209" type="qcurve"/>
      <point x="412" y="191"/>
      <point x="424" y="144"/>
      <point x="452" y="102"/>
      <point x="501" y="72"/>
      <point x="544" y="72" type="qcurve" name="sh05"/>
      <point x="526" y="-30" type="line" name="ab01"/>
      <point x="439" y="-30"/>
      <point x="334" y="14"/>
      <point x="274" y="82"/>
      <point x="251" y="165"/>
      <point x="251" y="204" type="qcurve"/>
      <point x="251" y="226"/>
      <point x="256" y="285"/>
      <point x="260" y="307" type="qcurve" name="sh01"/>
    </contour>
  </outline>
</glyph>
<glyph name="m" format="2">
  <advance width="1664"/>
  <unicode hex="006D"/>
  <outline>
    <contour>
      <point x="308" y="944" type="line"/>
      <point x="445" y="974" type="line"/>
      <point x="475" y="974" type="line"/>
      <point x="451" y="838" type="line"/>
      <point x="462" y="838" type="line"/>
      <point x="503" y="882"/>
      <point x="581" y="945"/>
      <point x="662" y="985"/>
      <point x="748" y="1004"/>
      <point x="797" y="1004" type="qcurve"/>
      <point x="850" y="1004"/>
      <point x="932" y="977"/>
      <point x="992" y="930"/>
      <point x="1031" y="865"/>
      <point x="1040" y="828" type="qcurve"/>
      <point x="1050" y="828" type="line"/>
      <point x="1092" y="872"/>
      <point x="1173" y="938"/>
      <point x="1256" y="982"/>
      <point x="1345" y="1004"/>
      <point x="1396" y="1004" type="qcurve"/>
      <point x="1443" y="1004"/>
      <point x="1535" y="976"/>
      <point x="1608" y="918"/>
      <point x="1653" y="831"/>
      <point x="1653" y="772" type="qcurve"/>
      <point x="1653" y="758"/>
      <point x="1651" y="731"/>
      <point x="1648" y="716" type="qcurve"/>
      <point x="1556" y="197" type="line"/>
      <point x="1550" y="165"/>
      <point x="1550" y="141" type="qcurve"/>
      <point x="1550" y="105"/>
      <point x="1580" y="72"/>
      <point x="1612" y="72" type="qcurve"/>
      <point x="1594" y="-30" type="line"/>
      <point x="1392" y="-30"/>
      <point x="1392" y="148" type="qcurve"/>
      <point x="1392" y="166"/>
      <point x="1396" y="205"/>
      <point x="1400" y="227" type="qcurve"/>
      <point x="1482" y="696" type="line"/>
      <point x="1484" y="710"/>
      <point x="1487" y="735"/>
      <point x="1487" y="747" type="qcurve"/>
      <point x="1487" y="820"/>
      <point x="1413" y="902"/>
      <point x="1350" y="902" type="qcurve"/>
      <point x="1306" y="902"/>
      <point x="1225" y="872"/>
      <point x="1149" y="817"/>
      <point x="1074" y="742"/>
      <point x="1035" y="697" type="qcurve"/>
      <point x="913" y="0" type="line"/>
      <point x="751" y="0" type="line"/>
      <point x="877" y="716" type="line"/>
      <point x="880" y="732"/>
      <point x="880" y="750" type="qcurve"/>
      <point x="880" y="779"/>
      <point x="863" y="834"/>
      <point x="829" y="876"/>
      <point x="780" y="902"/>
      <point x="749" y="902" type="qcurve"/>
      <point x="701" y="902"/>
      <point x="618" y="872"/>
      <point x="540" y="817"/>
      <point x="465" y="741"/>
      <point x="426" y="696" type="qcurve"/>
      <point x="304" y="0" type="line"/>
      <point x="142" y="0" type="line"/>
    </contour>
  </outline>
</glyph>
<glyph name="n" format="2">
  <advance width="1120"/>
  <unicode hex="006E"/>
  <outline>
    <contour>
      <point x="485" y="974" type="line"/>
      <point x="461" y="837" type="line"/>
      <point x="471" y="837" type="line"/>
      <point x="559" y="925"/>
      <point x="728" y="1004"/>
      <point x="819" y="1004" type="qcurve"/>
      <point x="883" y="1004"/>
      <point x="988" y="972"/>
      <point x="1061" y="912"/>
      <point x="1101" y="825"/>
      <point x="1101" y="769" type="qcurve"/>
      <point x="1101" y="755"/>
      <point x="1097" y="723"/>
      <point x="1094" y="707" type="qcurve"/>
      <point x="1004" y="197" type="line"/>
      <point x="998" y="165"/>
      <point x="998" y="141" type="qcurve"/>
      <point x="998" y="105"/>
      <point x="1028" y="72"/>
      <point x="1060" y="72" type="qcurve"/>
      <point x="1042" y="-30" type="line"/>
      <point x="935" y="-30"/>
      <point x="840" y="65"/>
      <point x="840" y="146" type="qcurve"/>
      <point x="840" y="166"/>
      <point x="844" y="206"/>
      <point x="848" y="227" type="qcurve"/>
      <point x="929" y="687" type="line"/>
      <point x="935" y="718"/>
      <point x="935" y="747" type="qcurve"/>
      <point x="935" y="822"/>
      <point x="856" y="902"/>
      <point x="778" y="902" type="qcurve"/>
      <point x="684" y="902"/>
      <point x="518" y="797"/>
      <point x="436" y="697" type="qcurve"/>
      <point x="314" y="0" type="line"/>
      <point x="152" y="0" type="line"/>
      <point x="318" y="944" type="line"/>
      <point x="455" y="974" type="line"/>
    </contour>
  </outline>
</glyph>
<glyph name="o" format="2">
  <advance width="1120"/>
  <unicode hex="006F"/>
  <outline>
    <contour>
      <point x="737" y="1004" type="qcurve"/>
      <point x="830" y="1004"/>
      <point x="980" y="944"/>
      <point x="1086" y="836"/>
      <point x="1143" y="686"/>
      <point x="1143" y="596" type="qcurve"/>
      <point x="1143" y="469"/>
      <point x="1050" y="242"/>
      <point x="889" y="71"/>
      <point x="675" y="-30"/>
      <point x="554" y="-30" type="qcurve"/>
      <point x="460" y="-30"/>
      <point x="309" y="30"/>
      <point x="204" y="139"/>
      <point x="148" y="290"/>
      <point x="148" y="381" type="qcurve"/>
      <point x="148" y="507"/>
      <point x="242" y="734"/>
      <point x="403" y="904"/>
      <point x="617" y="1004"/>
    </contour>
    <contour>
      <point x="719" y="902" type="qcurve"/>
      <point x="634" y="902"/>
      <point x="488" y="811"/>
      <point x="381" y="663"/>
      <point x="320" y="477"/>
      <point x="320" y="381" type="qcurve"/>
      <point x="320" y="314"/>
      <point x="354" y="201"/>
      <point x="418" y="118"/>
      <point x="512" y="72"/>
      <point x="572" y="72" type="qcurve"/>
      <point x="628" y="72"/>
      <point x="730" y="113"/>
      <point x="819" y="185"/>
      <point x="891" y="284"/>
      <point x="943" y="398"/>
      <point x="971" y="524"/>
      <point x="971" y="588" type="qcurve"/>
      <point x="971" y="655"/>
      <point x="937" y="770"/>
      <point x="872" y="854"/>
      <point x="779" y="902"/>
    </contour>
  </outline>
</glyph>
<glyph name="p" format="2">
  <advance width="1120"/>
  <unicode hex="0070"/>
  <outline>
    <contour>
      <point x="475" y="974" type="line"/>
      <point x="463" y="902" type="line"/>
      <point x="473" y="902" type="line"/>
      <point x="498" y="921"/>
      <point x="564" y="958"/>
      <point x="641" y="986"/>
      <point x="724" y="1004"/>
      <point x="768" y="1004" type="qcurve"/>
      <point x="849" y="1004"/>
      <point x="983" y="946"/>
      <point x="1080" y="840"/>
      <point x="1134" y="691"/>
      <point x="1134" y="600" type="qcurve"/>
      <point x="1134" y="455"/>
      <point x="1033" y="222"/>
      <point x="869" y="58"/>
      <point x="661" y="-30"/>
      <point x="554" y="-30" type="qcurve"/>
      <point x="518" y="-30"/>
      <point x="446" y="-13"/>
      <point x="382" y="16"/>
      <point x="331" y="52"/>
      <point x="316" y="72" type="qcurve"/>
      <point x="222" y="-460" type="line"/>
      <point x="85" y="-490" type="line"/>
      <point x="55" y="-490" type="line"/>
      <point x="308" y="944" type="line"/>
      <point x="445" y="974" type="line"/>
    </contour>
    <contour>
      <point x="337" y="190" type="line"/>
      <point x="376" y="139"/>
      <point x="490" y="72"/>
      <point x="562" y="72" type="qcurve"/>
      <point x="602" y="72"/>
      <point x="692" y="104"/>
      <point x="781" y="165"/>
      <point x="862" y="254"/>
      <point x="925" y="371"/>
      <point x="962" y="513"/>
      <point x="962" y="596" type="qcurve"/>
      <point x="962" y="669"/>
      <point x="924" y="783"/>
      <point x="858" y="861"/>
      <point x="769" y="902"/>
      <point x="719" y="902" type="qcurve"/>
      <point x="672" y="902"/>
      <point x="591" y="881"/>
      <point x="522" y="848"/>
      <point x="465" y="806"/>
      <point x="442" y="785" type="qcurve"/>
    </contour>
  </outline>
</glyph>
<glyph name="q" format="2">
  <advance width="1120"/>
  <unicode hex="0071"/>
  <outline>
    <contour>
      <point x="958" y="784" type="line"/>
      <point x="926" y="835"/>
      <point x="799" y="902"/>
      <point x="711" y="902" type="qcurve"/>
      <point x="651" y="902"/>
      <point x="516" y="833"/>
      <point x="401" y="701"/>
      <point x="325" y="507"/>
      <point x="325" y="382" type="qcurve"/>
      <point x="325" y="308"/>
      <point x="365" y="192"/>
      <point x="433" y="113"/>
      <point x="523" y="72"/>
      <point x="574" y="72" type="qcurve"/>
      <point x="620" y="72"/>
      <point x="702" y="93"/>
      <point x="772" y="127"/>
      <point x="830" y="168"/>
      <point x="853" y="189" type="qcurve"/>
    </contour>
    <contour>
      <point x="901" y="-460" type="line"/>
      <point x="764" y="-490" type="line"/>
      <point x="734" y="-490" type="line"/>
      <point x="832" y="72" type="line"/>
      <point x="822" y="72" type="line"/>
      <point x="796" y="52"/>
      <point x="730" y="16"/>
      <point x="653" y="-13"/>
      <point x="568" y="-30"/>
      <point x="525" y="-30" type="qcurve"/>
      <point x="444" y="-30"/>
      <point x="308" y="29"/>
      <point x="209" y="136"/>
      <point x="153" y="286"/>
      <point x="153" y="378" type="qcurve"/>
      <point x="153" y="475"/>
      <point x="198" y="643"/>
      <point x="277" y="782"/>
      <point x="384" y="890"/>
      <point x="510" y="965"/>
      <point x="649" y="1004"/>
      <point x="719" y="1004" type="qcurve"/>
      <point x="828" y="1004"/>
      <point x="1030" y="900"/>
      <point x="1120" y="784" type="qcurve"/>
    </contour>
  </outline>
</glyph>
<glyph name="r" format="2">
  <advance width="736"/>
  <unicode hex="0072"/>
  <anchor x="336" y="0" name="AccentBelow"/>
  <anchor x="432" y="1100" name="AccentDefault"/>
  <anchor x="288" y="486" name="AccentMiddle"/>
  <outline>
    <contour>
      <point x="485" y="974" type="line"/>
      <point x="456" y="808" type="line"/>
      <point x="466" y="808" type="line"/>
      <point x="529" y="905"/>
      <point x="661" y="1004"/>
      <point x="743" y="1004" type="qcurve"/>
      <point x="765" y="1004"/>
      <point x="806" y="992"/>
      <point x="841" y="974"/>
      <point x="865" y="953"/>
      <point x="870" y="944" type="qcurve"/>
      <point x="842" y="786" type="line"/>
      <point x="827" y="806"/>
      <point x="746" y="842"/>
      <point x="688" y="842" type="qcurve"/>
      <point x="628" y="842"/>
      <point x="532" y="783"/>
      <point x="463" y="699"/>
      <point x="421" y="607"/>
      <point x="415" y="574" type="qcurve"/>
      <point x="314" y="0" type="line"/>
      <point x="152" y="0" type="line"/>
      <point x="318" y="944" type="line"/>
      <point x="455" y="974" type="line"/>
    </contour>
  </outline>
</glyph>
<glyph name="s" format="2">
  <advance width="864"/>
  <unicode hex="0073"/>
  <outline>
    <contour>
      <point x="217" y="227" type="line"/>
      <point x="235" y="197"/>
      <point x="287" y="141"/>
      <point x="350" y="98"/>
      <point x="423" y="72"/>
      <point x="463" y="72" type="qcurve"/>
      <point x="501" y="72"/>
      <point x="573" y="93"/>
      <point x="630" y="135"/>
      <point x="664" y="201"/>
      <point x="664" y="246" type="qcurve"/>
      <point x="664" y="274"/>
      <point x="647" y="323"/>
      <point x="604" y="369"/>
      <point x="529" y="413"/>
      <point x="471" y="436" type="qcurve"/>
      <point x="435" y="450"/>
      <point x="363" y="499"/>
      <point x="307" y="566"/>
      <point x="272" y="652"/>
      <point x="272" y="703" type="qcurve"/>
      <point x="272" y="772"/>
      <point x="320" y="883"/>
      <point x="408" y="961"/>
      <point x="531" y="1004"/>
      <point x="606" y="1004" type="qcurve"/>
      <point x="654" y="1004"/>
      <point x="741" y="980"/>
      <point x="817" y="938"/>
      <point x="878" y="882"/>
      <point x="900" y="849" type="qcurve"/>
      <point x="799" y="747" type="line"/>
      <point x="785" y="778"/>
      <point x="744" y="834"/>
      <point x="690" y="877"/>
      <point x="626" y="902"/>
      <point x="589" y="902" type="qcurve"/>
      <point x="558" y="902"/>
      <point x="502" y="879"/>
      <point x="459" y="837"/>
      <point x="434" y="779"/>
      <point x="434" y="743" type="qcurve"/>
      <point x="434" y="683"/>
      <point x="503" y="605"/>
      <point x="579" y="576" type="qcurve"/>
      <point x="706" y="528"/>
      <point x="826" y="383"/>
      <point x="826" y="287" type="qcurve"/>
      <point x="826" y="210"/>
      <point x="770" y="92"/>
      <point x="669" y="12"/>
      <point x="529" y="-30"/>
      <point x="444" y="-30" type="qcurve"/>
      <point x="399" y="-30"/>
      <point x="306" y="-11"/>
      <point x="219" y="28"/>
      <point x="143" y="86"/>
      <point x="114" y="125" type="qcurve"/>
    </contour>
  </outline>
</glyph>
<glyph name="t" format="2">
  <advance width="736"/>
  <unicode hex="0074"/>
  <outline>
    <contour>
      <point x="646" y="1322" type="line"/>
      <point x="590" y="1004" type="line"/>
      <point x="805" y="1004" type="line"/>
      <point x="782" y="872" type="line"/>
      <point x="569" y="885" type="line"/>
      <point x="465" y="297" type="line"/>
      <point x="456" y="249"/>
      <point x="456" y="211" type="qcurve"/>
      <point x="456" y="176"/>
      <point x="475" y="123"/>
      <point x="518" y="89"/>
      <point x="589" y="72"/>
      <point x="641" y="72" type="qcurve"/>
      <point x="623" y="-30" type="line"/>
      <point x="546" y="-30"/>
      <point x="424" y="-15"/>
      <point x="339" y="32"/>
      <point x="294" y="119"/>
      <point x="294" y="191" type="qcurve"/>
      <point x="294" y="244"/>
      <point x="308" y="326" type="qcurve"/>
      <point x="408" y="893" type="line"/>
      <point x="241" y="902" type="line"/>
      <point x="259" y="1004" type="line"/>
      <point x="428" y="1004" type="line"/>
      <point x="478" y="1292" type="line"/>
      <point x="616" y="1322" type="line"/>
    </contour>
  </outline>
</glyph>
<glyph name="u" format="2">
  <advance width="1120"/>
  <unicode hex="0075"/>
  <anchor x="560" y="0" name="AccentBelow"/>
  <anchor x="560" y="1100" name="AccentDefault"/>
  <anchor x="560" y="486" name="AccentMiddle"/>
  <anchor x="650" y="0" name="AccentOgonek"/>
  <outline>
    <contour>
      <point x="491" y="1004" type="line"/>
      <point x="367" y="305" type="line"/>
      <point x="361" y="269"/>
      <point x="361" y="239" type="qcurve"/>
      <point x="361" y="193"/>
      <point x="388" y="129"/>
      <point x="433" y="90"/>
      <point x="492" y="72"/>
      <point x="524" y="72" type="qcurve"/>
      <point x="579" y="72"/>
      <point x="675" y="107"/>
      <point x="758" y="163"/>
      <point x="826" y="230"/>
      <point x="854" y="263" type="qcurve"/>
      <point x="979" y="974" type="line"/>
      <point x="1117" y="1004" type="line"/>
      <point x="1147" y="1004" type="line"/>
      <point x="1003" y="189" type="line"/>
      <point x="1000" y="174"/>
      <point x="998" y="149"/>
      <point x="998" y="138" type="qcurve"/>
      <point x="998" y="101"/>
      <point x="1029" y="72"/>
      <point x="1060" y="72" type="qcurve"/>
      <point x="1042" y="-30" type="line"/>
      <point x="970" y="-30"/>
      <point x="901" y="2"/>
      <point x="861" y="52"/>
      <point x="845" y="113"/>
      <point x="843" y="142" type="qcurve"/>
      <point x="833" y="142" type="line"/>
      <point x="811" y="116"/>
      <point x="741" y="56"/>
      <point x="648" y="4"/>
      <point x="536" y="-30"/>
      <point x="473" y="-30" type="qcurve"/>
      <point x="418" y="-30"/>
      <point x="317" y="-3"/>
      <point x="240" y="55"/>
      <point x="194" y="146"/>
      <point x="194" y="210" type="qcurve"/>
      <point x="194" y="227"/>
      <point x="198" y="261"/>
      <point x="201" y="280" type="qcurve"/>
      <point x="323" y="974" type="line"/>
      <point x="461" y="1004" type="line"/>
    </contour>
  </outline>
</glyph>
<glyph name="w" format="2">
  <advance width="1440"/>
  <unicode hex="0077"/>
  <outline>
    <contour>
      <point x="1555" y="974" type="line"/>
      <point x="1067" y="0" type="line"/>
      <point x="945" y="0" type="line"/>
      <point x="844" y="678" type="line"/>
      <point x="834" y="678" type="line"/>
      <point x="495" y="0" type="line"/>
      <point x="373" y="0" type="line"/>
      <point x="227" y="974" type="line"/>
      <point x="407" y="1004" type="line"/>
      <point x="507" y="269" type="line"/>
      <point x="517" y="269" type="line"/>
      <point x="860" y="974" type="line"/>
      <point x="982" y="974" type="line"/>
      <point x="1079" y="269" type="line"/>
      <point x="1089" y="269" type="line"/>
      <point x="1448" y="1004" type="line"/>
    </contour>
  </outline>
</glyph>
<glyph name="x" format="2">
  <advance width="1024"/>
  <unicode hex="0078"/>
  <anchor x="512" y="0" name="AccentBelow"/>
  <anchor x="512" y="1100" name="AccentDefault"/>
  <anchor x="512" y="486" name="AccentMiddle"/>
  <outline>
    <contour>
      <point x="426" y="1004" type="line"/>
      <point x="624" y="616" type="line"/>
      <point x="634" y="616" type="line"/>
      <point x="969" y="1004" type="line"/>
      <point x="1073" y="974" type="line"/>
      <point x="678" y="527" type="line"/>
      <point x="677" y="517" type="line"/>
      <point x="950" y="0" type="line"/>
      <point x="770" y="-30" type="line"/>
      <point x="557" y="374" type="line"/>
      <point x="547" y="374" type="line"/>
      <point x="193" y="-30" type="line"/>
      <point x="89" y="0" type="line"/>
      <point x="504" y="470" type="line"/>
      <point x="506" y="480" type="line"/>
      <point x="245" y="974" type="line"/>
    </contour>
  </outline>
</glyph>
<glyph name="y" format="2">
  <advance width="960"/>
  <unicode hex="0079"/>
  <outline>
    <contour>
      <point x="435" y="1004" type="line"/>
      <point x="575" y="204" type="line"/>
      <point x="585" y="204" type="line"/>
      <point x="973" y="1004" type="line"/>
      <point x="1076" y="974" type="line"/>
      <point x="586" y="-30" type="line"/>
      <point x="528" y="-149"/>
      <point x="427" y="-322"/>
      <point x="307" y="-435"/>
      <point x="154" y="-490"/>
      <point x="45" y="-490" type="qcurve"/>
      <point x="63" y="-388" type="line"/>
      <point x="139" y="-388"/>
      <point x="252" y="-342"/>
      <point x="345" y="-251"/>
      <point x="425" y="-117"/>
      <point x="468" y="-30" type="qcurve"/>
      <point x="255" y="974" type="line"/>
    </contour>
  </outline>
</glyph>
<glyph name="z" format="2">
  <advance width="960"/>
  <unicode hex="007A"/>
  <anchor x="512" y="0" name="AccentBelow"/>
  <anchor x="512" y="1100" name="AccentDefault"/>
  <anchor x="480" y="486" name="AccentMiddle"/>
  <outline>
    <contour>
      <point x="76" y="25" type="line"/>
      <point x="820" y="866" type="line"/>
      <point x="822" y="876" type="line"/>
      <point x="304" y="849" type="line"/>
      <point x="326" y="974" type="line"/>
      <point x="1055" y="974" type="line"/>
      <point x="1051" y="949" type="line"/>
      <point x="305" y="105" type="line"/>
      <point x="303" y="95" type="line"/>
      <point x="906" y="125" type="line"/>
      <point x="884" y="0" type="line"/>
      <point x="72" y="0" type="line"/>
    </contour>
  </outline>
</glyph>
<glyph name="braceleft" format="2">
  <advance width="736"/>
  <unicode hex="007B"/>
  <outline>
    <contour>
      <point x="894" y="1362" type="line"/>
      <point x="813" y="1362"/>
      <point x="735" y="1337"/>
      <point x="687" y="1283"/>
      <point x="661" y="1196"/>
      <point x="650" y="1135" type="qcurve"/>
      <point x="621" y="972" type="line"/>
      <point x="609" y="904"/>
      <point x="570" y="780"/>
      <point x="501" y="679"/>
      <point x="396" y="608"/>
      <point x="317" y="593" type="qcurve"/>
      <point x="371" y="582"/>
      <point x="442" y="538"/>
      <point x="484" y="476"/>
      <point x="502" y="399"/>
      <point x="502" y="355" type="qcurve"/>
      <point x="502" y="322"/>
      <point x="494" y="251"/>
      <point x="487" y="214" type="qcurve"/>
      <point x="456" y="39" type="line"/>
      <point x="450" y="6"/>
      <point x="443" y="-47"/>
      <point x="443" y="-69" type="qcurve"/>
      <point x="443" y="-99"/>
      <point x="459" y="-140"/>
      <point x="496" y="-165"/>
      <point x="558" y="-176"/>
      <point x="622" y="-176" type="qcurve"/>
      <point x="604" y="-278" type="line"/>
      <point x="531" y="-278"/>
      <point x="418" y="-259"/>
      <point x="342" y="-212"/>
      <point x="302" y="-132"/>
      <point x="302" y="-72" type="qcurve"/>
      <point x="302" y="-32"/>
      <point x="311" y="19" type="qcurve"/>
      <point x="342" y="194" type="line"/>
      <point x="351" y="245"/>
      <point x="363" y="332"/>
      <point x="363" y="370" type="qcurve"/>
      <point x="363" y="410"/>
      <point x="345" y="473"/>
      <point x="300" y="518"/>
      <point x="225" y="542"/>
      <point x="167" y="542" type="qcurve"/>
      <point x="185" y="644" type="line"/>
      <point x="271" y="644"/>
      <point x="375" y="696"/>
      <point x="437" y="788"/>
      <point x="468" y="916"/>
      <point x="482" y="992" type="qcurve"/>
      <point x="512" y="1157" type="line"/>
      <point x="528" y="1245"/>
      <point x="593" y="1364"/>
      <point x="692" y="1434"/>
      <point x="826" y="1464"/>
      <point x="912" y="1464" type="qcurve"/>
    </contour>
  </outline>
</glyph>
<glyph name="bar" format="2">
  <advance width="736"/>
  <unicode hex="007C"/>
  <outline>
    <contour>
      <point x="709" y="1536" type="line" name="hr00"/>
      <point x="352" y="-490" type="line" name="dh02"/>
      <point x="210" y="-490" type="line" name="dh01"/>
      <point x="567" y="1536" type="line"/>
    </contour>
  </outline>
</glyph>
<glyph name="asciitilde" format="2">
  <advance width="1248"/>
  <unicode hex="007E"/>
  <outline>
    <contour>
      <point x="179" y="407" type="line"/>
      <point x="184" y="435"/>
      <point x="234" y="515"/>
      <point x="317" y="589"/>
      <point x="429" y="641"/>
      <point x="496" y="641" type="qcurve"/>
      <point x="551" y="641"/>
      <point x="637" y="614"/>
      <point x="710" y="573"/>
      <point x="772" y="525"/>
      <point x="835" y="484"/>
      <point x="903" y="457"/>
      <point x="944" y="457" type="qcurve"/>
      <point x="986" y="457"/>
      <point x="1052" y="489"/>
      <point x="1102" y="541"/>
      <point x="1133" y="607"/>
      <point x="1139" y="641" type="qcurve"/>
      <point x="1169" y="641" type="line"/>
      <point x="1240" y="569" type="line"/>
      <point x="1235" y="541"/>
      <point x="1185" y="461"/>
      <point x="1102" y="387"/>
      <point x="989" y="335"/>
      <point x="922" y="335" type="qcurve"/>
      <point x="863" y="335"/>
      <point x="776" y="362"/>
      <point x="705" y="403"/>
      <point x="646" y="451"/>
      <point x="586" y="492"/>
      <point x="517" y="519"/>
      <point x="473" y="519" type="qcurve"/>
      <point x="432" y="519"/>
      <point x="366" y="487"/>
      <point x="318" y="435"/>
      <point x="287" y="369"/>
      <point x="281" y="335" type="qcurve"/>
      <point x="251" y="335" type="line"/>
    </contour>
  </outline>
</glyph>
<glyph name="exclamdown" format="2">
  <advance width="736"/>
  <unicode hex="00A1"/>
  <outline>
    <contour>
      <point x="520" y="580" type="line"/>
      <point x="642" y="580" type="line"/>
      <point x="510" y="-460" type="line"/>
      <point x="285" y="-460" type="line"/>
    </contour>
    <contour>
      <point x="512" y="891" type="qcurve"/>
      <point x="512" y="914"/>
      <point x="529" y="955"/>
      <point x="561" y="987"/>
      <point x="601" y="1004"/>
      <point x="625" y="1004" type="qcurve"/>
      <point x="648" y="1004"/>
      <point x="689" y="987"/>
      <point x="721" y="955"/>
      <point x="738" y="914"/>
      <point x="738" y="891" type="qcurve"/>
      <point x="738" y="867"/>
      <point x="721" y="827"/>
      <point x="689" y="795"/>
      <point x="648" y="778"/>
      <point x="625" y="778" type="qcurve"/>
      <point x="601" y="778"/>
      <point x="561" y="795"/>
      <point x="529" y="827"/>
      <point x="512" y="867"/>
    </contour>
  </outline>
</glyph>
<glyph name="cent" format="2">
  <advance width="1120"/>
  <unicode hex="00A2"/>
  <outline>
    <contour>
      <point x="1071" y="1206" type="line"/>
      <point x="1156" y="1191" type="line"/>
      <point x="993" y="939" type="line"/>
      <point x="1025" y="919"/>
      <point x="1073" y="872"/>
      <point x="1091" y="849" type="qcurve"/>
      <point x="989" y="747" type="line"/>
      <point x="981" y="764"/>
      <point x="945" y="812"/>
      <point x="924" y="831" type="qcurve"/>
      <point x="460" y="109" type="line"/>
      <point x="513" y="72"/>
      <point x="592" y="72" type="qcurve"/>
      <point x="643" y="72"/>
      <point x="733" y="105"/>
      <point x="807" y="152"/>
      <point x="863" y="206"/>
      <point x="880" y="227" type="qcurve"/>
      <point x="982" y="125" type="line"/>
      <point x="950" y="96"/>
      <point x="869" y="41"/>
      <point x="768" y="-3"/>
      <point x="646" y="-30"/>
      <point x="574" y="-30" type="qcurve"/>
      <point x="523" y="-30"/>
      <point x="434" y="-12"/>
      <point x="392" y="5" type="qcurve"/>
      <point x="241" y="-232" type="line"/>
      <point x="156" y="-217" type="line"/>
      <point x="323" y="43" type="line"/>
      <point x="245" y="97"/>
      <point x="158" y="272"/>
      <point x="158" y="384" type="qcurve"/>
      <point x="158" y="468"/>
      <point x="203" y="626"/>
      <point x="283" y="764"/>
      <point x="394" y="878"/>
      <point x="527" y="959"/>
      <point x="678" y="1004"/>
      <point x="757" y="1004" type="qcurve"/>
      <point x="805" y="1004"/>
      <point x="887" y="989"/>
      <point x="922" y="975" type="qcurve"/>
    </contour>
    <contour>
      <point x="857" y="874" type="line"/>
      <point x="811" y="902"/>
      <point x="739" y="902" type="qcurve"/>
      <point x="654" y="902"/>
      <point x="505" y="812"/>
      <point x="394" y="666"/>
      <point x="330" y="480"/>
      <point x="330" y="384" type="qcurve"/>
      <point x="330" y="317"/>
      <point x="365" y="204"/>
      <point x="400" y="162" type="qcurve"/>
    </contour>
  </outline>
</glyph>
<glyph name="sterling" format="2">
  <advance width="1120"/>
  <unicode hex="00A3"/>
  <outline>
    <contour>
      <point x="290" y="803" type="line"/>
      <point x="500" y="803" type="line"/>
      <point x="505" y="830"/>
      <point x="500" y="906"/>
      <point x="494" y="993"/>
      <point x="492" y="1086"/>
      <point x="500" y="1130" type="qcurve"/>
      <point x="513" y="1203"/>
      <point x="579" y="1325"/>
      <point x="687" y="1414"/>
      <point x="836" y="1464"/>
      <point x="931" y="1464" type="qcurve"/>
      <point x="992" y="1464"/>
      <point x="1089" y="1429"/>
      <point x="1162" y="1380"/>
      <point x="1210" y="1327"/>
      <point x="1222" y="1309" type="qcurve"/>
      <point x="1103" y="1207" type="line"/>
      <point x="1093" y="1237"/>
      <point x="1057" y="1293"/>
      <point x="1011" y="1336"/>
      <point x="953" y="1362"/>
      <point x="920" y="1362" type="qcurve"/>
      <point x="864" y="1362"/>
      <point x="776" y="1325"/>
      <point x="711" y="1261"/>
      <point x="669" y="1173"/>
      <point x="660" y="1122" type="qcurve"/>
      <point x="655" y="1090"/>
      <point x="651" y="1003"/>
      <point x="649" y="913"/>
      <point x="647" y="830"/>
      <point x="642" y="803" type="qcurve"/>
      <point x="951" y="803" type="line"/>
      <point x="929" y="678" type="line"/>
      <point x="623" y="693" type="line"/>
      <point x="606" y="601"/>
      <point x="540" y="433"/>
      <point x="456" y="286"/>
      <point x="363" y="161"/>
      <point x="320" y="112" type="qcurve"/>
      <point x="318" y="102" type="line"/>
      <point x="387" y="102"/>
      <point x="489" y="93"/>
      <point x="571" y="81"/>
      <point x="644" y="72"/>
      <point x="685" y="72" type="qcurve"/>
      <point x="729" y="72"/>
      <point x="806" y="105"/>
      <point x="868" y="153"/>
      <point x="916" y="207"/>
      <point x="931" y="227" type="qcurve"/>
      <point x="1014" y="125" type="line"/>
      <point x="993" y="106"/>
      <point x="926" y="53"/>
      <point x="835" y="4"/>
      <point x="723" y="-30"/>
      <point x="658" y="-30" type="qcurve"/>
      <point x="606" y="-30"/>
      <point x="509" y="-21"/>
      <point x="397" y="-9"/>
      <point x="260" y="0"/>
      <point x="149" y="0" type="qcurve"/>
      <point x="166" y="102" type="line"/>
      <point x="212" y="151"/>
      <point x="305" y="257"/>
      <point x="389" y="395"/>
      <point x="459" y="576"/>
      <point x="482" y="701" type="qcurve"/>
      <point x="275" y="718" type="line"/>
    </contour>
  </outline>
</glyph>
<glyph name="currency" format="2">
  <advance width="1024"/>
  <unicode hex="00A4"/>
  <outline>
    <contour>
      <point x="640" y="974" type="qcurve"/>
      <point x="592" y="974"/>
      <point x="507" y="935"/>
      <point x="442" y="869"/>
      <point x="404" y="783"/>
      <point x="404" y="736" type="qcurve"/>
      <point x="404" y="689"/>
      <point x="442" y="603"/>
      <point x="507" y="538"/>
      <point x="592" y="499"/>
      <point x="640" y="499" type="qcurve"/>
      <point x="687" y="499"/>
      <point x="773" y="537"/>
      <point x="838" y="601"/>
      <point x="877" y="688"/>
      <point x="877" y="736" type="qcurve"/>
      <point x="877" y="783"/>
      <point x="838" y="869"/>
      <point x="773" y="935"/>
      <point x="687" y="974"/>
    </contour>
    <contour>
      <point x="849" y="445" type="line"/>
      <point x="751" y="377"/>
      <point x="640" y="377" type="qcurve"/>
      <point x="531" y="377"/>
      <point x="437" y="441" type="qcurve"/>
      <point x="282" y="287" type="line"/>
      <point x="196" y="373" type="line"/>
      <point x="349" y="527" type="line"/>
      <point x="315" y="573"/>
      <point x="282" y="679"/>
      <point x="282" y="736" type="qcurve"/>
      <point x="282" y="851"/>
      <point x="349" y="945" type="qcurve"/>
      <point x="196" y="1098" type="line"/>
      <point x="282" y="1184" type="line"/>
      <point x="435" y="1031" type="line"/>
      <point x="530" y="1096"/>
      <point x="640" y="1096" type="qcurve"/>
      <point x="751" y="1096"/>
      <point x="849" y="1027" type="qcurve"/>
      <point x="1007" y="1184" type="line"/>
      <point x="1093" y="1098" type="line"/>
      <point x="935" y="941" type="line"/>
      <point x="967" y="893"/>
      <point x="999" y="790"/>
      <point x="999" y="738" type="qcurve"/>
      <point x="999" y="684"/>
      <point x="965" y="579"/>
      <point x="933" y="533" type="qcurve"/>
      <point x="1093" y="373" type="line"/>
      <point x="1007" y="287" type="line"/>
    </contour>
  </outline>
</glyph>
<glyph name="brokenbar" format="2">
  <advance width="736"/>
  <unicode hex="00A6"/>
  <outline>
    <contour>
      <point x="725" y="1682" type="line"/>
      <point x="574" y="825" type="line"/>
      <point x="452" y="825" type="line"/>
      <point x="603" y="1682" type="line"/>
    </contour>
    <contour>
      <point x="257" y="-278" type="line"/>
      <point x="409" y="579" type="line"/>
      <point x="531" y="579" type="line"/>
      <point x="379" y="-278" type="line"/>
    </contour>
  </outline>
</glyph>
<glyph name="section" format="2">
  <advance width="1024"/>
  <unicode hex="00A7"/>
  <outline>
    <contour>
      <point x="439" y="-490" type="qcurve"/>
      <point x="389" y="-490"/>
      <point x="302" y="-465"/>
      <point x="228" y="-423"/>
      <point x="170" y="-367"/>
      <point x="148" y="-335" type="qcurve"/>
      <point x="251" y="-233" type="line"/>
      <point x="269" y="-265"/>
      <point x="312" y="-321"/>
      <point x="363" y="-363"/>
      <point x="422" y="-388"/>
      <point x="457" y="-388" type="qcurve"/>
      <point x="501" y="-388"/>
      <point x="569" y="-347"/>
      <point x="615" y="-284"/>
      <point x="639" y="-207"/>
      <point x="639" y="-170" type="qcurve"/>
      <point x="639" y="-121"/>
      <point x="606" y="-44"/>
      <point x="552" y="21"/>
      <point x="483" y="78"/>
      <point x="411" y="136"/>
      <point x="342" y="199"/>
      <point x="288" y="276"/>
      <point x="255" y="371"/>
      <point x="255" y="432" type="qcurve"/>
      <point x="255" y="505"/>
      <point x="298" y="627"/>
      <point x="374" y="728"/>
      <point x="477" y="809"/>
      <point x="537" y="842" type="qcurve"/>
      <point x="502" y="884"/>
      <point x="459" y="998"/>
      <point x="459" y="1070" type="qcurve"/>
      <point x="459" y="1150"/>
      <point x="511" y="1293"/>
      <point x="605" y="1401"/>
      <point x="739" y="1464"/>
      <point x="820" y="1464" type="qcurve"/>
      <point x="923" y="1464"/>
      <point x="1064" y="1378"/>
      <point x="1110" y="1309" type="qcurve"/>
      <point x="1008" y="1207" type="line"/>
      <point x="998" y="1234"/>
      <point x="959" y="1289"/>
      <point x="905" y="1334"/>
      <point x="839" y="1362"/>
      <point x="802" y="1362" type="qcurve"/>
      <point x="757" y="1362"/>
      <point x="689" y="1321"/>
      <point x="644" y="1257"/>
      <point x="621" y="1179"/>
      <point x="621" y="1142" type="qcurve"/>
      <point x="621" y="1093"/>
      <point x="654" y="1017"/>
      <point x="708" y="952"/>
      <point x="776" y="896"/>
      <point x="848" y="838"/>
      <point x="916" y="775"/>
      <point x="970" y="699"/>
      <point x="1003" y="605"/>
      <point x="1003" y="545" type="qcurve"/>
      <point x="1003" y="470"/>
      <point x="961" y="347"/>
      <point x="886" y="246"/>
      <point x="782" y="164"/>
      <point x="721" y="131" type="qcurve"/>
      <point x="756" y="89"/>
      <point x="801" y="-24"/>
      <point x="801" y="-97" type="qcurve"/>
      <point x="801" y="-178"/>
      <point x="750" y="-321"/>
      <point x="656" y="-428"/>
      <point x="522" y="-490"/>
    </contour>
    <contour>
      <point x="427" y="502" type="qcurve"/>
      <point x="427" y="450"/>
      <point x="468" y="369"/>
      <point x="533" y="300"/>
      <point x="614" y="236"/>
      <point x="654" y="200" type="qcurve"/>
      <point x="735" y="242"/>
      <point x="831" y="385"/>
      <point x="831" y="472" type="qcurve"/>
      <point x="831" y="524"/>
      <point x="790" y="605"/>
      <point x="725" y="674"/>
      <point x="645" y="738"/>
      <point x="605" y="774" type="qcurve"/>
      <point x="524" y="732"/>
      <point x="427" y="589"/>
    </contour>
  </outline>
</glyph>
<glyph name="dieresis" format="2">
  <advance width="768"/>
  <unicode hex="00A8"/>
  <outline>
    <contour>
      <point x="301" y="1280" type="qcurve"/>
      <point x="301" y="1299"/>
      <point x="317" y="1335"/>
      <point x="344" y="1362"/>
      <point x="380" y="1378"/>
      <point x="401" y="1378" type="qcurve"/>
      <point x="421" y="1378"/>
      <point x="458" y="1362"/>
      <point x="486" y="1335"/>
      <point x="503" y="1299"/>
      <point x="503" y="1280" type="qcurve"/>
      <point x="503" y="1259"/>
      <point x="486" y="1221"/>
      <point x="458" y="1192"/>
      <point x="421" y="1176"/>
      <point x="401" y="1176" type="qcurve"/>
      <point x="380" y="1176"/>
      <point x="344" y="1192"/>
      <point x="317" y="1221"/>
      <point x="301" y="1259"/>
    </contour>
    <contour>
      <point x="714" y="1280" type="qcurve"/>
      <point x="714" y="1299"/>
      <point x="730" y="1335"/>
      <point x="757" y="1362"/>
      <point x="793" y="1378"/>
      <point x="814" y="1378" type="qcurve"/>
      <point x="834" y="1378"/>
      <point x="871" y="1362"/>
      <point x="899" y="1335"/>
      <point x="916" y="1299"/>
      <point x="916" y="1280" type="qcurve"/>
      <point x="916" y="1259"/>
      <point x="899" y="1221"/>
      <point x="871" y="1192"/>
      <point x="834" y="1176"/>
      <point x="814" y="1176" type="qcurve"/>
      <point x="793" y="1176"/>
      <point x="757" y="1192"/>
      <point x="730" y="1221"/>
      <point x="714" y="1259"/>
    </contour>
  </outline>
</glyph>
<glyph name="copyright" format="2">
  <advance width="1600"/>
  <unicode hex="00A9"/>
  <outline>
    <contour>
      <point x="1218" y="941" type="line"/>
      <point x="1210" y="959"/>
      <point x="1178" y="1008"/>
      <point x="1129" y="1052"/>
      <point x="1061" y="1082"/>
      <point x="1017" y="1082" type="qcurve"/>
      <point x="969" y="1082"/>
      <point x="878" y="1046"/>
      <point x="798" y="984"/>
      <point x="732" y="899"/>
      <point x="684" y="799"/>
      <point x="657" y="689"/>
      <point x="657" y="634" type="qcurve"/>
      <point x="657" y="574"/>
      <point x="689" y="470"/>
      <point x="749" y="393"/>
      <point x="834" y="350"/>
      <point x="888" y="350" type="qcurve"/>
      <point x="933" y="350"/>
      <point x="1011" y="380"/>
      <point x="1075" y="424"/>
      <point x="1124" y="473"/>
      <point x="1139" y="491" type="qcurve"/>
      <point x="1211" y="402" type="line"/>
      <point x="1185" y="378"/>
      <point x="1115" y="330"/>
      <point x="1029" y="292"/>
      <point x="929" y="268"/>
      <point x="874" y="268" type="qcurve"/>
      <point x="793" y="268"/>
      <point x="660" y="321"/>
      <point x="565" y="417"/>
      <point x="514" y="549"/>
      <point x="514" y="628" type="qcurve"/>
      <point x="514" y="698"/>
      <point x="552" y="832"/>
      <point x="620" y="951"/>
      <point x="715" y="1051"/>
      <point x="830" y="1124"/>
      <point x="962" y="1164"/>
      <point x="1032" y="1164" type="qcurve"/>
      <point x="1088" y="1164"/>
      <point x="1179" y="1140"/>
      <point x="1251" y="1102"/>
      <point x="1304" y="1054"/>
      <point x="1322" y="1030" type="qcurve"/>
    </contour>
    <contour>
      <point x="186" y="716" type="qcurve"/>
      <point x="186" y="819"/>
      <point x="239" y="1010"/>
      <point x="336" y="1177"/>
      <point x="473" y="1313"/>
      <point x="639" y="1411"/>
      <point x="830" y="1464"/>
      <point x="933" y="1464" type="qcurve"/>
      <point x="1036" y="1464"/>
      <point x="1227" y="1411"/>
      <point x="1394" y="1313"/>
      <point x="1530" y="1177"/>
      <point x="1628" y="1010"/>
      <point x="1681" y="819"/>
      <point x="1681" y="716" type="qcurve"/>
      <point x="1681" y="613"/>
      <point x="1628" y="422"/>
      <point x="1530" y="256"/>
      <point x="1394" y="120"/>
      <point x="1227" y="23"/>
      <point x="1036" y="-30"/>
      <point x="933" y="-30" type="qcurve"/>
      <point x="830" y="-30"/>
      <point x="639" y="23"/>
      <point x="473" y="120"/>
      <point x="336" y="256"/>
      <point x="239" y="422"/>
      <point x="186" y="613"/>
    </contour>
    <contour>
      <point x="268" y="717" type="qcurve"/>
      <point x="268" y="627"/>
      <point x="317" y="459"/>
      <point x="405" y="312"/>
      <point x="528" y="189"/>
      <point x="676" y="101"/>
      <point x="844" y="52"/>
      <point x="933" y="52" type="qcurve"/>
      <point x="1022" y="52"/>
      <point x="1191" y="101"/>
      <point x="1339" y="189"/>
      <point x="1462" y="312"/>
      <point x="1550" y="459"/>
      <point x="1599" y="627"/>
      <point x="1599" y="717" type="qcurve"/>
      <point x="1599" y="806"/>
      <point x="1550" y="975"/>
      <point x="1462" y="1122"/>
      <point x="1339" y="1245"/>
      <point x="1191" y="1333"/>
      <point x="1022" y="1382"/>
      <point x="933" y="1382" type="qcurve"/>
      <point x="844" y="1382"/>
      <point x="676" y="1333"/>
      <point x="528" y="1245"/>
      <point x="405" y="1122"/>
      <point x="317" y="974"/>
      <point x="268" y="806"/>
    </contour>
  </outline>
</glyph>
<glyph name="ordfeminine" format="2">
  <advance width="864"/>
  <unicode hex="00AA"/>
  <outline>
    <contour>
      <point x="368" y="1341" type="line"/>
      <point x="431" y="1401"/>
      <point x="584" y="1464"/>
      <point x="675" y="1464" type="qcurve"/>
      <point x="733" y="1464"/>
      <point x="829" y="1428"/>
      <point x="892" y="1355"/>
      <point x="917" y="1246"/>
      <point x="905" y="1174" type="qcurve"/>
      <point x="840" y="810" type="line"/>
      <point x="826" y="729"/>
      <point x="887" y="729" type="qcurve"/>
      <point x="859" y="649" type="line"/>
      <point x="817" y="649"/>
      <point x="765" y="675"/>
      <point x="736" y="715"/>
      <point x="724" y="763"/>
      <point x="723" y="784" type="qcurve"/>
      <point x="714" y="784" type="line"/>
      <point x="690" y="761"/>
      <point x="635" y="713"/>
      <point x="567" y="674"/>
      <point x="483" y="649"/>
      <point x="429" y="649" type="qcurve"/>
      <point x="381" y="649"/>
      <point x="308" y="680"/>
      <point x="264" y="737"/>
      <point x="249" y="817"/>
      <point x="257" y="865" type="qcurve"/>
      <point x="269" y="932"/>
      <point x="340" y="1036"/>
      <point x="467" y="1107"/>
      <point x="652" y="1144"/>
      <point x="777" y="1144" type="qcurve"/>
      <point x="788" y="1206" type="line"/>
      <point x="797" y="1254"/>
      <point x="782" y="1321"/>
      <point x="746" y="1363"/>
      <point x="691" y="1382"/>
      <point x="660" y="1382" type="qcurve"/>
      <point x="591" y="1382"/>
      <point x="477" y="1315"/>
      <point x="434" y="1261" type="qcurve"/>
    </contour>
    <contour>
      <point x="767" y="1084" type="line"/>
      <point x="672" y="1084"/>
      <point x="535" y="1056"/>
      <point x="441" y="1003"/>
      <point x="390" y="925"/>
      <point x="381" y="874" type="qcurve"/>
      <point x="374" y="836"/>
      <point x="391" y="781"/>
      <point x="426" y="747"/>
      <point x="469" y="731"/>
      <point x="487" y="731" type="qcurve"/>
      <point x="523" y="731"/>
      <point x="587" y="749"/>
      <point x="645" y="784"/>
      <point x="699" y="833"/>
      <point x="728" y="864" type="qcurve"/>
    </contour>
  </outline>
</glyph>
<glyph name="guillemotleft" format="2">
  <advance width="1024"/>
  <unicode hex="00AB"/>
  <outline>
    <contour>
      <point x="987" y="906" type="line"/>
      <point x="1084" y="876" type="line"/>
      <point x="749" y="487" type="line"/>
      <point x="947" y="98" type="line"/>
      <point x="839" y="68" type="line"/>
      <point x="585" y="487" type="line"/>
    </contour>
    <contour>
      <point x="589" y="906" type="line"/>
      <point x="686" y="876" type="line"/>
      <point x="351" y="487" type="line"/>
      <point x="549" y="98" type="line"/>
      <point x="441" y="68" type="line"/>
      <point x="187" y="487" type="line"/>
    </contour>
  </outline>
</glyph>
<glyph name="logicalnot" format="2">
  <advance width="1152"/>
  <unicode hex="00AC"/>
  <outline>
    <contour>
      <point x="1209" y="747" type="line"/>
      <point x="1123" y="256" type="line"/>
      <point x="1001" y="256" type="line"/>
      <point x="1066" y="625" type="line"/>
      <point x="182" y="625" type="line"/>
      <point x="203" y="747" type="line"/>
    </contour>
  </outline>
</glyph>
<glyph name="macron" format="2">
  <advance width="768"/>
  <unicode hex="00AF"/>
  <outline>
    <contour>
      <point x="370" y="1338" type="line"/>
      <point x="844" y="1338" type="line"/>
      <point x="823" y="1216" type="line"/>
      <point x="349" y="1216" type="line"/>
    </contour>
  </outline>
</glyph>
<glyph name="degree" format="2">
  <advance width="768"/>
  <unicode hex="00B0"/>
  <outline>
    <contour>
      <point x="414" y="1269" type="qcurve"/>
      <point x="414" y="1228"/>
      <point x="444" y="1157"/>
      <point x="496" y="1106"/>
      <point x="566" y="1076"/>
      <point x="607" y="1076" type="qcurve"/>
      <point x="647" y="1076"/>
      <point x="718" y="1106"/>
      <point x="770" y="1157"/>
      <point x="801" y="1228"/>
      <point x="801" y="1269" type="qcurve"/>
      <point x="801" y="1309"/>
      <point x="770" y="1380"/>
      <point x="718" y="1434"/>
      <point x="647" y="1464"/>
      <point x="607" y="1464" type="qcurve"/>
      <point x="566" y="1464"/>
      <point x="496" y="1434"/>
      <point x="444" y="1380"/>
      <point x="414" y="1309"/>
    </contour>
    <contour>
      <point x="312" y="1269" type="qcurve"/>
      <point x="312" y="1329"/>
      <point x="359" y="1437"/>
      <point x="438" y="1519"/>
      <point x="547" y="1566"/>
      <point x="608" y="1566" type="qcurve"/>
      <point x="668" y="1566"/>
      <point x="777" y="1519"/>
      <point x="856" y="1437"/>
      <point x="903" y="1329"/>
      <point x="903" y="1269" type="qcurve"/>
      <point x="903" y="1208"/>
      <point x="856" y="1101"/>
      <point x="777" y="1020"/>
      <point x="668" y="974"/>
      <point x="608" y="974" type="qcurve"/>
      <point x="547" y="974"/>
      <point x="438" y="1020"/>
      <point x="359" y="1101"/>
      <point x="312" y="1208"/>
    </contour>
  </outline>
</glyph>
<glyph name="plusminus" format="2">
  <advance width="1152"/>
  <unicode hex="00B1"/>
  <outline>
    <contour>
      <point x="240" y="653" type="line"/>
      <point x="261" y="775" type="line"/>
      <point x="651" y="775" type="line"/>
      <point x="720" y="1165" type="line"/>
      <point x="842" y="1165" type="line"/>
      <point x="773" y="775" type="line"/>
      <point x="1163" y="775" type="line"/>
      <point x="1142" y="653" type="line"/>
      <point x="752" y="653" type="line"/>
      <point x="683" y="263" type="line"/>
      <point x="561" y="263" type="line"/>
      <point x="630" y="653" type="line"/>
    </contour>
    <contour>
      <point x="125" y="0" type="line"/>
      <point x="146" y="122" type="line"/>
      <point x="1048" y="122" type="line"/>
      <point x="1027" y="0" type="line"/>
    </contour>
  </outline>
</glyph>
<glyph name="twosuperior" format="2">
  <advance width="736"/>
  <unicode hex="00B2"/>
  <outline>
    <contour>
      <point x="396" y="1362" type="line"/>
      <point x="444" y="1410"/>
      <point x="577" y="1464"/>
      <point x="643" y="1464" type="qcurve"/>
      <point x="688" y="1464"/>
      <point x="767" y="1437"/>
      <point x="826" y="1386"/>
      <point x="859" y="1310"/>
      <point x="859" y="1262" type="qcurve"/>
      <point x="859" y="1216"/>
      <point x="839" y="1136"/>
      <point x="794" y="1058"/>
      <point x="724" y="976"/>
      <point x="622" y="879"/>
      <point x="487" y="762"/>
      <point x="401" y="689" type="qcurve"/>
      <point x="766" y="719" type="line"/>
      <point x="746" y="604" type="line"/>
      <point x="201" y="604" type="line"/>
      <point x="205" y="624" type="line"/>
      <point x="304" y="721"/>
      <point x="460" y="864"/>
      <point x="578" y="973"/>
      <point x="661" y="1056"/>
      <point x="712" y="1129"/>
      <point x="736" y="1201"/>
      <point x="736" y="1245" type="qcurve"/>
      <point x="736" y="1294"/>
      <point x="679" y="1362"/>
      <point x="625" y="1362" type="qcurve"/>
      <point x="579" y="1362"/>
      <point x="500" y="1316"/>
      <point x="471" y="1287" type="qcurve"/>
    </contour>
  </outline>
</glyph>
<glyph name="threesuperior" format="2">
  <advance width="736"/>
  <unicode hex="00B3"/>
  <outline>
    <contour>
      <point x="456" y="1032" type="line"/>
      <point x="474" y="1134" type="line"/>
      <point x="525" y="1134" type="line"/>
      <point x="556" y="1134"/>
      <point x="615" y="1159"/>
      <point x="662" y="1200"/>
      <point x="690" y="1255"/>
      <point x="690" y="1285" type="qcurve"/>
      <point x="690" y="1320"/>
      <point x="653" y="1362"/>
      <point x="614" y="1362" type="qcurve"/>
      <point x="588" y="1362"/>
      <point x="518" y="1327"/>
      <point x="470" y="1288" type="qcurve"/>
      <point x="396" y="1362" type="line"/>
      <point x="410" y="1375"/>
      <point x="458" y="1410"/>
      <point x="518" y="1442"/>
      <point x="587" y="1464"/>
      <point x="622" y="1464" type="qcurve"/>
      <point x="667" y="1464"/>
      <point x="737" y="1440"/>
      <point x="786" y="1398"/>
      <point x="812" y="1340"/>
      <point x="812" y="1307" type="qcurve"/>
      <point x="812" y="1266"/>
      <point x="779" y="1196"/>
      <point x="725" y="1141"/>
      <point x="657" y="1103"/>
      <point x="621" y="1093" type="qcurve"/>
      <point x="620" y="1087" type="line"/>
      <point x="639" y="1082"/>
      <point x="698" y="1058"/>
      <point x="753" y="1012"/>
      <point x="792" y="942"/>
      <point x="792" y="891" type="qcurve"/>
      <point x="792" y="822"/>
      <point x="735" y="709"/>
      <point x="640" y="630"/>
      <point x="517" y="586"/>
      <point x="451" y="586" type="qcurve"/>
      <point x="409" y="586"/>
      <point x="337" y="605"/>
      <point x="278" y="635"/>
      <point x="233" y="672"/>
      <point x="218" y="690" type="qcurve"/>
      <point x="313" y="770" type="line"/>
      <point x="334" y="734"/>
      <point x="409" y="688"/>
      <point x="469" y="688" type="qcurve"/>
      <point x="512" y="688"/>
      <point x="586" y="719"/>
      <point x="640" y="773"/>
      <point x="670" y="843"/>
      <point x="670" y="882" type="qcurve"/>
      <point x="670" y="913"/>
      <point x="650" y="968"/>
      <point x="611" y="1009"/>
      <point x="551" y="1032"/>
      <point x="512" y="1032" type="qcurve"/>
    </contour>
  </outline>
</glyph>
<glyph name="acute" format="2">
  <advance width="768"/>
  <unicode hex="00B4"/>
  <outline>
    <contour>
      <point x="414" y="1176" type="line"/>
      <point x="725" y="1521" type="line"/>
      <point x="755" y="1521" type="line"/>
      <point x="837" y="1434" type="line"/>
      <point x="837" y="1404" type="line"/>
      <point x="471" y="1116" type="line"/>
    </contour>
  </outline>
</glyph>
<glyph name="uni00B5" format="2">
  <advance width="1024"/>
  <unicode hex="00B5"/>
  <outline>
    <contour>
      <point x="455" y="974" type="line"/>
      <point x="369" y="487" type="line"/>
      <point x="361" y="445"/>
      <point x="355" y="373"/>
      <point x="355" y="341" type="qcurve"/>
      <point x="355" y="276"/>
      <point x="381" y="182"/>
      <point x="426" y="121"/>
      <point x="487" y="92"/>
      <point x="523" y="92" type="qcurve"/>
      <point x="567" y="92"/>
      <point x="653" y="137"/>
      <point x="728" y="233"/>
      <point x="789" y="383"/>
      <point x="807" y="487" type="qcurve"/>
      <point x="888" y="944" type="line"/>
      <point x="1025" y="974" type="line"/>
      <point x="1055" y="974" type="line"/>
      <point x="929" y="259" type="line"/>
      <point x="924" y="233"/>
      <point x="919" y="199"/>
      <point x="916" y="176"/>
      <point x="915" y="162"/>
      <point x="915" y="156" type="qcurve"/>
      <point x="915" y="115"/>
      <point x="966" y="72"/>
      <point x="1015" y="72" type="qcurve"/>
      <point x="997" y="-30" type="line"/>
      <point x="974" y="-30" type="line"/>
      <point x="910" y="-30"/>
      <point x="826" y="-1"/>
      <point x="776" y="43"/>
      <point x="754" y="97"/>
      <point x="753" y="122" type="qcurve"/>
      <point x="743" y="122" type="line"/>
      <point x="730" y="98"/>
      <point x="687" y="44"/>
      <point x="625" y="-1"/>
      <point x="547" y="-30"/>
      <point x="500" y="-30" type="qcurve"/>
      <point x="458" y="-30"/>
      <point x="395" y="-1"/>
      <point x="350" y="43"/>
      <point x="322" y="97"/>
      <point x="315" y="122" type="qcurve"/>
      <point x="305" y="122" type="line"/>
      <point x="202" y="-460" type="line"/>
      <point x="65" y="-490" type="line"/>
      <point x="35" y="-490" type="line"/>
      <point x="288" y="944" type="line"/>
      <point x="425" y="974" type="line"/>
    </contour>
  </outline>
</glyph>
<glyph name="paragraph" format="2">
  <advance width="1024"/>
  <unicode hex="00B6"/>
  <outline>
    <contour>
      <point x="1174" y="1434" type="line"/>
      <point x="1156" y="1332" type="line"/>
      <point x="1042" y="1332" type="line"/>
      <point x="808" y="0" type="line"/>
      <point x="706" y="0" type="line"/>
      <point x="940" y="1332" type="line"/>
      <point x="794" y="1332" type="line"/>
      <point x="560" y="0" type="line"/>
      <point x="458" y="0" type="line"/>
      <point x="590" y="750" type="line"/>
      <point x="518" y="750"/>
      <point x="406" y="789"/>
      <point x="329" y="861"/>
      <point x="288" y="962"/>
      <point x="288" y="1023" type="qcurve"/>
      <point x="288" y="1116"/>
      <point x="361" y="1268"/>
      <point x="484" y="1375"/>
      <point x="643" y="1434"/>
      <point x="730" y="1434" type="qcurve"/>
    </contour>
  </outline>
</glyph>
<glyph name="periodcentered" format="2">
  <advance width="576"/>
  <unicode hex="00B7"/>
  <outline>
    <contour>
      <point x="232" y="488" type="qcurve"/>
      <point x="232" y="516"/>
      <point x="254" y="567"/>
      <point x="291" y="604"/>
      <point x="341" y="626"/>
      <point x="370" y="626" type="qcurve"/>
      <point x="398" y="626"/>
      <point x="449" y="604"/>
      <point x="486" y="567"/>
      <point x="508" y="516"/>
      <point x="508" y="488" type="qcurve"/>
      <point x="508" y="459"/>
      <point x="486" y="409"/>
      <point x="449" y="372"/>
      <point x="398" y="350"/>
      <point x="370" y="350" type="qcurve"/>
      <point x="341" y="350"/>
      <point x="291" y="372"/>
      <point x="254" y="409"/>
      <point x="232" y="459"/>
    </contour>
  </outline>
</glyph>
<glyph name="cedilla" format="2">
  <advance width="768"/>
  <unicode hex="00B8"/>
  <outline>
    <contour>
      <point x="452" y="19" type="line"/>
      <point x="392" y="-110" type="line"/>
      <point x="416" y="-110"/>
      <point x="464" y="-132"/>
      <point x="504" y="-175"/>
      <point x="529" y="-240"/>
      <point x="529" y="-283" type="qcurve"/>
      <point x="529" y="-334"/>
      <point x="487" y="-411"/>
      <point x="423" y="-463"/>
      <point x="343" y="-490"/>
      <point x="306" y="-490" type="qcurve"/>
      <point x="271" y="-490"/>
      <point x="215" y="-476"/>
      <point x="173" y="-456"/>
      <point x="144" y="-433"/>
      <point x="135" y="-423" type="qcurve"/>
      <point x="189" y="-347" type="line"/>
      <point x="205" y="-373"/>
      <point x="262" y="-408"/>
      <point x="291" y="-408" type="qcurve"/>
      <point x="345" y="-408"/>
      <point x="407" y="-342"/>
      <point x="407" y="-288" type="qcurve"/>
      <point x="407" y="-266"/>
      <point x="389" y="-229"/>
      <point x="361" y="-204"/>
      <point x="325" y="-190"/>
      <point x="307" y="-190" type="qcurve"/>
      <point x="281" y="-190"/>
      <point x="236" y="-201"/>
      <point x="224" y="-206" type="qcurve"/>
      <point x="330" y="19" type="line"/>
    </contour>
  </outline>
</glyph>
<glyph name="onesuperior" format="2">
  <advance width="736"/>
  <unicode hex="00B9"/>
  <outline>
    <contour>
      <point x="746" y="1464" type="line"/>
      <point x="594" y="604" type="line"/>
      <point x="482" y="604" type="line"/>
      <point x="610" y="1335" type="line"/>
      <point x="604" y="1335" type="line"/>
      <point x="478" y="1309" type="line"/>
      <point x="478" y="1391" type="line"/>
      <point x="713" y="1464" type="line"/>
    </contour>
  </outline>
</glyph>
<glyph name="guillemotright" format="2">
  <advance width="1024"/>
  <unicode hex="00BB"/>
  <outline>
    <contour>
      <point x="609" y="487" type="line"/>
      <point x="207" y="68" type="line"/>
      <point x="111" y="98" type="line"/>
      <point x="445" y="487" type="line"/>
      <point x="248" y="876" type="line"/>
      <point x="355" y="906" type="line"/>
    </contour>
    <contour>
      <point x="1007" y="487" type="line"/>
      <point x="605" y="68" type="line"/>
      <point x="509" y="98" type="line"/>
      <point x="843" y="487" type="line"/>
      <point x="646" y="876" type="line"/>
      <point x="753" y="906" type="line"/>
    </contour>
  </outline>
</glyph>
<glyph name="AE" format="2">
  <advance width="1760"/>
  <unicode hex="00C6"/>
  <outline>
    <contour>
      <point x="1132" y="1434" type="line"/>
      <point x="1911" y="1434" type="line"/>
      <point x="1886" y="1292" type="line"/>
      <point x="1293" y="1312" type="line"/>
      <point x="1209" y="839" type="line"/>
      <point x="1703" y="839" type="line"/>
      <point x="1681" y="717" type="line"/>
      <point x="1188" y="717" type="line"/>
      <point x="1083" y="122" type="line"/>
      <point x="1709" y="142" type="line"/>
      <point x="1684" y="0" type="line"/>
      <point x="880" y="0" type="line"/>
      <point x="944" y="365" type="line"/>
      <point x="464" y="365" type="line"/>
      <point x="166" y="-30" type="line"/>
      <point x="52" y="0" type="line"/>
    </contour>
    <contour>
      <point x="1065" y="1163" type="line"/>
      <point x="556" y="487" type="line"/>
      <point x="965" y="487" type="line"/>
      <point x="1085" y="1163" type="line"/>
    </contour>
  </outline>
</glyph>
<glyph name="Eth" format="2">
  <advance width="1504"/>
  <unicode hex="00D0"/>
  <outline>
    <contour>
      <point x="444" y="1434" type="line"/>
      <point x="871" y="1434" type="line"/>
      <point x="1053" y="1434"/>
      <point x="1325" y="1336"/>
      <point x="1492" y="1151"/>
      <point x="1552" y="885"/>
      <point x="1522" y="717" type="qcurve"/>
      <point x="1505" y="619"/>
      <point x="1422" y="436"/>
      <point x="1299" y="277"/>
      <point x="1140" y="145"/>
      <point x="954" y="52"/>
      <point x="743" y="0"/>
      <point x="629" y="0" type="qcurve"/>
      <point x="192" y="0" type="line"/>
      <point x="316" y="707" type="line"/>
      <point x="179" y="707" type="line"/>
      <point x="222" y="829" type="line"/>
      <point x="338" y="829" type="line"/>
    </contour>
    <contour>
      <point x="395" y="122" type="line"/>
      <point x="621" y="122" type="line"/>
      <point x="766" y="122"/>
      <point x="1007" y="210"/>
      <point x="1188" y="368"/>
      <point x="1307" y="586"/>
      <point x="1330" y="717" type="qcurve"/>
      <point x="1357" y="873"/>
      <point x="1312" y="1097"/>
      <point x="1179" y="1243"/>
      <point x="965" y="1312"/>
      <point x="824" y="1312" type="qcurve"/>
      <point x="605" y="1312" type="line"/>
      <point x="520" y="829" type="line"/>
      <point x="946" y="829" type="line"/>
      <point x="903" y="707" type="line"/>
      <point x="498" y="707" type="line"/>
    </contour>
  </outline>
</glyph>
<glyph name="multiply" format="2">
  <advance width="1152"/>
  <unicode hex="00D7"/>
  <outline>
    <contour>
      <point x="345" y="888" type="line"/>
      <point x="446" y="974" type="line"/>
      <point x="694" y="673" type="line"/>
      <point x="1048" y="974" type="line"/>
      <point x="1119" y="888" type="line"/>
      <point x="765" y="587" type="line"/>
      <point x="1013" y="286" type="line"/>
      <point x="912" y="200" type="line"/>
      <point x="664" y="501" type="line"/>
      <point x="310" y="200" type="line"/>
      <point x="239" y="286" type="line"/>
      <point x="593" y="587" type="line"/>
    </contour>
  </outline>
</glyph>
<glyph name="Oslash" format="2">
  <advance width="1600"/>
  <unicode hex="00D8"/>
  <outline>
    <contour>
      <point x="1048" y="1464" type="qcurve"/>
      <point x="1107" y="1464"/>
      <point x="1222" y="1442"/>
      <point x="1287" y="1416" type="qcurve"/>
      <point x="1377" y="1559" type="line"/>
      <point x="1515" y="1529" type="line"/>
      <point x="1403" y="1351" type="line"/>
      <point x="1463" y="1307"/>
      <point x="1551" y="1198"/>
      <point x="1610" y="1073"/>
      <point x="1639" y="936"/>
      <point x="1639" y="864" type="qcurve"/>
      <point x="1639" y="736"/>
      <point x="1572" y="504"/>
      <point x="1454" y="305"/>
      <point x="1294" y="144"/>
      <point x="1109" y="31"/>
      <point x="906" y="-30"/>
      <point x="804" y="-30" type="qcurve"/>
      <point x="778" y="-30"/>
      <point x="713" y="-23"/>
      <point x="646" y="-11"/>
      <point x="585" y="7"/>
      <point x="564" y="18" type="qcurve"/>
      <point x="474" y="-125" type="line"/>
      <point x="337" y="-95" type="line"/>
      <point x="448" y="82" type="line"/>
      <point x="390" y="126"/>
      <point x="302" y="236"/>
      <point x="243" y="361"/>
      <point x="213" y="498"/>
      <point x="213" y="570" type="qcurve"/>
      <point x="213" y="695"/>
      <point x="276" y="925"/>
      <point x="389" y="1124"/>
      <point x="545" y="1286"/>
      <point x="731" y="1401"/>
      <point x="939" y="1464"/>
    </contour>
    <contour>
      <point x="816" y="92" type="qcurve"/>
      <point x="890" y="92"/>
      <point x="1041" y="143"/>
      <point x="1181" y="239"/>
      <point x="1303" y="377"/>
      <point x="1394" y="549"/>
      <point x="1447" y="755"/>
      <point x="1447" y="870" type="qcurve"/>
      <point x="1447" y="968"/>
      <point x="1388" y="1153"/>
      <point x="1322" y="1222" type="qcurve"/>
      <point x="636" y="133" type="line"/>
      <point x="677" y="113"/>
      <point x="771" y="92"/>
    </contour>
    <contour>
      <point x="1036" y="1342" type="qcurve"/>
      <point x="956" y="1342"/>
      <point x="800" y="1287"/>
      <point x="660" y="1186"/>
      <point x="541" y="1045"/>
      <point x="454" y="872"/>
      <point x="405" y="672"/>
      <point x="405" y="564" type="qcurve"/>
      <point x="405" y="464"/>
      <point x="463" y="282"/>
      <point x="529" y="211" type="qcurve"/>
      <point x="1214" y="1301" type="line"/>
      <point x="1160" y="1326"/>
      <point x="1074" y="1342"/>
    </contour>
  </outline>
</glyph>
<glyph name="Thorn" format="2">
  <advance width="1152"/>
  <unicode hex="00DE"/>
  <outline>
    <contour>
      <point x="434" y="1434" type="line" name="hr00"/>
      <point x="616" y="1434" type="line"/>
      <point x="562" y="1126" type="line"/>
      <point x="758" y="1126" type="line"/>
      <point x="901" y="1126"/>
      <point x="1092" y="1062"/>
      <point x="1199" y="951"/>
      <point x="1231" y="802"/>
      <point x="1216" y="717" type="qcurve"/>
      <point x="1201" y="632"/>
      <point x="1117" y="483"/>
      <point x="970" y="372"/>
      <point x="757" y="308"/>
      <point x="614" y="308" type="qcurve"/>
      <point x="418" y="308" type="line"/>
      <point x="364" y="0" type="line"/>
      <point x="182" y="0" type="line"/>
    </contour>
    <contour>
      <point x="544" y="1024" type="line"/>
      <point x="436" y="410" type="line"/>
      <point x="606" y="410" type="line"/>
      <point x="699" y="410"/>
      <point x="844" y="455"/>
      <point x="948" y="536"/>
      <point x="1012" y="649"/>
      <point x="1024" y="717" type="qcurve"/>
      <point x="1036" y="785"/>
      <point x="1012" y="898"/>
      <point x="936" y="979"/>
      <point x="807" y="1024"/>
      <point x="714" y="1024" type="qcurve"/>
    </contour>
  </outline>
</glyph>
<glyph name="ae" format="2">
  <advance width="1600"/>
  <unicode hex="00E6"/>
  <outline>
    <contour>
      <point x="943" y="487" type="line"/>
      <point x="938" y="458"/>
      <point x="932" y="391"/>
      <point x="932" y="369" type="qcurve"/>
      <point x="932" y="288"/>
      <point x="972" y="175"/>
      <point x="1041" y="104"/>
      <point x="1135" y="72"/>
      <point x="1188" y="72" type="qcurve"/>
      <point x="1237" y="72"/>
      <point x="1318" y="103"/>
      <point x="1382" y="149"/>
      <point x="1432" y="204"/>
      <point x="1452" y="227" type="qcurve"/>
      <point x="1554" y="125" type="line"/>
      <point x="1534" y="106"/>
      <point x="1462" y="53"/>
      <point x="1363" y="4"/>
      <point x="1238" y="-30"/>
      <point x="1165" y="-30" type="qcurve"/>
      <point x="1021" y="-30"/>
      <point x="831" y="83"/>
      <point x="789" y="195" type="qcurve"/>
      <point x="780" y="195" type="line"/>
      <point x="722" y="139"/>
      <point x="624" y="55"/>
      <point x="526" y="-2"/>
      <point x="417" y="-30"/>
      <point x="348" y="-30" type="qcurve"/>
      <point x="242" y="-30"/>
      <point x="129" y="86"/>
      <point x="129" y="183" type="qcurve"/>
      <point x="129" y="393"/>
      <point x="465" y="589"/>
      <point x="800" y="589" type="qcurve"/>
      <point x="813" y="667" type="line"/>
      <point x="819" y="700"/>
      <point x="819" y="728" type="qcurve"/>
      <point x="819" y="773"/>
      <point x="793" y="838"/>
      <point x="748" y="881"/>
      <point x="687" y="902"/>
      <point x="653" y="902" type="qcurve"/>
      <point x="614" y="902"/>
      <point x="535" y="880"/>
      <point x="460" y="839"/>
      <point x="392" y="782"/>
      <point x="365" y="747" type="qcurve"/>
      <point x="263" y="849" type="line"/>
      <point x="351" y="928"/>
      <point x="556" y="1004"/>
      <point x="671" y="1004" type="qcurve"/>
      <point x="717" y="1004"/>
      <point x="803" y="983"/>
      <point x="877" y="944"/>
      <point x="936" y="885"/>
      <point x="955" y="848" type="qcurve"/>
      <point x="1027" y="921"/>
      <point x="1209" y="1004"/>
      <point x="1315" y="1004" type="qcurve"/>
      <point x="1387" y="1004"/>
      <point x="1507" y="960"/>
      <point x="1593" y="868"/>
      <point x="1641" y="726"/>
      <point x="1641" y="629" type="qcurve"/>
      <point x="1641" y="597"/>
      <point x="1635" y="525"/>
      <point x="1628" y="487" type="qcurve"/>
    </contour>
    <contour>
      <point x="789" y="527" type="line"/>
      <point x="733" y="527"/>
      <point x="616" y="515"/>
      <point x="506" y="487"/>
      <point x="409" y="440"/>
      <point x="336" y="369"/>
      <point x="294" y="274"/>
      <point x="294" y="211" type="qcurve"/>
      <point x="294" y="175"/>
      <point x="316" y="122"/>
      <point x="350" y="88"/>
      <point x="393" y="72"/>
      <point x="413" y="72" type="qcurve"/>
      <point x="512" y="72"/>
      <point x="664" y="154"/>
      <point x="737" y="233" type="qcurve"/>
    </contour>
    <contour>
      <point x="1493" y="589" type="line"/>
      <point x="1499" y="620"/>
      <point x="1499" y="652" type="qcurve"/>
      <point x="1499" y="703"/>
      <point x="1475" y="793"/>
      <point x="1424" y="862"/>
      <point x="1344" y="902"/>
      <point x="1289" y="902" type="qcurve"/>
      <point x="1227" y="902"/>
      <point x="1121" y="853"/>
      <point x="1037" y="769"/>
      <point x="977" y="655"/>
      <point x="961" y="589" type="qcurve"/>
    </contour>
  </outline>
</glyph>
<glyph name="ccedilla" format="2">
  <advance width="1024"/>
  <unicode hex="00E7"/>
  <outline>
    <contour>
      <point x="989" y="747" type="line" name="hr00"/>
      <point x="980" y="768"/>
      <point x="937" y="822"/>
      <point x="873" y="869"/>
      <point x="789" y="902"/>
      <point x="739" y="902" type="qcurve"/>
      <point x="683" y="902"/>
      <point x="578" y="861"/>
      <point x="488" y="789"/>
      <point x="413" y="691"/>
      <point x="359" y="577"/>
      <point x="330" y="451"/>
      <point x="330" y="387" type="qcurve"/>
      <point x="330" y="319"/>
      <point x="366" y="203"/>
      <point x="434" y="119"/>
      <point x="531" y="72"/>
      <point x="592" y="72" type="qcurve"/>
      <point x="643" y="72"/>
      <point x="733" y="105"/>
      <point x="807" y="152"/>
      <point x="863" y="206"/>
      <point x="880" y="227" type="qcurve"/>
      <point x="982" y="125" type="line"/>
      <point x="905" y="57"/>
      <point x="727" y="-18"/>
      <point x="630" y="-28" type="qcurve"/>
      <point x="592" y="-110" type="line"/>
      <point x="616" y="-110"/>
      <point x="664" y="-132"/>
      <point x="704" y="-175"/>
      <point x="729" y="-240"/>
      <point x="729" y="-283" type="qcurve"/>
      <point x="729" y="-334"/>
      <point x="687" y="-411"/>
      <point x="623" y="-463"/>
      <point x="543" y="-490"/>
      <point x="506" y="-490" type="qcurve"/>
      <point x="471" y="-490"/>
      <point x="415" y="-476"/>
      <point x="373" y="-456"/>
      <point x="344" y="-433"/>
      <point x="335" y="-423" type="qcurve"/>
      <point x="389" y="-347" type="line"/>
      <point x="405" y="-373"/>
      <point x="462" y="-408"/>
      <point x="491" y="-408" type="qcurve"/>
      <point x="545" y="-408"/>
      <point x="607" y="-342"/>
      <point x="607" y="-288" type="qcurve"/>
      <point x="607" y="-266"/>
      <point x="589" y="-229"/>
      <point x="561" y="-204"/>
      <point x="525" y="-190"/>
      <point x="507" y="-190" type="qcurve"/>
      <point x="481" y="-190"/>
      <point x="436" y="-201"/>
      <point x="424" y="-206" type="qcurve"/>
      <point x="509" y="-26" type="line" name="hr01"/>
      <point x="427" y="-14"/>
      <point x="297" y="57"/>
      <point x="206" y="166"/>
      <point x="158" y="306"/>
      <point x="158" y="386" type="qcurve"/>
      <point x="158" y="470"/>
      <point x="201" y="627"/>
      <point x="280" y="765"/>
      <point x="388" y="878"/>
      <point x="519" y="959"/>
      <point x="668" y="1004"/>
      <point x="747" y="1004" type="qcurve"/>
      <point x="811" y="1004"/>
      <point x="919" y="976"/>
      <point x="1006" y="932"/>
      <point x="1070" y="877"/>
      <point x="1091" y="849" type="qcurve"/>
    </contour>
  </outline>
</glyph>
<glyph name="eth" format="2">
  <advance width="1120"/>
  <unicode hex="00F0"/>
  <outline>
    <contour>
      <point x="529" y="-32" type="qcurve"/>
      <point x="455" y="-32"/>
      <point x="324" y="15"/>
      <point x="227" y="105"/>
      <point x="171" y="234"/>
      <point x="171" y="317" type="qcurve"/>
      <point x="171" y="424"/>
      <point x="251" y="617"/>
      <point x="390" y="763"/>
      <point x="577" y="849"/>
      <point x="684" y="849" type="qcurve"/>
      <point x="726" y="849"/>
      <point x="808" y="826"/>
      <point x="880" y="779"/>
      <point x="938" y="707"/>
      <point x="956" y="659" type="qcurve"/>
      <point x="966" y="659" type="line"/>
      <point x="973" y="701"/>
      <point x="986" y="806"/>
      <point x="986" y="864" type="qcurve"/>
      <point x="986" y="936"/>
      <point x="956" y="1080"/>
      <point x="914" y="1143" type="qcurve"/>
      <point x="725" y="1005" type="line"/>
      <point x="661" y="1099" type="line"/>
      <point x="852" y="1238" type="line"/>
      <point x="756" y="1381" type="line"/>
      <point x="869" y="1464" type="line"/>
      <point x="965" y="1321" type="line"/>
      <point x="1161" y="1464" type="line"/>
      <point x="1223" y="1369" type="line"/>
      <point x="1029" y="1227" type="line"/>
      <point x="1051" y="1192"/>
      <point x="1090" y="1098"/>
      <point x="1119" y="987"/>
      <point x="1135" y="861"/>
      <point x="1135" y="794" type="qcurve"/>
      <point x="1135" y="677"/>
      <point x="1086" y="465"/>
      <point x="1001" y="281"/>
      <point x="885" y="132"/>
      <point x="750" y="26"/>
      <point x="603" y="-32"/>
    </contour>
    <contour>
      <point x="666" y="747" type="qcurve"/>
      <point x="598" y="747"/>
      <point x="481" y="673"/>
      <point x="394" y="553"/>
      <point x="344" y="400"/>
      <point x="344" y="321" type="qcurve"/>
      <point x="344" y="264"/>
      <point x="372" y="172"/>
      <point x="424" y="106"/>
      <point x="500" y="70"/>
      <point x="547" y="70" type="qcurve"/>
      <point x="598" y="70"/>
      <point x="691" y="107"/>
      <point x="769" y="170"/>
      <point x="832" y="254"/>
      <point x="876" y="346"/>
      <point x="900" y="441"/>
      <point x="900" y="485" type="qcurve"/>
      <point x="900" y="534"/>
      <point x="869" y="629"/>
      <point x="809" y="702"/>
      <point x="722" y="747"/>
    </contour>
  </outline>
</glyph>
<glyph name="oslash" format="2">
  <advance width="1120"/>
  <unicode hex="00F8"/>
  <guideline x="526" y="0" angle="90"/>
  <outline>
    <contour>
      <point x="737" y="1004" type="qcurve" name="at01"/>
      <point x="829" y="1004"/>
      <point x="904" y="974" type="qcurve"/>
      <point x="986" y="1099" type="line" name="av01"/>
      <point x="1084" y="1069" type="line" name="ih01"/>
      <point x="991" y="926" type="line"/>
      <point x="1070" y="867"/>
      <point x="1143" y="692"/>
      <point x="1143" y="596" type="qcurve" name="sh01"/>
      <point x="1143" y="469"/>
      <point x="1050" y="242"/>
      <point x="889" y="71"/>
      <point x="675" y="-30"/>
      <point x="554" y="-30" type="qcurve" name="ab01"/>
      <point x="460" y="-30"/>
      <point x="385" y="0" type="qcurve"/>
      <point x="304" y="-125" type="line" name="av02"/>
      <point x="207" y="-95" type="line" name="ih02"/>
      <point x="299" y="46" type="line"/>
      <point x="221" y="110"/>
      <point x="148" y="284"/>
      <point x="148" y="381" type="qcurve" name="sh02"/>
      <point x="148" y="507"/>
      <point x="242" y="734"/>
      <point x="403" y="904"/>
      <point x="617" y="1004"/>
    </contour>
    <contour>
      <point x="452" y="101" type="line"/>
      <point x="515" y="72"/>
      <point x="572" y="72" type="qcurve" name="sv01"/>
      <point x="628" y="72"/>
      <point x="730" y="113"/>
      <point x="819" y="185"/>
      <point x="891" y="284"/>
      <point x="943" y="398"/>
      <point x="971" y="524"/>
      <point x="971" y="588" type="qcurve" name="ah01"/>
      <point x="971" y="648"/>
      <point x="942" y="756"/>
      <point x="911" y="804" type="qcurve" name="ih03"/>
    </contour>
    <contour>
      <point x="719" y="902" type="qcurve" name="sv02"/>
      <point x="634" y="902"/>
      <point x="488" y="811"/>
      <point x="381" y="663"/>
      <point x="320" y="477"/>
      <point x="320" y="381" type="qcurve" name="sh03"/>
      <point x="320" y="321"/>
      <point x="348" y="213"/>
      <point x="379" y="168" type="qcurve" name="ih04"/>
      <point x="837" y="871" type="line"/>
      <point x="811" y="888"/>
      <point x="749" y="902"/>
    </contour>
  </outline>
</glyph>
<glyph name="thorn" format="2">
  <advance width="1120"/>
  <unicode hex="00FE"/>
  <outline>
    <contour>
      <point x="562" y="1464" type="line"/>
      <point x="461" y="894" type="line"/>
      <point x="487" y="916"/>
      <point x="559" y="956"/>
      <point x="638" y="986"/>
      <point x="718" y="1004"/>
      <point x="754" y="1004" type="qcurve"/>
      <point x="843" y="1004"/>
      <point x="984" y="946"/>
      <point x="1082" y="841"/>
      <point x="1134" y="694"/>
      <point x="1134" y="605" type="qcurve"/>
      <point x="1134" y="523"/>
      <point x="1095" y="366"/>
      <point x="1024" y="224"/>
      <point x="921" y="105"/>
      <point x="794" y="19"/>
      <point x="643" y="-30"/>
      <point x="559" y="-30" type="qcurve"/>
      <point x="521" y="-30"/>
      <point x="450" y="-13"/>
      <point x="387" y="15"/>
      <point x="335" y="52"/>
      <point x="316" y="72" type="qcurve"/>
      <point x="222" y="-460" type="line"/>
      <point x="85" y="-490" type="line"/>
      <point x="55" y="-490" type="line"/>
      <point x="394" y="1434" type="line"/>
      <point x="532" y="1464" type="line"/>
    </contour>
    <contour>
      <point x="566" y="72" type="qcurve"/>
      <point x="647" y="72"/>
      <point x="790" y="160"/>
      <point x="898" y="305"/>
      <point x="961" y="490"/>
      <point x="961" y="588" type="qcurve"/>
      <point x="961" y="659"/>
      <point x="925" y="775"/>
      <point x="860" y="857"/>
      <point x="769" y="902"/>
      <point x="714" y="902" type="qcurve"/>
      <point x="672" y="902"/>
      <point x="590" y="879"/>
      <point x="517" y="845"/>
      <point x="459" y="803"/>
      <point x="442" y="784" type="qcurve"/>
      <point x="337" y="190" type="line"/>
      <point x="349" y="172"/>
      <point x="391" y="131"/>
      <point x="449" y="95"/>
      <point x="522" y="72"/>
    </contour>
  </outline>
</glyph>
<glyph name="Aogonek" format="2">
  <advance width="1344"/>
  <unicode hex="0104"/>
  <anchor x="672" y="1600" name="AccentDefault"/>
  <outline>
    <contour>
      <point x="1264" y="0" type="line"/>
      <point x="1217" y="-30"/>
      <point x="1140" y="-87"/>
      <point x="1086" y="-145"/>
      <point x="1056" y="-207"/>
      <point x="1056" y="-241" type="qcurve"/>
      <point x="1056" y="-279"/>
      <point x="1100" y="-328"/>
      <point x="1132" y="-328" type="qcurve"/>
      <point x="1154" y="-328"/>
      <point x="1186" y="-318"/>
      <point x="1211" y="-302" type="qcurve"/>
      <point x="1230" y="-412" type="line"/>
      <point x="1188" y="-429"/>
      <point x="1133" y="-440"/>
      <point x="1104" y="-440" type="qcurve"/>
      <point x="1066" y="-440"/>
      <point x="1004" y="-417"/>
      <point x="959" y="-373"/>
      <point x="934" y="-311"/>
      <point x="934" y="-272" type="qcurve"/>
      <point x="934" y="-230"/>
      <point x="968" y="-155"/>
      <point x="1022" y="-91"/>
      <point x="1087" y="-39"/>
      <point x="1118" y="-21" type="qcurve"/>
      <point x="1058" y="-30" type="line"/>
      <point x="974" y="365" type="line"/>
      <point x="403" y="365" type="line"/>
      <point x="173" y="-30" type="line"/>
      <point x="59" y="0" type="line"/>
      <point x="908" y="1464" type="line"/>
      <point x="952" y="1464" type="line"/>
    </contour>
    <contour>
      <point x="814" y="1090" type="line"/>
      <point x="473" y="487" type="line"/>
      <point x="949" y="487" type="line"/>
      <point x="824" y="1090" type="line"/>
    </contour>
  </outline>
</glyph>
<glyph name="aogonek" format="2">
  <advance width="1120"/>
  <unicode hex="0105"/>
  <outline>
    <contour>
      <point x="302" y="849" type="line"/>
      <point x="398" y="925"/>
      <point x="612" y="1004"/>
      <point x="742" y="1004" type="qcurve"/>
      <point x="808" y="1004"/>
      <point x="932" y="969"/>
      <point x="1026" y="894"/>
      <point x="1083" y="775"/>
      <point x="1083" y="690" type="qcurve"/>
      <point x="1083" y="668"/>
      <point x="1080" y="622"/>
      <point x="1075" y="597" type="qcurve"/>
      <point x="1000" y="174" type="line"/>
      <point x="997" y="154"/>
      <point x="997" y="139" type="qcurve"/>
      <point x="997" y="72"/>
      <point x="1060" y="72" type="qcurve"/>
      <point x="1042" y="-30" type="line"/>
      <point x="1031" y="-30"/>
      <point x="1011" y="-29"/>
      <point x="1001" y="-28" type="qcurve"/>
      <point x="974" y="-46"/>
      <point x="916" y="-91"/>
      <point x="869" y="-144"/>
      <point x="838" y="-205"/>
      <point x="838" y="-241" type="qcurve"/>
      <point x="838" y="-279"/>
      <point x="882" y="-328"/>
      <point x="914" y="-328" type="qcurve"/>
      <point x="936" y="-328"/>
      <point x="968" y="-318"/>
      <point x="993" y="-302" type="qcurve"/>
      <point x="1012" y="-412" type="line"/>
      <point x="970" y="-429"/>
      <point x="915" y="-440"/>
      <point x="886" y="-440" type="qcurve"/>
      <point x="845" y="-440"/>
      <point x="781" y="-414"/>
      <point x="738" y="-369"/>
      <point x="716" y="-307"/>
      <point x="716" y="-272" type="qcurve"/>
      <point x="716" y="-225"/>
      <point x="754" y="-145"/>
      <point x="814" y="-78"/>
      <point x="888" y="-26"/>
      <point x="924" y="-6" type="qcurve"/>
      <point x="902" y="4"/>
      <point x="872" y="36"/>
      <point x="854" y="75"/>
      <point x="844" y="120"/>
      <point x="843" y="142" type="qcurve"/>
      <point x="833" y="142" type="line"/>
      <point x="804" y="115"/>
      <point x="717" y="55"/>
      <point x="611" y="4"/>
      <point x="490" y="-30"/>
      <point x="429" y="-30" type="qcurve"/>
      <point x="372" y="-30"/>
      <point x="273" y="4"/>
      <point x="200" y="65"/>
      <point x="159" y="149"/>
      <point x="159" y="199" type="qcurve"/>
      <point x="159" y="303"/>
      <point x="272" y="451"/>
      <point x="473" y="545"/>
      <point x="749" y="589"/>
      <point x="911" y="589" type="qcurve"/>
      <point x="920" y="637" type="line"/>
      <point x="924" y="656"/>
      <point x="927" y="691"/>
      <point x="927" y="707" type="qcurve"/>
      <point x="927" y="765"/>
      <point x="889" y="840"/>
      <point x="831" y="884"/>
      <point x="758" y="902"/>
      <point x="724" y="902" type="qcurve"/>
      <point x="676" y="902"/>
      <point x="590" y="879"/>
      <point x="512" y="838"/>
      <point x="439" y="781"/>
      <point x="404" y="747" type="qcurve"/>
    </contour>
    <contour>
      <point x="897" y="507" type="line"/>
      <point x="842" y="507"/>
      <point x="715" y="500"/>
      <point x="588" y="479"/>
      <point x="470" y="440"/>
      <point x="379" y="376"/>
      <point x="324" y="282"/>
      <point x="324" y="217" type="qcurve"/>
      <point x="324" y="153"/>
      <point x="406" y="72"/>
      <point x="484" y="72" type="qcurve"/>
      <point x="535" y="72"/>
      <point x="637" y="104"/>
      <point x="732" y="157"/>
      <point x="818" y="226"/>
      <point x="854" y="263" type="qcurve"/>
    </contour>
  </outline>
</glyph>
<glyph name="Eogonek" format="2">
  <advance width="1088"/>
  <unicode hex="0118"/>
  <anchor x="554" y="1600" name="AccentDefault"/>
  <outline>
    <contour>
      <point x="434" y="1434" type="line"/>
      <point x="1213" y="1434" type="line"/>
      <point x="1188" y="1292" type="line"/>
      <point x="595" y="1312" type="line"/>
      <point x="511" y="839" type="line"/>
      <point x="1005" y="839" type="line"/>
      <point x="983" y="717" type="line"/>
      <point x="490" y="717" type="line"/>
      <point x="385" y="122" type="line"/>
      <point x="1011" y="142" type="line"/>
      <point x="986" y="0" type="line"/>
      <point x="922" y="0" type="line"/>
      <point x="879" y="-26"/>
      <point x="803" y="-82"/>
      <point x="747" y="-142"/>
      <point x="714" y="-207"/>
      <point x="714" y="-241" type="qcurve"/>
      <point x="714" y="-279"/>
      <point x="758" y="-328"/>
      <point x="790" y="-328" type="qcurve"/>
      <point x="812" y="-328"/>
      <point x="844" y="-318"/>
      <point x="869" y="-302" type="qcurve"/>
      <point x="888" y="-412" type="line"/>
      <point x="846" y="-429"/>
      <point x="791" y="-440"/>
      <point x="762" y="-440" type="qcurve"/>
      <point x="721" y="-440"/>
      <point x="657" y="-414"/>
      <point x="614" y="-369"/>
      <point x="592" y="-307"/>
      <point x="592" y="-272" type="qcurve"/>
      <point x="592" y="-193"/>
      <point x="656" y="-116" type="qcurve"/>
      <point x="710" y="-52"/>
      <point x="813" y="0" type="qcurve"/>
      <point x="182" y="0" type="line"/>
    </contour>
  </outline>
</glyph>
<glyph name="eogonek" format="2">
  <advance width="1024"/>
  <unicode hex="0119"/>
  <outline>
    <contour>
      <point x="332" y="487" type="line"/>
      <point x="326" y="455"/>
      <point x="321" y="396"/>
      <point x="321" y="369" type="qcurve"/>
      <point x="321" y="288"/>
      <point x="364" y="175"/>
      <point x="437" y="104"/>
      <point x="534" y="72"/>
      <point x="587" y="72" type="qcurve"/>
      <point x="636" y="72"/>
      <point x="723" y="103"/>
      <point x="795" y="149"/>
      <point x="852" y="204"/>
      <point x="871" y="227" type="qcurve"/>
      <point x="973" y="125" type="line"/>
      <point x="953" y="106"/>
      <point x="875" y="53"/>
      <point x="787" y="12"/>
      <point x="747" y="0" type="qcurve"/>
      <point x="704" y="-26"/>
      <point x="628" y="-82"/>
      <point x="572" y="-142"/>
      <point x="539" y="-207"/>
      <point x="539" y="-241" type="qcurve"/>
      <point x="539" y="-279"/>
      <point x="583" y="-328"/>
      <point x="615" y="-328" type="qcurve"/>
      <point x="637" y="-328"/>
      <point x="669" y="-318"/>
      <point x="694" y="-302" type="qcurve"/>
      <point x="713" y="-412" type="line"/>
      <point x="671" y="-429"/>
      <point x="616" y="-440"/>
      <point x="587" y="-440" type="qcurve"/>
      <point x="546" y="-440"/>
      <point x="482" y="-414"/>
      <point x="439" y="-369"/>
      <point x="417" y="-307"/>
      <point x="417" y="-272" type="qcurve"/>
      <point x="417" y="-193"/>
      <point x="481" y="-116" type="qcurve"/>
      <point x="520" y="-70"/>
      <point x="584" y="-30" type="qcurve"/>
      <point x="468" y="-30"/>
      <point x="315" y="21"/>
      <point x="207" y="122"/>
      <point x="149" y="272"/>
      <point x="149" y="371" type="qcurve"/>
      <point x="149" y="499"/>
      <point x="238" y="729"/>
      <point x="392" y="902"/>
      <point x="598" y="1004"/>
      <point x="714" y="1004" type="qcurve"/>
      <point x="786" y="1004"/>
      <point x="912" y="960"/>
      <point x="1006" y="868"/>
      <point x="1060" y="726"/>
      <point x="1060" y="629" type="qcurve"/>
      <point x="1060" y="597"/>
      <point x="1054" y="525"/>
      <point x="1047" y="487" type="qcurve"/>
    </contour>
    <contour>
      <point x="912" y="589" type="line"/>
      <point x="918" y="620"/>
      <point x="918" y="652" type="qcurve"/>
      <point x="918" y="703"/>
      <point x="888" y="793"/>
      <point x="830" y="862"/>
      <point x="744" y="902"/>
      <point x="688" y="902" type="qcurve"/>
      <point x="626" y="902"/>
      <point x="517" y="853"/>
      <point x="429" y="769"/>
      <point x="366" y="655"/>
      <point x="350" y="589" type="qcurve"/>
    </contour>
  </outline>
</glyph>
<glyph name="Hbar" format="2">
  <advance width="1504"/>
  <unicode hex="0126"/>
  <outline>
    <contour>
      <point x="622" y="1464" type="line"/>
      <point x="573" y="1188" type="line"/>
      <point x="1348" y="1188" type="line"/>
      <point x="1392" y="1434" type="line"/>
      <point x="1580" y="1464" type="line"/>
      <point x="1531" y="1188" type="line"/>
      <point x="1608" y="1188" type="line"/>
      <point x="1587" y="1066" type="line"/>
      <point x="1510" y="1066" type="line"/>
      <point x="1322" y="0" type="line"/>
      <point x="1140" y="0" type="line"/>
      <point x="1266" y="717" type="line"/>
      <point x="490" y="717" type="line"/>
      <point x="364" y="0" type="line"/>
      <point x="182" y="0" type="line"/>
      <point x="369" y="1066" type="line"/>
      <point x="290" y="1066" type="line"/>
      <point x="312" y="1188" type="line"/>
      <point x="391" y="1188" type="line"/>
      <point x="434" y="1434" type="line"/>
    </contour>
    <contour>
      <point x="1287" y="839" type="line"/>
      <point x="1327" y="1066" type="line"/>
      <point x="551" y="1066" type="line"/>
      <point x="511" y="839" type="line"/>
    </contour>
  </outline>
</glyph>
<glyph name="hbar" format="2">
  <advance width="1120"/>
  <unicode hex="0127"/>
  <guideline x="20" y="0" angle="90"/>
  <guideline x="758" y="0" angle="90"/>
  <outline>
    <contour>
      <point x="246" y="1290" type="line" name="hr00"/>
      <point x="379" y="1290" type="line" name="sv01"/>
      <point x="410" y="1464" type="line" name="sh01"/>
      <point x="547" y="1494" type="line" name="av01"/>
      <point x="577" y="1494" type="line"/>
      <point x="541" y="1290" type="line" name="sh03"/>
      <point x="793" y="1290" type="line" name="ah02"/>
      <point x="769" y="1158" type="line"/>
      <point x="520" y="1171" type="line" name="sh02"/>
      <point x="461" y="837" type="line" name="hr01"/>
      <point x="471" y="837" type="line"/>
      <point x="549" y="916"/>
      <point x="723" y="1004"/>
      <point x="829" y="1004" type="qcurve" name="at01"/>
      <point x="890" y="1004"/>
      <point x="989" y="972"/>
      <point x="1059" y="911" name="hr02"/>
      <point x="1098" y="821"/>
      <point x="1098" y="764" type="qcurve" name="sh04"/>
      <point x="1098" y="733"/>
      <point x="1092" y="697" type="qcurve"/>
      <point x="1004" y="196" type="line"/>
      <point x="998" y="163"/>
      <point x="998" y="140" type="qcurve" name="dh02"/>
      <point x="998" y="104"/>
      <point x="1028" y="72"/>
      <point x="1060" y="72" type="qcurve"/>
      <point x="1042" y="-30" type="line" name="ab01"/>
      <point x="974" y="-30"/>
      <point x="905" y="-4"/>
      <point x="860" y="43"/>
      <point x="840" y="109"/>
      <point x="840" y="149" type="qcurve" name="dh01"/>
      <point x="840" y="184"/>
      <point x="848" y="227" type="qcurve"/>
      <point x="930" y="697" type="line"/>
      <point x="934" y="720"/>
      <point x="934" y="745" type="qcurve" name="ih01"/>
      <point x="934" y="817"/>
      <point x="852" y="902"/>
      <point x="778" y="902" type="qcurve" name="sv02"/>
      <point x="728" y="902"/>
      <point x="633" y="869"/>
      <point x="546" y="812"/>
      <point x="469" y="738"/>
      <point x="436" y="696" type="qcurve"/>
      <point x="314" y="0" type="line" name="dh04"/>
      <point x="152" y="0" type="line" name="dh03"/>
      <point x="360" y="1180" type="line" name="sh05"/>
      <point x="228" y="1188" type="line" name="ah01"/>
    </contour>
  </outline>
</glyph>
<glyph name="Iogonek" format="2">
  <advance width="576"/>
  <unicode hex="012E"/>
  <anchor x="288" y="1600" name="AccentDefault"/>
  <outline>
    <contour>
      <point x="637" y="1464" type="line"/>
      <point x="379" y="0" type="line"/>
      <point x="332" y="-30"/>
      <point x="255" y="-87"/>
      <point x="201" y="-145"/>
      <point x="171" y="-207"/>
      <point x="171" y="-241" type="qcurve"/>
      <point x="171" y="-279"/>
      <point x="215" y="-328"/>
      <point x="247" y="-328" type="qcurve"/>
      <point x="269" y="-328"/>
      <point x="301" y="-318"/>
      <point x="326" y="-302" type="qcurve"/>
      <point x="345" y="-412" type="line"/>
      <point x="303" y="-429"/>
      <point x="248" y="-440"/>
      <point x="219" y="-440" type="qcurve"/>
      <point x="181" y="-440"/>
      <point x="119" y="-417"/>
      <point x="74" y="-373"/>
      <point x="49" y="-311"/>
      <point x="49" y="-272" type="qcurve"/>
      <point x="49" y="-239"/>
      <point x="74" y="-170"/>
      <point x="128" y="-99"/>
      <point x="212" y="-31"/>
      <point x="272" y="0" type="qcurve"/>
      <point x="197" y="0" type="line"/>
      <point x="449" y="1434" type="line"/>
    </contour>
  </outline>
</glyph>
<glyph name="iogonek" format="2">
  <advance width="576"/>
  <unicode hex="012F"/>
  <anchor x="288" y="1450" name="AccentDefault"/>
  <outline>
    <contour>
      <point x="546" y="1004" type="line"/>
      <point x="404" y="197" type="line"/>
      <point x="402" y="186"/>
      <point x="399" y="151"/>
      <point x="399" y="140" type="qcurve"/>
      <point x="399" y="128"/>
      <point x="404" y="104"/>
      <point x="417" y="84"/>
      <point x="441" y="72"/>
      <point x="459" y="72" type="qcurve"/>
      <point x="441" y="-30" type="line"/>
      <point x="430" y="-30"/>
      <point x="410" y="-29"/>
      <point x="400" y="-28" type="qcurve"/>
      <point x="375" y="-46"/>
      <point x="318" y="-90"/>
      <point x="270" y="-143"/>
      <point x="238" y="-205"/>
      <point x="238" y="-241" type="qcurve"/>
      <point x="238" y="-279"/>
      <point x="282" y="-328"/>
      <point x="314" y="-328" type="qcurve"/>
      <point x="336" y="-328"/>
      <point x="368" y="-318"/>
      <point x="393" y="-302" type="qcurve"/>
      <point x="412" y="-412" type="line"/>
      <point x="370" y="-429"/>
      <point x="315" y="-440"/>
      <point x="286" y="-440" type="qcurve"/>
      <point x="245" y="-440"/>
      <point x="181" y="-414"/>
      <point x="138" y="-369"/>
      <point x="116" y="-307"/>
      <point x="116" y="-272" type="qcurve"/>
      <point x="116" y="-226"/>
      <point x="153" y="-146"/>
      <point x="212" y="-80"/>
      <point x="285" y="-28"/>
      <point x="320" y="-8" type="qcurve"/>
      <point x="273" y="15"/>
      <point x="238" y="98"/>
      <point x="238" y="146" type="qcurve"/>
      <point x="238" y="165"/>
      <point x="242" y="204"/>
      <point x="246" y="226" type="qcurve"/>
      <point x="378" y="974" type="line"/>
      <point x="515" y="1004" type="line"/>
    </contour>
    <contour>
      <point x="415" y="1272" type="qcurve"/>
      <point x="415" y="1312"/>
      <point x="471" y="1368"/>
      <point x="511" y="1368" type="qcurve"/>
      <point x="551" y="1368"/>
      <point x="607" y="1312"/>
      <point x="607" y="1272" type="qcurve"/>
      <point x="607" y="1232"/>
      <point x="551" y="1176"/>
      <point x="511" y="1176" type="qcurve"/>
      <point x="471" y="1176"/>
      <point x="415" y="1232"/>
    </contour>
  </outline>
</glyph>
<glyph name="dotlessi" format="2">
  <advance width="576"/>
  <unicode hex="0131"/>
  <outline>
    <contour>
      <point x="207" y="0" type="line"/>
      <point x="378" y="974" type="line"/>
      <point x="516" y="1004" type="line"/>
      <point x="546" y="1004" type="line"/>
      <point x="369" y="0" type="line"/>
    </contour>
  </outline>
</glyph>
<glyph name="Lslash" format="2">
  <advance width="1088"/>
  <unicode hex="0141"/>
  <outline>
    <contour>
      <point x="622" y="1464" type="line"/>
      <point x="519" y="885" type="line"/>
      <point x="690" y="1004" type="line"/>
      <point x="710" y="896" type="line"/>
      <point x="495" y="746" type="line"/>
      <point x="385" y="122" type="line"/>
      <point x="1010" y="142" type="line"/>
      <point x="985" y="0" type="line"/>
      <point x="182" y="0" type="line"/>
      <point x="287" y="601" type="line"/>
      <point x="150" y="505" type="line"/>
      <point x="131" y="613" type="line"/>
      <point x="311" y="739" type="line"/>
      <point x="434" y="1434" type="line"/>
    </contour>
  </outline>
</glyph>
<glyph name="oe" format="2">
  <advance width="1824"/>
  <unicode hex="0153"/>
  <outline>
    <contour>
      <point x="736" y="1004" type="qcurve"/>
      <point x="869" y="1004"/>
      <point x="1048" y="894"/>
      <point x="1097" y="797" type="qcurve"/>
      <point x="1182" y="894"/>
      <point x="1397" y="1004"/>
      <point x="1515" y="1004" type="qcurve"/>
      <point x="1587" y="1004"/>
      <point x="1712" y="960"/>
      <point x="1806" y="868"/>
      <point x="1860" y="726"/>
      <point x="1860" y="629" type="qcurve"/>
      <point x="1860" y="597"/>
      <point x="1854" y="526"/>
      <point x="1847" y="487" type="qcurve"/>
      <point x="1131" y="487" type="line"/>
      <point x="1125" y="455"/>
      <point x="1120" y="396"/>
      <point x="1120" y="369" type="qcurve"/>
      <point x="1120" y="288"/>
      <point x="1164" y="175"/>
      <point x="1238" y="104"/>
      <point x="1335" y="72"/>
      <point x="1388" y="72" type="qcurve"/>
      <point x="1436" y="72"/>
      <point x="1523" y="103"/>
      <point x="1595" y="149"/>
      <point x="1652" y="203"/>
      <point x="1671" y="227" type="qcurve"/>
      <point x="1774" y="125" type="line"/>
      <point x="1754" y="106"/>
      <point x="1679" y="53"/>
      <point x="1574" y="4"/>
      <point x="1442" y="-30"/>
      <point x="1365" y="-30" type="qcurve"/>
      <point x="1085" y="-30"/>
      <point x="988" y="177" type="qcurve"/>
      <point x="903" y="80"/>
      <point x="686" y="-30"/>
      <point x="553" y="-30" type="qcurve"/>
      <point x="459" y="-30"/>
      <point x="309" y="30"/>
      <point x="204" y="139"/>
      <point x="148" y="290"/>
      <point x="148" y="381" type="qcurve"/>
      <point x="148" y="465"/>
      <point x="191" y="623"/>
      <point x="268" y="762"/>
      <point x="376" y="876"/>
      <point x="507" y="959"/>
      <point x="656" y="1004"/>
    </contour>
    <contour>
      <point x="718" y="902" type="qcurve"/>
      <point x="633" y="902"/>
      <point x="488" y="811"/>
      <point x="381" y="663"/>
      <point x="321" y="476"/>
      <point x="321" y="380" type="qcurve"/>
      <point x="321" y="313"/>
      <point x="354" y="200"/>
      <point x="418" y="118"/>
      <point x="511" y="72"/>
      <point x="571" y="72" type="qcurve"/>
      <point x="626" y="72"/>
      <point x="729" y="113"/>
      <point x="817" y="185"/>
      <point x="890" y="284"/>
      <point x="942" y="398"/>
      <point x="970" y="524"/>
      <point x="970" y="588" type="qcurve"/>
      <point x="970" y="655"/>
      <point x="936" y="770"/>
      <point x="871" y="854"/>
      <point x="777" y="902"/>
    </contour>
    <contour>
      <point x="1713" y="589" type="line"/>
      <point x="1719" y="620"/>
      <point x="1719" y="652" type="qcurve"/>
      <point x="1719" y="703"/>
      <point x="1689" y="793"/>
      <point x="1631" y="862"/>
      <point x="1545" y="902"/>
      <point x="1489" y="902" type="qcurve"/>
      <point x="1427" y="902"/>
      <point x="1317" y="853"/>
      <point x="1228" y="769"/>
      <point x="1165" y="655"/>
      <point x="1149" y="589" type="qcurve"/>
    </contour>
  </outline>
</glyph>
<glyph name="Scedilla" format="2">
  <advance width="1152"/>
  <unicode hex="015E"/>
  <outline>
    <contour>
      <point x="1120" y="1112" type="line"/>
      <point x="1107" y="1143"/>
      <point x="1053" y="1222"/>
      <point x="974" y="1293"/>
      <point x="872" y="1342"/>
      <point x="811" y="1342" type="qcurve"/>
      <point x="755" y="1342"/>
      <point x="664" y="1305"/>
      <point x="599" y="1241"/>
      <point x="563" y="1156"/>
      <point x="563" y="1107" type="qcurve"/>
      <point x="563" y="1072"/>
      <point x="588" y="1000"/>
      <point x="643" y="932"/>
      <point x="730" y="872"/>
      <point x="792" y="848" type="qcurve"/>
      <point x="960" y="782"/>
      <point x="1120" y="573"/>
      <point x="1120" y="441" type="qcurve"/>
      <point x="1120" y="350"/>
      <point x="1057" y="187"/>
      <point x="940" y="61"/>
      <point x="774" y="-20"/>
      <point x="670" y="-28" type="qcurve"/>
      <point x="632" y="-110" type="line"/>
      <point x="656" y="-110"/>
      <point x="704" y="-132"/>
      <point x="744" y="-175"/>
      <point x="769" y="-240"/>
      <point x="769" y="-283" type="qcurve"/>
      <point x="769" y="-334"/>
      <point x="727" y="-411"/>
      <point x="663" y="-463"/>
      <point x="583" y="-490"/>
      <point x="546" y="-490" type="qcurve"/>
      <point x="511" y="-490"/>
      <point x="455" y="-476"/>
      <point x="413" y="-456"/>
      <point x="384" y="-433"/>
      <point x="375" y="-423" type="qcurve"/>
      <point x="429" y="-347" type="line"/>
      <point x="445" y="-373"/>
      <point x="502" y="-408"/>
      <point x="531" y="-408" type="qcurve"/>
      <point x="585" y="-408"/>
      <point x="647" y="-342"/>
      <point x="647" y="-288" type="qcurve"/>
      <point x="647" y="-266"/>
      <point x="629" y="-229"/>
      <point x="601" y="-204"/>
      <point x="565" y="-190"/>
      <point x="547" y="-190" type="qcurve"/>
      <point x="521" y="-190"/>
      <point x="476" y="-201"/>
      <point x="464" y="-206" type="qcurve"/>
      <point x="546" y="-28" type="line"/>
      <point x="471" y="-21"/>
      <point x="347" y="20"/>
      <point x="247" y="81"/>
      <point x="167" y="160"/>
      <point x="135" y="204" type="qcurve"/>
      <point x="253" y="322" type="line"/>
      <point x="275" y="273"/>
      <point x="345" y="189"/>
      <point x="437" y="127"/>
      <point x="549" y="92"/>
      <point x="613" y="92" type="qcurve"/>
      <point x="690" y="92"/>
      <point x="808" y="139"/>
      <point x="887" y="218"/>
      <point x="928" y="322"/>
      <point x="928" y="378" type="qcurve"/>
      <point x="928" y="466"/>
      <point x="800" y="602"/>
      <point x="660" y="657" type="qcurve"/>
      <point x="592" y="684"/>
      <point x="488" y="763"/>
      <point x="417" y="861"/>
      <point x="381" y="977"/>
      <point x="381" y="1041" type="qcurve"/>
      <point x="381" y="1132"/>
      <point x="447" y="1288"/>
      <point x="564" y="1400"/>
      <point x="727" y="1464"/>
      <point x="824" y="1464" type="qcurve"/>
      <point x="907" y="1464"/>
      <point x="1043" y="1412"/>
      <point x="1146" y="1338"/>
      <point x="1218" y="1258"/>
      <point x="1237" y="1230" type="qcurve"/>
    </contour>
  </outline>
</glyph>
<glyph name="scedilla" format="2">
  <advance width="864"/>
  <unicode hex="015F"/>
  <outline>
    <contour>
      <point x="217" y="227" type="line"/>
      <point x="235" y="193"/>
      <point x="289" y="136"/>
      <point x="355" y="95"/>
      <point x="427" y="72"/>
      <point x="463" y="72" type="qcurve"/>
      <point x="501" y="72"/>
      <point x="573" y="93"/>
      <point x="630" y="135"/>
      <point x="664" y="201"/>
      <point x="664" y="246" type="qcurve"/>
      <point x="664" y="274"/>
      <point x="647" y="323"/>
      <point x="604" y="369"/>
      <point x="529" y="413"/>
      <point x="471" y="436" type="qcurve"/>
      <point x="435" y="450"/>
      <point x="363" y="499"/>
      <point x="307" y="566"/>
      <point x="272" y="652"/>
      <point x="272" y="703" type="qcurve"/>
      <point x="272" y="772"/>
      <point x="326" y="883"/>
      <point x="418" y="961"/>
      <point x="539" y="1004"/>
      <point x="606" y="1004" type="qcurve"/>
      <point x="654" y="1004"/>
      <point x="741" y="980"/>
      <point x="817" y="938"/>
      <point x="878" y="882"/>
      <point x="900" y="849" type="qcurve"/>
      <point x="799" y="747" type="line"/>
      <point x="789" y="778"/>
      <point x="748" y="834"/>
      <point x="693" y="877"/>
      <point x="626" y="902"/>
      <point x="589" y="902" type="qcurve"/>
      <point x="558" y="902"/>
      <point x="502" y="879"/>
      <point x="459" y="837"/>
      <point x="434" y="779"/>
      <point x="434" y="743" type="qcurve"/>
      <point x="434" y="683"/>
      <point x="503" y="604"/>
      <point x="579" y="575" type="qcurve"/>
      <point x="707" y="527"/>
      <point x="826" y="394"/>
      <point x="826" y="297" type="qcurve"/>
      <point x="826" y="228"/>
      <point x="779" y="117"/>
      <point x="695" y="34"/>
      <point x="579" y="-17"/>
      <point x="511" y="-26" type="qcurve"/>
      <point x="472" y="-110" type="line"/>
      <point x="496" y="-110"/>
      <point x="544" y="-132"/>
      <point x="584" y="-175"/>
      <point x="609" y="-240"/>
      <point x="609" y="-283" type="qcurve"/>
      <point x="609" y="-334"/>
      <point x="567" y="-411"/>
      <point x="503" y="-463"/>
      <point x="423" y="-490"/>
      <point x="386" y="-490" type="qcurve"/>
      <point x="351" y="-490"/>
      <point x="295" y="-476"/>
      <point x="253" y="-456"/>
      <point x="224" y="-433"/>
      <point x="215" y="-423" type="qcurve"/>
      <point x="269" y="-347" type="line"/>
      <point x="285" y="-373"/>
      <point x="342" y="-408"/>
      <point x="371" y="-408" type="qcurve"/>
      <point x="425" y="-408"/>
      <point x="487" y="-342"/>
      <point x="487" y="-288" type="qcurve"/>
      <point x="487" y="-266"/>
      <point x="469" y="-229"/>
      <point x="441" y="-204"/>
      <point x="405" y="-190"/>
      <point x="387" y="-190" type="qcurve"/>
      <point x="361" y="-190"/>
      <point x="316" y="-201"/>
      <point x="304" y="-206" type="qcurve"/>
      <point x="389" y="-26" type="line"/>
      <point x="352" y="-21"/>
      <point x="275" y="3"/>
      <point x="202" y="40"/>
      <point x="138" y="92"/>
      <point x="114" y="125" type="qcurve"/>
    </contour>
  </outline>
</glyph>
<glyph name="Tcommaaccent" format="2">
  <advance width="1152"/>
  <unicode hex="0162"/>
  <outline>
    <contour>
      <point x="284" y="1434" type="line"/>
      <point x="1372" y="1434" type="line"/>
      <point x="1347" y="1292" type="line"/>
      <point x="898" y="1312" type="line"/>
      <point x="667" y="0" type="line"/>
      <point x="616" y="-110" type="line"/>
      <point x="640" y="-110"/>
      <point x="688" y="-132"/>
      <point x="728" y="-175"/>
      <point x="753" y="-240"/>
      <point x="753" y="-283" type="qcurve"/>
      <point x="753" y="-334"/>
      <point x="711" y="-411"/>
      <point x="647" y="-463"/>
      <point x="567" y="-490"/>
      <point x="530" y="-490" type="qcurve"/>
      <point x="495" y="-490"/>
      <point x="439" y="-476"/>
      <point x="397" y="-456"/>
      <point x="368" y="-433"/>
      <point x="359" y="-423" type="qcurve"/>
      <point x="413" y="-347" type="line"/>
      <point x="429" y="-373"/>
      <point x="486" y="-408"/>
      <point x="515" y="-408" type="qcurve"/>
      <point x="569" y="-408"/>
      <point x="631" y="-342"/>
      <point x="631" y="-288" type="qcurve"/>
      <point x="631" y="-266"/>
      <point x="613" y="-229"/>
      <point x="585" y="-204"/>
      <point x="549" y="-190"/>
      <point x="531" y="-190" type="qcurve"/>
      <point x="505" y="-190"/>
      <point x="460" y="-201"/>
      <point x="448" y="-206" type="qcurve"/>
      <point x="545" y="0" type="line"/>
      <point x="485" y="0" type="line"/>
      <point x="716" y="1312" type="line"/>
      <point x="259" y="1292" type="line"/>
    </contour>
  </outline>
</glyph>
<glyph name="tcommaaccent" format="2">
  <advance width="736"/>
  <unicode hex="0163"/>
  <outline>
    <contour>
      <point x="646" y="1322" type="line"/>
      <point x="590" y="1004" type="line"/>
      <point x="805" y="1004" type="line"/>
      <point x="782" y="872" type="line"/>
      <point x="569" y="885" type="line"/>
      <point x="465" y="297" type="line"/>
      <point x="460" y="273"/>
      <point x="455" y="230"/>
      <point x="455" y="211" type="qcurve"/>
      <point x="455" y="176"/>
      <point x="474" y="123"/>
      <point x="518" y="89"/>
      <point x="589" y="72"/>
      <point x="641" y="72" type="qcurve"/>
      <point x="623" y="-30" type="line"/>
      <point x="582" y="-30"/>
      <point x="511" y="-26"/>
      <point x="480" y="-21" type="qcurve"/>
      <point x="440" y="-110" type="line"/>
      <point x="464" y="-110"/>
      <point x="512" y="-132"/>
      <point x="552" y="-175"/>
      <point x="577" y="-240"/>
      <point x="577" y="-283" type="qcurve"/>
      <point x="577" y="-334"/>
      <point x="535" y="-411"/>
      <point x="471" y="-463"/>
      <point x="391" y="-490"/>
      <point x="354" y="-490" type="qcurve"/>
      <point x="319" y="-490"/>
      <point x="263" y="-476"/>
      <point x="221" y="-456"/>
      <point x="192" y="-433"/>
      <point x="183" y="-423" type="qcurve"/>
      <point x="237" y="-347" type="line"/>
      <point x="253" y="-373"/>
      <point x="310" y="-408"/>
      <point x="339" y="-408" type="qcurve"/>
      <point x="393" y="-408"/>
      <point x="455" y="-342"/>
      <point x="455" y="-288" type="qcurve"/>
      <point x="455" y="-266"/>
      <point x="437" y="-229"/>
      <point x="409" y="-204"/>
      <point x="373" y="-190"/>
      <point x="355" y="-190" type="qcurve"/>
      <point x="329" y="-190"/>
      <point x="284" y="-201"/>
      <point x="272" y="-206" type="qcurve"/>
      <point x="374" y="13" type="line"/>
      <point x="335" y="37"/>
      <point x="294" y="122"/>
      <point x="294" y="191" type="qcurve"/>
      <point x="294" y="217"/>
      <point x="300" y="284"/>
      <point x="308" y="326" type="qcurve"/>
      <point x="408" y="893" type="line"/>
      <point x="241" y="902" type="line"/>
      <point x="259" y="1004" type="line"/>
      <point x="428" y="1004" type="line"/>
      <point x="478" y="1292" type="line"/>
      <point x="616" y="1322" type="line"/>
    </contour>
  </outline>
</glyph>
<glyph name="Tbar" format="2">
  <advance width="1152"/>
  <unicode hex="0166"/>
  <outline>
    <contour>
      <point x="284" y="1434" type="line"/>
      <point x="1372" y="1434" type="line"/>
      <point x="1347" y="1292" type="line"/>
      <point x="898" y="1312" type="line"/>
      <point x="813" y="829" type="line"/>
      <point x="1061" y="829" type="line"/>
      <point x="1039" y="707" type="line"/>
      <point x="791" y="707" type="line"/>
      <point x="667" y="0" type="line"/>
      <point x="485" y="0" type="line"/>
      <point x="609" y="707" type="line"/>
      <point x="361" y="707" type="line"/>
      <point x="383" y="829" type="line"/>
      <point x="631" y="829" type="line"/>
      <point x="716" y="1312" type="line"/>
      <point x="259" y="1292" type="line"/>
    </contour>
  </outline>
</glyph>
<glyph name="Uogonek" format="2">
  <advance width="1504"/>
  <unicode hex="0172"/>
  <anchor x="772" y="1600" name="AccentDefault"/>
  <outline>
    <contour>
      <point x="622" y="1464" type="line"/>
      <point x="463" y="562" type="line"/>
      <point x="458" y="535"/>
      <point x="452" y="495"/>
      <point x="448" y="462"/>
      <point x="447" y="434"/>
      <point x="447" y="418" type="qcurve"/>
      <point x="447" y="324"/>
      <point x="504" y="199"/>
      <point x="599" y="124"/>
      <point x="722" y="92"/>
      <point x="788" y="92" type="qcurve"/>
      <point x="870" y="92"/>
      <point x="1032" y="137"/>
      <point x="1170" y="242"/>
      <point x="1272" y="414"/>
      <point x="1295" y="542" type="qcurve"/>
      <point x="1458" y="1464" type="line"/>
      <point x="1575" y="1434" type="line"/>
      <point x="1421" y="562" type="line"/>
      <point x="1400" y="445"/>
      <point x="1319" y="259"/>
      <point x="1203" y="119"/>
      <point x="1054" y="25"/>
      <point x="967" y="0" type="qcurve"/>
      <point x="936" y="-19"/>
      <point x="863" y="-69"/>
      <point x="801" y="-131"/>
      <point x="760" y="-202"/>
      <point x="760" y="-241" type="qcurve"/>
      <point x="760" y="-279"/>
      <point x="804" y="-328"/>
      <point x="836" y="-328" type="qcurve"/>
      <point x="858" y="-328"/>
      <point x="890" y="-318"/>
      <point x="915" y="-302" type="qcurve"/>
      <point x="934" y="-412" type="line"/>
      <point x="892" y="-429"/>
      <point x="837" y="-440"/>
      <point x="808" y="-440" type="qcurve"/>
      <point x="767" y="-440"/>
      <point x="703" y="-414"/>
      <point x="660" y="-369"/>
      <point x="638" y="-307"/>
      <point x="638" y="-272" type="qcurve"/>
      <point x="638" y="-232"/>
      <point x="667" y="-161"/>
      <point x="714" y="-100"/>
      <point x="774" y="-49"/>
      <point x="805" y="-30" type="qcurve"/>
      <point x="746" y="-30" type="line"/>
      <point x="635" y="-30"/>
      <point x="457" y="22"/>
      <point x="333" y="129"/>
      <point x="266" y="293"/>
      <point x="266" y="404" type="qcurve"/>
      <point x="266" y="422"/>
      <point x="267" y="454"/>
      <point x="270" y="490"/>
      <point x="276" y="533"/>
      <point x="281" y="562" type="qcurve"/>
      <point x="434" y="1434" type="line"/>
    </contour>
  </outline>
</glyph>
<glyph name="longs" format="2">
  <advance width="576"/>
  <unicode hex="017F"/>
  <outline>
    <contour>
      <point x="337" y="0" type="line"/>
      <point x="175" y="0" type="line"/>
      <point x="370" y="1108" type="line"/>
      <point x="386" y="1198"/>
      <point x="447" y="1331"/>
      <point x="550" y="1420"/>
      <point x="703" y="1464"/>
      <point x="811" y="1464" type="qcurve"/>
      <point x="793" y="1362" type="line"/>
      <point x="729" y="1361"/>
      <point x="640" y="1327"/>
      <point x="580" y="1268"/>
      <point x="546" y="1186"/>
      <point x="537" y="1137" type="qcurve"/>
    </contour>
  </outline>
</glyph>
<glyph name="uni0192" format="2">
  <advance width="1024"/>
  <unicode hex="0192"/>
  <outline>
    <contour>
      <point x="534" y="738" type="line"/>
      <point x="388" y="746" type="line"/>
      <point x="406" y="848" type="line"/>
      <point x="574" y="848" type="line"/>
      <point x="654" y="1074" type="line"/>
      <point x="691" y="1179"/>
      <point x="792" y="1359"/>
      <point x="927" y="1491"/>
      <point x="1100" y="1566"/>
      <point x="1210" y="1566" type="qcurve"/>
      <point x="1192" y="1464" type="line"/>
      <point x="1120" y="1464"/>
      <point x="1005" y="1402"/>
      <point x="913" y="1295"/>
      <point x="843" y="1154"/>
      <point x="815" y="1075" type="qcurve"/>
      <point x="736" y="848" type="line"/>
      <point x="974" y="848" type="line"/>
      <point x="951" y="716" type="line"/>
      <point x="694" y="731" type="line"/>
      <point x="437" y="0" type="line"/>
      <point x="400" y="-106"/>
      <point x="299" y="-285"/>
      <point x="164" y="-416"/>
      <point x="-9" y="-489"/>
      <point x="-118" y="-490" type="qcurve"/>
      <point x="-100" y="-388" type="line"/>
      <point x="-25" y="-388"/>
      <point x="90" y="-327"/>
      <point x="180" y="-222"/>
      <point x="248" y="-80"/>
      <point x="276" y="0" type="qcurve"/>
    </contour>
  </outline>
</glyph>
<glyph name="uni019E" format="2">
  <advance width="1120"/>
  <unicode hex="019E"/>
  <outline>
    <contour>
      <point x="888" y="-460" type="line"/>
      <point x="751" y="-490" type="line"/>
      <point x="721" y="-490" type="line"/>
      <point x="929" y="687" type="line"/>
      <point x="947" y="790"/>
      <point x="869" y="902"/>
      <point x="778" y="902" type="qcurve"/>
      <point x="684" y="902"/>
      <point x="518" y="797"/>
      <point x="436" y="697" type="qcurve"/>
      <point x="314" y="0" type="line"/>
      <point x="152" y="0" type="line"/>
      <point x="318" y="944" type="line"/>
      <point x="455" y="974" type="line"/>
      <point x="485" y="974" type="line"/>
      <point x="461" y="837" type="line"/>
      <point x="471" y="837" type="line"/>
      <point x="557" y="925"/>
      <point x="728" y="1004"/>
      <point x="819" y="1004" type="qcurve"/>
      <point x="892" y="1004"/>
      <point x="1004" y="963"/>
      <point x="1078" y="887"/>
      <point x="1106" y="776"/>
      <point x="1094" y="707" type="qcurve"/>
    </contour>
  </outline>
</glyph>
<glyph name="uni0250" format="2">
  <advance width="1024"/>
  <unicode hex="0250"/>
  <outline>
    <contour>
      <point x="944" y="125" type="line"/>
      <point x="863" y="49"/>
      <point x="669" y="-30"/>
      <point x="554" y="-30" type="qcurve"/>
      <point x="487" y="-30"/>
      <point x="366" y="6"/>
      <point x="275" y="80"/>
      <point x="222" y="189"/>
      <point x="222" y="263" type="qcurve"/>
      <point x="222" y="280"/>
      <point x="225" y="317"/>
      <point x="229" y="337" type="qcurve"/>
      <point x="311" y="800" type="line"/>
      <point x="314" y="819"/>
      <point x="314" y="835" type="qcurve"/>
      <point x="314" y="902"/>
      <point x="251" y="902" type="qcurve"/>
      <point x="269" y="1004" type="line"/>
      <point x="341" y="1004"/>
      <point x="410" y="971"/>
      <point x="450" y="920"/>
      <point x="467" y="859"/>
      <point x="468" y="832" type="qcurve"/>
      <point x="478" y="832" type="line"/>
      <point x="508" y="861"/>
      <point x="586" y="922"/>
      <point x="682" y="972"/>
      <point x="798" y="1004"/>
      <point x="867" y="1004" type="qcurve"/>
      <point x="919" y="1004"/>
      <point x="1004" y="973"/>
      <point x="1063" y="916"/>
      <point x="1095" y="835"/>
      <point x="1095" y="786" type="qcurve"/>
      <point x="1095" y="682"/>
      <point x="1001" y="529"/>
      <point x="823" y="428"/>
      <point x="564" y="377"/>
      <point x="398" y="375" type="qcurve"/>
      <point x="384" y="297" type="line"/>
      <point x="382" y="283"/>
      <point x="379" y="259"/>
      <point x="379" y="247" type="qcurve"/>
      <point x="379" y="200"/>
      <point x="413" y="134"/>
      <point x="468" y="92"/>
      <point x="537" y="72"/>
      <point x="572" y="72" type="qcurve"/>
      <point x="660" y="72"/>
      <point x="803" y="158"/>
      <point x="860" y="227" type="qcurve"/>
    </contour>
    <contour>
      <point x="409" y="437" type="line"/>
      <point x="531" y="438"/>
      <point x="724" y="481"/>
      <point x="859" y="562"/>
      <point x="931" y="680"/>
      <point x="931" y="756" type="qcurve"/>
      <point x="931" y="794"/>
      <point x="903" y="849"/>
      <point x="862" y="885"/>
      <point x="813" y="902"/>
      <point x="792" y="902" type="qcurve"/>
      <point x="698" y="902"/>
      <point x="535" y="810"/>
      <point x="460" y="731" type="qcurve"/>
    </contour>
  </outline>
</glyph>
<glyph name="uni0251" format="2">
  <advance width="1120"/>
  <unicode hex="0251"/>
  <outline>
    <contour>
      <point x="1157" y="1004" type="line"/>
      <point x="1011" y="179" type="line"/>
      <point x="1009" y="167"/>
      <point x="1007" y="147"/>
      <point x="1007" y="138" type="qcurve"/>
      <point x="1007" y="105"/>
      <point x="1037" y="72"/>
      <point x="1070" y="72" type="qcurve"/>
      <point x="1052" y="-30" type="line"/>
      <point x="976" y="-30"/>
      <point x="903" y="-10"/>
      <point x="861" y="21"/>
      <point x="843" y="57"/>
      <point x="840" y="72" type="qcurve"/>
      <point x="830" y="72" type="line"/>
      <point x="776" y="27"/>
      <point x="645" y="-30"/>
      <point x="554" y="-30" type="qcurve"/>
      <point x="470" y="-30"/>
      <point x="323" y="24"/>
      <point x="212" y="128"/>
      <point x="148" y="279"/>
      <point x="148" y="377" type="qcurve"/>
      <point x="148" y="458"/>
      <point x="190" y="614"/>
      <point x="266" y="753"/>
      <point x="373" y="871"/>
      <point x="504" y="956"/>
      <point x="655" y="1004"/>
      <point x="737" y="1004" type="qcurve"/>
      <point x="780" y="1004"/>
      <point x="850" y="994"/>
      <point x="908" y="976"/>
      <point x="958" y="950"/>
      <point x="982" y="934" type="qcurve"/>
      <point x="1127" y="1004" type="line"/>
    </contour>
    <contour>
      <point x="961" y="815" type="line"/>
      <point x="913" y="861"/>
      <point x="797" y="902"/>
      <point x="719" y="902" type="qcurve"/>
      <point x="668" y="902"/>
      <point x="570" y="863"/>
      <point x="481" y="793"/>
      <point x="405" y="697"/>
      <point x="350" y="581"/>
      <point x="319" y="450"/>
      <point x="319" y="381" type="qcurve"/>
      <point x="319" y="297"/>
      <point x="367" y="180"/>
      <point x="440" y="106"/>
      <point x="530" y="72"/>
      <point x="572" y="72" type="qcurve"/>
      <point x="611" y="72"/>
      <point x="683" y="83"/>
      <point x="750" y="108"/>
      <point x="816" y="151"/>
      <point x="850" y="183" type="qcurve"/>
    </contour>
  </outline>
</glyph>
<glyph name="uni0254" format="2">
  <advance width="1024"/>
  <unicode hex="0254"/>
  <outline>
    <contour>
      <point x="206" y="227" type="line" name="hr00"/>
      <point x="215" y="206"/>
      <point x="258" y="152"/>
      <point x="322" y="105"/>
      <point x="406" y="72"/>
      <point x="456" y="72" type="qcurve" name="sv01"/>
      <point x="544" y="72"/>
      <point x="694" y="161"/>
      <point x="803" y="307"/>
      <point x="865" y="491"/>
      <point x="865" y="587" type="qcurve" name="sh02"/>
      <point x="865" y="655"/>
      <point x="829" y="771"/>
      <point x="761" y="855"/>
      <point x="664" y="902"/>
      <point x="603" y="902" type="qcurve" name="sv02"/>
      <point x="552" y="902"/>
      <point x="462" y="869"/>
      <point x="388" y="822"/>
      <point x="332" y="768"/>
      <point x="315" y="747" type="qcurve"/>
      <point x="213" y="849" type="line"/>
      <point x="245" y="878"/>
      <point x="326" y="933"/>
      <point x="428" y="977"/>
      <point x="549" y="1004"/>
      <point x="621" y="1004" type="qcurve" name="at01"/>
      <point x="716" y="1004"/>
      <point x="869" y="943"/>
      <point x="978" y="832"/>
      <point x="1037" y="680"/>
      <point x="1037" y="588" type="qcurve" name="sh01"/>
      <point x="1037" y="504"/>
      <point x="995" y="347"/>
      <point x="919" y="209"/>
      <point x="813" y="96"/>
      <point x="684" y="15"/>
      <point x="537" y="-30"/>
      <point x="458" y="-30" type="qcurve" name="ab01"/>
      <point x="394" y="-30"/>
      <point x="283" y="-2"/>
      <point x="192" y="42"/>
      <point x="125" y="97"/>
      <point x="104" y="125" type="qcurve"/>
    </contour>
  </outline>
</glyph>
